{
.appVersion = "3108";
.formatVersion = 3;
axes = (
{
name = Weight;
tag = wght;
}
);
classes = (
{
automatic = 1;

glyphs = (
{
glyphname = "hamza-ar";
layers = (
{
anchors = (
{
name = bottom;
pos = (119,-189);
},
{
name = bottom.mark;
pos = (149,-189);
},
{
name = top;
pos = (272,584);
},
{
name = top.mark;
pos = (294,576);
}
);
layerId = "1467EB51-6BD4-4CFC-AEAA-3E4EB1A95CFA";
shapes = (
{
closed = 1;
nodes = (
(54,0,o),
(36,3,o),
(61,19,cs),
(105,47,o),
(185,75,o),
(233,99,cs),
(257,111,o),
(246,121,o),
(229,125,cs),
(194,133,o),
(167,152,o),
(156,171,cs),
(130,216,o),
(221,334,o),
(312,397,cs),
(327,408,o),
(362,428,o),
(376,428,cs),
(390,428,o),
(378,405,o),
(368,388,cs),
(358,371,o),
(333,341,o),
(325,326,c),
(287,316,o),
(264,308,o),
(236,284,c),
(262,238,o),
(334,254,o),
(339,203,cs),
(341,184,o),
(315,152,o),
(287,113,cs),
(257,72,o),
(228,34,o),
(194,18,cs),
(169,6,o),
(123,0,o),
(84,0,cs)
);
}
);
width = 431;
},
{
anchors = (
{
name = bottom;
pos = (119,-189);
},
{
name = bottom.mark;
pos = (149,-189);
},
{
name = top;
pos = (272,584);
},
{
name = top.mark;
pos = (294,576);
}
);
layerId = "EF321139-F770-433D-B2B6-C3EFA1B16465";
shapes = (
{
closed = 1;
nodes = (
(65,0,o),
(39,-2,o),
(39,18,cs),
(39,27,o),
(51,35,o),
(58,40,cs),
(96,65,o),
(144,84,o),
(188,103,c),
(225,118,l),
(228,119,l),
(204,125,o),
(181,133,o),
(166,148,c),
(166,147,l),
(148,163,o),
(138,181,o),
(138,198,cs),
(138,202,o),
(139,206,o),
(140,210,cs),
(151,253,o),
(177,288,o),
(203,319,cs),
(217,336,o),
(233,353,o),
(251,369,cs),
(288,402,o),
(322,424,o),
(353,434,cs),
(358,436,o),
(363,437,o),
(367,437,cs),
(379,437,o),
(385,431,o),
(385,420,cs),
(385,407,o),
(377,396,o),
(369,381,cs),
(362,368,o),
(353,355,o),
(344,343,cs),
(337,333,o),
(333,328,o),
(328,320,c),
(321,315,l),
(291,307,o),
(270,301,o),
(248,284,c),
(260,271,o),
(278,267,o),
(295,260,cs),
(315,251,o),
(343,239,o),
(343,211,cs),
(343,209,o),
(343,209,o),
(343,208,cs),
(343,201,o),
(340,192,o),
(335,181,cs),
(330,170,o),
(322,159,o),
(312,145,cs),
(263,77,ls),
(245,53,o),
(223,34,o),
(197,19,cs),
(173,6,o),
(126,0,o),
(85,0,cs)
);
}
);
width = 431;
}
);
unicode = 1569;
},
{
glyphname = "alef-ar";
layers = (
{
anchors = (
{
name = bottom;
pos = (128,-22);
},
{
name = bottom.mark;
pos = (145,-31);
},
{
name = top;
pos = (121,791);
},
{
name = top.mark;
pos = (129,835);
}
);
layerId = "1467EB51-6BD4-4CFC-AEAA-3E4EB1A95CFA";
shapes = (
{
closed = 1;
nodes = (
(147,687,l),
(175,262,l),
(101,144,l),
(73,569,l)
);
}
);
width = 248;
},
{
anchors = (
{
name = bottom;
pos = (132,-22);
},
{
name = bottom.mark;
pos = (148,-31);
},
{
name = top;
pos = (124,791);
},
{
name = top.mark;
pos = (133,835);
}
);
layerId = "EF321139-F770-433D-B2B6-C3EFA1B16465";
shapes = (
{
closed = 1;
nodes = (
(136,681,ls),
(142,690,o),
(157,688,o),
(158,676,c),
(186,261,l),
(112,145,ls),
(106,135,o),
(92,138,o),
(91,150,c),
(63,564,l)
);
}
);
width = 248;
},
{
anchors = (
{
name = bottom;
pos = (128,-22);
},
{
name = bottom.mark;
pos = (145,-31);
},
{
name = top;
pos = (121,791);
},
{
name = top.mark;
pos = (129,835);
}
);
associatedMasterId = "1467EB51-6BD4-4CFC-AEAA-3E4EB1A95CFA";
attr = {
color = 1;
};
layerId = "DC0D95AD-73F2-4312-B9C0-5371E8659C99";
name = "6 Dec 21, 20:55";
shapes = (
{
attr = {
gradient = {
colors = (
(
(210,46,31,128),
0
),
(
(210,46,31,255),
1
)
);
end = (-0.3618,0.3448);
start = (1.0152,0.1787);
};
};
closed = 1;
nodes = (
(147,687,l),
(175,262,l),
(101,144,l),
(73,569,l)
);
}
);
width = 248;
},
{
anchors = (
{
name = bottom;
pos = (132,-22);
},
{
name = bottom.mark;
pos = (148,-31);
},
{
name = top;
pos = (124,791);
},
{
name = top.mark;
pos = (133,835);
}
);
associatedMasterId = "EF321139-F770-433D-B2B6-C3EFA1B16465";
attr = {
color = 1;
};
layerId = "70E32639-EB3D-4A33-A07C-2E77119975B4";
name = "6 Dec 21, 20:55";
shapes = (
{
attr = {
gradient = {
colors = (
(
(210,46,31,128),
0
),
(
(210,46,31,255),
1
)
);
end = (-0.3618,0.3448);
start = (1.0152,0.1787);
};
};
closed = 1;
nodes = (
(136,681,ls),
(142,690,o),
(157,688,o),
(158,676,c),
(186,261,l),
(112,145,ls),
(106,135,o),
(92,138,o),
(91,150,c),
(63,564,l)
);
}
);
width = 248;
}
);
unicode = 1575;
},
{
glyphname = "alef-ar.fina";
layers = (
{
anchors = (
{
name = bottom;
pos = (125,-185);
},
{
name = bottom.mark;
pos = (208,-189);
},
{
name = entry;
pos = (112,0);
},
{
name = top;
pos = (112,800);
},
{
name = top.mark;
pos = (116,791);
}
);
layerId = "1467EB51-6BD4-4CFC-AEAA-3E4EB1A95CFA";
shapes = (
{
closed = 1;
nodes = (
(136,687,l),
(174,118,l),
(112,0,l),
(73,570,l)
);
}
);
width = 112;
},
{
anchors = (
{
name = bottom;
pos = (125,-185);
},
{
name = bottom.mark;
pos = (208,-189);
},
{
name = entry;
pos = (107,0);
},
{
name = top;
pos = (112,800);
},
{
name = top.mark;
pos = (116,791);
}
);
layerId = "EF321139-F770-433D-B2B6-C3EFA1B16465";
shapes = (
{
closed = 1;
nodes = (
(123,681,ls),
(128,691,o),
(144,688,o),
(145,677,cs),
(182,124,l),
(121,6,ls),
(116,-3,o),
(99,-2,o),
(99,11,c),
(60,565,l)
);
}
);
width = 112;
}
);
},
{
glyphname = "alef-ar.fina.lam";
layers = (
{
anchors = (
{
name = bottom;
pos = (317,-204);
},
{
name = bottom.mark;
pos = (317,-113);
},
{
name = entry;
pos = (-27,0);
},
{
name = top;
pos = (285,714);
},
{
name = top.mark;
pos = (290,671);
}
);
layerId = "1467EB51-6BD4-4CFC-AEAA-3E4EB1A95CFA";
shapes = (
{
closed = 1;
nodes = (
(366,460,o),
(382,365,o),
(390,257,c),
(323,145,l),
(289,444,l),
(354,564,l)
);
}
);
width = 394;
},
{
anchors = (
{
name = bottom;
pos = (317,-204);
},
{
name = bottom.mark;
pos = (317,-113);
},
{
name = entry;
pos = (-27,0);
},
{
name = top;
pos = (285,714);
},
{
name = top.mark;
pos = (290,671);
}
);
layerId = "EF321139-F770-433D-B2B6-C3EFA1B16465";
shapes = (
{
closed = 1;
nodes = (
(323,142,o),
(307,143,o),
(306,155,cs),
(272,448,l),
(337,568,ls),
(342,578,o),
(358,574,o),
(359,563,cs),
(364,527,o),
(368,493,o),
(373,457,c),
(382,397,o),
(390,327,o),
(395,263,c),
(329,151,ls)
);
}
);
width = 394;
}
);
},
{
glyphname = "behDotless-ar";
layers = (
{
anchors = (
{
name = bottom;
pos = (308,-136);
},
{
name = bottom.mark;
pos = (330,-185);
},
{
name = top;
pos = (397,505);
},
{
name = top.mark;
pos = (347,532);
}
);
layerId = "1467EB51-6BD4-4CFC-AEAA-3E4EB1A95CFA";
shapes = (
{
closed = 1;
nodes = (
(696,456,l),
(696,456,o),
(759,335,o),
(699,215,cs),
(646,107,o),
(441,1,o),
(275,1,cs),
(264,1,o),
(86,-13,o),
(86,152,cs),
(86,207,o),
(123,288,o),
(177,369,cs),
(188,385,o),
(196,380,o),
(192,372,cs),
(184,357,o),
(147,300,o),
(144,240,cs),
(140,155,o),
(219,124,o),
(306,124,cs),
(456,124,o),
(650,221,o),
(650,221,c),
(651,244,o),
(632,308,o),
(619,342,c)
);
}
);
width = 801;
},
{
anchors = (
{
name = bottom;
pos = (308,-136);
},
{
name = bottom.mark;
pos = (330,-185);
},
{
name = top;
pos = (397,505);
},
{
name = top.mark;
pos = (347,532);
}
);
layerId = "EF321139-F770-433D-B2B6-C3EFA1B16465";
shapes = (
{
closed = 1;
nodes = (
(192,397,o),
(200,387,o),
(200,376,cs),
(200,372,o),
(198,367,o),
(195,360,c),
(170,312,o),
(157,274,o),
(157,244,cs),
(157,169,o),
(225,143,o),
(302,143,cs),
(401,143,o),
(499,172,o),
(569,206,cs),
(623,232,l),
(621,259,o),
(611,286,o),
(604,309,cs),
(601,320,o),
(597,330,o),
(594,339,cs),
(593,342,o),
(594,347,o),
(595,349,cs),
(669,458,ls),
(675,467,o),
(687,466,o),
(690,456,cs),
(713,385,ls),
(719,367,o),
(722,349,o),
(722,329,cs),
(722,284,o),
(709,249,o),
(693,214,c),
(672,169,o),
(631,129,o),
(571,92,c),
(502,50,o),
(422,17,o),
(327,5,cs),
(308,3,o),
(289,1,o),
(272,1,cs),
(171,1,o),
(103,32,o),
(76,107,cs),
(69,124,o),
(66,143,o),
(66,165,cs),
(66,192,o),
(73,221,o),
(86,252,c),
(108,300,o),
(129,343,o),
(155,384,c),
(162,393,o),
(170,397,o),
(178,397,cs)
);
}
);
width = 801;
}
);
unicode = 1646;
},
{
glyphname = "behDotless-ar.jalt";
layers = (
{
anchors = (
{
name = bottom;
pos = (488,-163);
},
{
name = bottom.mark;
pos = (479,-158);
},
{
name = top;
pos = (523,338);
},
{
name = top.mark;
pos = (505,795);
}
);
layerId = "1467EB51-6BD4-4CFC-AEAA-3E4EB1A95CFA";
shapes = (
{
closed = 1;
nodes = (
(178,21,o),
(102,51,o),
(59,98,cs),
(-33,198,o),
(-7,321,o),
(72,422,cs),
(152,524,o),
(266,581,o),
(409,618,cs),
(473,635,o),
(545,645,o),
(624,648,c),
(571,535,l),
(489,532,o),
(403,518,o),
(313,490,cs),
(223,462,o),
(148,420,o),
(87,362,cs),
(69,344,o),
(58,326,o),
(56,306,cs),
(54,286,o),
(69,262,o),
(101,235,cs),
(186,162,o),
(306,126,o),
(463,128,c),
(543,134,o),
(623,142,o),
(695,158,cs),
(731,165,o),
(773,180,o),
(822,201,cs),
(895,233,o),
(896,233,o),
(896,233,c),
(898,266,o),
(875,326,o),
(865,354,c),
(942,468,l),
(942,468,o),
(942,468,o),
(966,394,cs),
(982,345,o),
(975,289,o),
(945,227,cs),
(920,176,o),
(881,134,o),
(828,102,cs),
(731,44,o),
(601,8,o),
(458,2,cs),
(393,-1,o),
(336,1,o),
(287,7,cs)
);
}
);
width = 1038;
},
{
anchors = (
{
name = bottom;
pos = (488,-163);
},
{
name = bottom.mark;
pos = (479,-158);
},
{
name = top;
pos = (523,338);
},
{
name = top.mark;
pos = (505,795);
}
);
layerId = "EF321139-F770-433D-B2B6-C3EFA1B16465";
shapes = (
{
closed = 1;
nodes = (
(301,0,o),
(210,15,o),
(146,40,cs),
(108,55,o),
(78,74,o),
(56,98,cs),
(16,141,o),
(-3,189,o),
(-3,241,cs),
(-3,244,o),
(-3,245,o),
(-3,249,cs),
(-3,281,o),
(7,312,o),
(20,343,cs),
(83,497,o),
(230,576,o),
(401,621,cs),
(464,637,o),
(534,647,o),
(611,650,cs),
(619,651,o),
(627,642,o),
(622,633,c),
(571,524,ls),
(570,521,o),
(565,517,o),
(561,517,cs),
(470,514,o),
(392,498,o),
(314,474,c),
(228,448,o),
(157,407,o),
(100,353,cs),
(85,339,o),
(76,323,o),
(74,306,cs),
(73,291,o),
(86,272,o),
(113,248,cs),
(190,181,o),
(299,147,o),
(441,147,cs),
(455,147,l),
(552,155,o),
(654,164,o),
(733,191,cs),
(773,205,o),
(824,228,o),
(862,245,c),
(860,270,o),
(850,298,o),
(843,320,cs),
(840,331,o),
(836,341,o),
(833,351,cs),
(832,354,o),
(833,359,o),
(834,361,cs),
(919,469,l),
(933,449,o),
(943,423,o),
(952,396,cs),
(957,380,o),
(961,360,o),
(961,340,cs),
(961,305,o),
(952,267,o),
(932,226,cs),
(907,175,o),
(868,133,o),
(814,100,cs),
(718,43,o),
(596,9,o),
(452,1,cs),
(443,0,o),
(434,0,o),
(424,0,cs),
(410,0,o),
(409,0,o),
(396,0,cs)
);
}
);
width = 1038;
}
);
},
{
glyphname = "behDotless-ar.fina";
layers = (
{
anchors = (
{
name = bottom;
pos = (242,-193);
},
{
name = bottom.mark;
pos = (255,-185);
},
{
name = entry;
pos = (492,26);
},
{
name = top;
pos = (352,413);
},
{
name = top.mark;
pos = (365,453);
}
);
layerId = "1467EB51-6BD4-4CFC-AEAA-3E4EB1A95CFA";
shapes = (
{
closed = 1;
nodes = (
(432,20,o),
(329,0,o),
(245,0,cs),
(204,0,o),
(0,-2,o),
(0,159,cs),
(0,186,o),
(6,215,o),
(19,245,cs),
(42,296,o),
(66,340,o),
(90,379,cs),
(101,396,o),
(119,389,o),
(110,367,cs),
(86,322,o),
(73,284,o),
(71,243,cs),
(68,172,o),
(114,127,o),
(288,127,cs),
(324,127,o),
(468,134,o),
(537,170,cs),
(556,180,o),
(572,200,o),
(581,220,cs),
(587,234,o),
(585,207,o),
(585,206,cs),
(579,184,o),
(566,153,o),
(551,118,cs),
(536,83,o),
(516,52,o),
(491,26,c),
(490,26,ls),
(488,26,o),
(487,27,o),
(487,31,cs),
(487,34,o),
(488,38,o),
(489,43,c)
);
}
);
width = 490;
},
{
anchors = (
{
name = bottom;
pos = (242,-193);
},
{
name = bottom.mark;
pos = (255,-185);
},
{
name = entry;
pos = (492,26);
},
{
name = top;
pos = (352,413);
},
{
name = top.mark;
pos = (365,453);
}
);
layerId = "EF321139-F770-433D-B2B6-C3EFA1B16465";
shapes = (
{
closed = 1;
nodes = (
(402,14,o),
(325,0,o),
(242,0,cs),
(237,0,o),
(236,0,o),
(231,0,cs),
(177,0,o),
(128,11,o),
(87,26,c),
(29,49,o),
(-8,92,o),
(-8,166,cs),
(-8,222,o),
(26,282,o),
(47,323,cs),
(58,345,o),
(70,366,o),
(82,385,c),
(89,394,o),
(96,398,o),
(104,398,cs),
(118,398,o),
(126,388,o),
(126,377,cs),
(126,372,o),
(125,367,o),
(122,361,c),
(99,318,o),
(87,282,o),
(85,253,c),
(85,247,ls),
(85,223,o),
(92,203,o),
(103,189,c),
(135,153,o),
(210,147,o),
(278,147,cs),
(307,147,l),
(350,149,o),
(393,154,o),
(435,162,c),
(476,170,o),
(503,179,o),
(518,187,c),
(534,195,o),
(546,209,o),
(554,228,c),
(559,235,o),
(564,239,o),
(569,239,cs),
(578,239,o),
(582,233,o),
(582,222,cs),
(582,200,o),
(574,187,o),
(567,168,cs),
(555,136,o),
(540,99,o),
(522,71,cs),
(512,56,o),
(500,41,o),
(487,28,cs),
(486,27,o),
(481,25,o),
(479,25,cs),
(471,25,o),
(466,29,o),
(464,36,c)
);
}
);
width = 490;
},
{
anchors = (
{
name = bottom;
pos = (242,-193);
},
{
name = bottom.mark;
pos = (255,-185);
},
{
name = entry;
pos = (492,26);
},
{
name = top;
pos = (352,413);
},
{
name = top.mark;
pos = (365,453);
}
);
associatedMasterId = "1467EB51-6BD4-4CFC-AEAA-3E4EB1A95CFA";
attr = {
color = 1;
};
layerId = "52CEBF1C-F583-4C3A-A940-9B51811157F7";
name = "6 Dec 21, 21:28";
shapes = (
{
attr = {
gradient = {
colors = (
(
(210,46,31,128),
0
),
(
(210,46,31,255),
1
)
);
end = (0.9345,0.3113);
start = (0.0506,0.8027);
};
};
closed = 1;
nodes = (
(432,20,o),
(329,0,o),
(245,0,cs),
(204,0,o),
(0,-2,o),
(0,159,cs),
(0,186,o),
(6,215,o),
(19,245,cs),
(42,296,o),
(66,340,o),
(90,379,cs),
(101,396,o),
(119,389,o),
(110,367,cs),
(86,322,o),
(73,284,o),
(71,243,cs),
(68,172,o),
(114,127,o),
(288,127,cs),
(324,127,o),
(468,134,o),
(537,170,cs),
(556,180,o),
(570,197,o),
(579,217,cs),
(585,231,o),
(588,222,o),
(583,203,cs),
(576,177,o),
(547,98,o),
(515,54,c)
);
}
);
width = 490;
},
{
anchors = (
{
name = bottom;
pos = (242,-193);
},
{
name = bottom.mark;
pos = (255,-185);
},
{
name = entry;
pos = (492,26);
},
{
name = top;
pos = (352,413);
},
{
name = top.mark;
pos = (365,453);
}
);
associatedMasterId = "EF321139-F770-433D-B2B6-C3EFA1B16465";
attr = {
color = 1;
};
layerId = "29C85219-390B-459D-A0B2-449FF691AFB4";
name = "6 Dec 21, 21:28";
shapes = (
{
attr = {
gradient = {
colors = (
(
(210,46,31,128),
0
),
(
(210,46,31,255),
1
)
);
end = (0.9345,0.3113);
start = (0.0506,0.8027);
};
};
closed = 1;
nodes = (
(402,14,o),
(325,0,o),
(242,0,cs),
(237,0,o),
(236,0,o),
(231,0,cs),
(177,0,o),
(128,11,o),
(87,26,c),
(29,49,o),
(-8,92,o),
(-8,166,cs),
(-8,222,o),
(26,282,o),
(47,323,cs),
(58,345,o),
(70,366,o),
(82,385,c),
(89,394,o),
(96,398,o),
(104,398,cs),
(118,398,o),
(126,388,o),
(126,377,cs),
(126,372,o),
(125,367,o),
(122,361,c),
(99,318,o),
(87,282,o),
(85,253,c),
(85,247,ls),
(85,223,o),
(92,203,o),
(103,189,c),
(135,153,o),
(210,147,o),
(278,147,cs),
(307,147,l),
(350,149,o),
(393,154,o),
(435,162,c),
(476,170,o),
(503,179,o),
(518,187,c),
(534,195,o),
(546,209,o),
(554,228,c),
(559,235,o),
(564,239,o),
(569,239,cs),
(578,239,o),
(582,233,o),
(582,222,cs),
(582,200,o),
(574,187,o),
(567,168,cs),
(555,136,o),
(540,99,o),
(522,71,cs),
(512,56,o),
(500,41,o),
(487,28,cs),
(486,27,o),
(481,25,o),
(479,25,cs),
(471,25,o),
(466,29,o),
(464,36,c)
);
}
);
width = 490;
}
);
},
{
glyphname = "behDotless-ar.fina.jalt";
layers = (
{
anchors = (
{
name = bottom;
pos = (453,-176);
},
{
name = bottom.mark;
pos = (466,-180);
},
{
name = entry;
pos = (851,83);
},
{
name = top;
pos = (558,360);
},
{
name = top.mark;
pos = (536,804);
}
);
layerId = "1467EB51-6BD4-4CFC-AEAA-3E4EB1A95CFA";
shapes = (
{
closed = 1;
nodes = (
(178,21,o),
(102,51,o),
(59,98,cs),
(-33,198,o),
(-7,321,o),
(72,422,cs),
(152,524,o),
(266,581,o),
(409,619,cs),
(473,636,o),
(545,645,o),
(624,648,c),
(571,536,l),
(489,533,o),
(403,518,o),
(313,490,cs),
(223,462,o),
(148,420,o),
(87,362,cs),
(69,345,o),
(58,326,o),
(56,306,cs),
(54,286,o),
(69,262,o),
(101,235,cs),
(185,162,o),
(305,126,o),
(463,128,c),
(526,133,o),
(601,143,o),
(685,158,cs),
(769,173,o),
(840,196,o),
(896,227,cs),
(916,238,o),
(929,253,o),
(938,275,c),
(942,280,o),
(944,279,o),
(944,273,cs),
(944,267,o),
(943,264,o),
(942,262,cs),
(935,239,o),
(924,209,o),
(909,174,cs),
(894,139,o),
(875,109,o),
(850,82,c),
(844,81,o),
(843,87,o),
(848,99,c),
(759,63,o),
(668,36,o),
(573,17,cs),
(478,-2,o),
(383,-5,o),
(287,7,cs)
);
}
);
width = 849;
},
{
anchors = (
{
name = bottom;
pos = (453,-176);
},
{
name = bottom.mark;
pos = (466,-180);
},
{
name = entry;
pos = (851,83);
},
{
name = top;
pos = (558,360);
},
{
name = top.mark;
pos = (536,804);
}
);
layerId = "EF321139-F770-433D-B2B6-C3EFA1B16465";
shapes = (
{
closed = 1;
nodes = (
(357,0,o),
(320,3,o),
(284,7,cs),
(175,21,o),
(99,52,o),
(56,99,cs),
(16,142,o),
(-4,190,o),
(-4,242,cs),
(-4,246,o),
(-4,246,o),
(-4,250,cs),
(-4,253,o),
(-3,255,o),
(-3,258,cs),
(7,390,o),
(124,505,o),
(227,556,cs),
(333,610,o),
(456,644,o),
(610,650,cs),
(618,651,o),
(627,643,o),
(622,633,c),
(571,524,ls),
(570,521,o),
(565,518,o),
(561,518,cs),
(483,515,o),
(400,500,o),
(313,474,cs),
(228,448,o),
(157,407,o),
(100,353,cs),
(85,338,o),
(76,323,o),
(74,306,cs),
(73,291,o),
(86,272,o),
(113,248,cs),
(191,180,o),
(306,146,o),
(455,147,c),
(607,161,o),
(762,182,o),
(868,241,cs),
(885,250,o),
(897,264,o),
(904,283,c),
(919,304,o),
(932,311,o),
(932,276,cs),
(932,268,o),
(931,262,o),
(929,259,c),
(906,191,o),
(878,128,o),
(834,80,c),
(820,79,o),
(813,81,o),
(812,88,c),
(691,42,o),
(559,0,o),
(397,0,cs)
);
}
);
width = 849;
}
);
},
{
glyphname = "behDotless-ar.medi";
layers = (
{
anchors = (
{
name = bottom;
pos = (149,-171);
},
{
name = bottom.mark;
pos = (145,-193);
},
{
name = entry;
pos = (198,22);
},
{
name = exit;
},
{
name = top;
pos = (215,374);
},
{
name = top.mark;
pos = (250,404);
}
);
layerId = "1467EB51-6BD4-4CFC-AEAA-3E4EB1A95CFA";
shapes = (
{
closed = 1;
nodes = (
(200,23,o),
(201,34,o),
(203,41,c),
(157,22,o),
(58,6,o),
(0,0,c),
(21,127,l),
(46,129,o),
(193,143,o),
(246,166,cs),
(271,177,o),
(288,201,o),
(295,218,cs),
(300,229,o),
(301,208,o),
(299,205,cs),
(284,158,o),
(256,77,o),
(206,24,c),
(205,24,l)
);
}
);
width = 206;
},
{
anchors = (
{
name = bottom;
pos = (149,-171);
},
{
name = bottom.mark;
pos = (145,-193);
},
{
name = entry;
pos = (198,22);
},
{
name = exit;
},
{
name = top;
pos = (215,374);
},
{
name = top.mark;
pos = (250,404);
}
);
layerId = "EF321139-F770-433D-B2B6-C3EFA1B16465";
shapes = (
{
closed = 1;
nodes = (
(193,23,o),
(188,28,o),
(186,35,c),
(135,17,o),
(65,6,o),
(3,0,cs),
(-5,-1,o),
(-10,6,o),
(-9,14,cs),
(11,136,ls),
(12,141,o),
(17,145,o),
(22,146,cs),
(81,151,o),
(129,157,o),
(165,164,cs),
(201,171,o),
(227,179,o),
(241,186,c),
(258,196,o),
(269,210,o),
(277,228,c),
(280,233,o),
(285,237,o),
(292,237,cs),
(301,237,o),
(305,231,o),
(305,220,cs),
(305,198,o),
(297,186,o),
(290,167,cs),
(270,114,o),
(246,66,o),
(210,27,cs),
(209,26,o),
(204,23,o),
(202,23,cs),
(201,23,ls)
);
}
);
width = 206;
}
);
},
{
glyphname = "behDotless-ar.medi.ain";
layers = (
{
anchors = (
{
name = bottom;
pos = (224,-136);
},
{
name = bottom.mark;
pos = (321,-180);
},
{
name = entry;
pos = (352,26);
},
{
name = exit;
},
{
name = top;
pos = (312,400);
},
{
name = top.mark;
pos = (400,409);
}
);
layerId = "1467EB51-6BD4-4CFC-AEAA-3E4EB1A95CFA";
shapes = (
{
closed = 1;
nodes = (
(342,24,o),
(341,30,o),
(346,42,c),
(312,28,o),
(264,17,o),
(202,9,cs),
(140,1,o),
(92,-2,o),
(56,1,cs),
(28,4,o),
(1,19,o),
(0,48,c),
(13,98,o),
(26,140,o),
(39,175,c),
(50,139,o),
(98,129,o),
(146,128,cs),
(171,127,o),
(213,132,o),
(271,139,cs),
(329,146,o),
(370,157,o),
(394,170,cs),
(413,180,o),
(427,197,o),
(437,219,c),
(440,224,o),
(441,223,o),
(441,217,cs),
(441,211,o),
(441,207,o),
(440,205,cs),
(433,182,o),
(422,152,o),
(407,117,cs),
(392,82,o),
(373,51,o),
(348,25,c)
);
}
);
width = 347;
},
{
anchors = (
{
name = bottom;
pos = (224,-136);
},
{
name = bottom.mark;
pos = (321,-180);
},
{
name = entry;
pos = (352,26);
},
{
name = exit;
},
{
name = top;
pos = (312,400);
},
{
name = top.mark;
pos = (400,409);
}
);
layerId = "EF321139-F770-433D-B2B6-C3EFA1B16465";
shapes = (
{
closed = 1;
nodes = (
(260,14,o),
(173,0,o),
(91,0,cs),
(40,0,o),
(-7,10,o),
(-8,59,c),
(4,104,o),
(16,147,o),
(31,186,cs),
(33,190,o),
(37,193,o),
(42,193,cs),
(48,193,o),
(51,190,o),
(53,185,cs),
(62,154,o),
(107,148,o),
(146,147,cs),
(169,146,o),
(208,151,o),
(264,158,c),
(333,166,o),
(393,176,o),
(415,228,c),
(431,251,o),
(442,260,o),
(442,221,cs),
(442,215,o),
(441,211,o),
(440,207,cs),
(428,170,o),
(405,106,o),
(382,71,cs),
(372,56,o),
(360,41,o),
(348,28,c),
(341,24,l),
(329,23,o),
(322,23,o),
(322,35,c)
);
}
);
width = 347;
}
);
},
{
glyphname = "behDotless-ar.medi.dal";
layers = (
{
anchors = (
{
name = bottom;
pos = (193,-171);
},
{
name = bottom.mark;
pos = (202,-171);
},
{
name = entry;
pos = (233,18);
},
{
name = exit;
},
{
name = top;
pos = (242,387);
},
{
name = top.mark;
pos = (281,435);
}
);
layerId = "1467EB51-6BD4-4CFC-AEAA-3E4EB1A95CFA";
shapes = (
{
closed = 1;
nodes = (
(196,23,o),
(82,-14,o),
(40,6,cs),
(-27,39,o),
(1,150,o),
(47,203,cs),
(53,210,o),
(52,209,o),
(52,202,cs),
(52,172,o),
(60,139,o),
(86,132,cs),
(135,120,o),
(246,146,o),
(275,162,cs),
(294,173,o),
(309,190,o),
(317,211,cs),
(324,221,o),
(323,200,o),
(321,197,cs),
(308,154,o),
(274,86,o),
(242,26,cs),
(235,14,o),
(219,12,o),
(226,35,c)
);
}
);
width = 228;
},
{
anchors = (
{
name = bottom;
pos = (193,-171);
},
{
name = bottom.mark;
pos = (202,-171);
},
{
name = entry;
pos = (226,18);
},
{
name = exit;
},
{
name = top;
pos = (242,387);
},
{
name = top.mark;
pos = (281,435);
}
);
layerId = "EF321139-F770-433D-B2B6-C3EFA1B16465";
shapes = (
{
closed = 1;
nodes = (
(324,231,o),
(326,225,o),
(326,213,cs),
(326,209,o),
(325,207,o),
(325,204,cs),
(325,201,o),
(325,200,o),
(324,199,cs),
(304,140,o),
(274,84,o),
(247,31,cs),
(242,22,o),
(233,17,o),
(222,17,c),
(215,18,o),
(210,21,o),
(208,28,c),
(170,16,o),
(124,-1,o),
(76,-1,cs),
(21,-1,o),
(-10,34,o),
(-10,83,cs),
(-10,116,o),
(0,144,o),
(10,168,cs),
(18,186,o),
(27,202,o),
(39,216,c),
(44,220,o),
(47,222,o),
(51,222,cs),
(60,222,o),
(64,217,o),
(64,207,cs),
(64,204,ls),
(64,191,o),
(67,179,o),
(71,168,c),
(77,149,o),
(95,147,o),
(119,147,cs),
(157,147,o),
(203,158,o),
(232,167,cs),
(266,177,o),
(286,189,o),
(298,220,c),
(301,225,o),
(307,231,o),
(312,231,cs)
);
}
);
width = 228;
}
);
},
{
glyphname = "behDotless-ar.medi.feh";
layers = (
{
anchors = (
{
name = bottom;
pos = (338,-167);
},
{
name = bottom.mark;
pos = (374,-171);
},
{
name = entry;
pos = (400,35);
},
{
name = exit;
},
{
name = top;
pos = (422,461);
},
{
name = top.mark;
pos = (453,492);
}
);
layerId = "1467EB51-6BD4-4CFC-AEAA-3E4EB1A95CFA";
shapes = (
{
closed = 1;
nodes = (
(28,4,o),
(1,19,o),
(0,48,c),
(13,98,o),
(26,140,o),
(39,175,c),
(52,132,o),
(119,126,o),
(179,129,c),
(207,130,o),
(252,135,o),
(316,144,cs),
(380,153,o),
(421,163,o),
(442,175,c),
(462,186,o),
(476,202,o),
(485,224,c),
(489,229,o),
(490,228,o),
(490,222,cs),
(490,216,o),
(490,212,o),
(489,210,cs),
(482,187,o),
(471,158,o),
(456,123,cs),
(441,88,o),
(421,57,o),
(396,31,c),
(391,30,o),
(390,36,o),
(394,48,c),
(360,34,o),
(306,22,o),
(230,11,cs),
(154,0,o),
(96,-3,o),
(56,1,cs)
);
}
);
width = 395;
},
{
anchors = (
{
name = bottom;
pos = (338,-167);
},
{
name = bottom.mark;
pos = (374,-171);
},
{
name = entry;
pos = (400,35);
},
{
name = exit;
},
{
name = top;
pos = (422,461);
},
{
name = top.mark;
pos = (453,492);
}
);
layerId = "EF321139-F770-433D-B2B6-C3EFA1B16465";
shapes = (
{
closed = 1;
nodes = (
(42,3,o),
(28,8,o),
(15,16,cs),
(0,25,o),
(-8,39,o),
(-8,59,c),
(4,104,o),
(16,147,o),
(31,186,cs),
(33,190,o),
(37,193,o),
(42,193,cs),
(48,193,o),
(51,190,o),
(53,185,cs),
(63,152,o),
(113,147,o),
(155,147,cs),
(160,147,o),
(161,147,o),
(166,147,cs),
(206,147,o),
(330,165,o),
(382,177,cs),
(424,187,o),
(448,198,o),
(462,233,c),
(476,254,o),
(490,262,o),
(490,227,cs),
(490,219,o),
(489,213,o),
(487,210,c),
(478,184,o),
(466,152,o),
(455,125,cs),
(440,90,o),
(420,59,o),
(393,30,c),
(380,29,o),
(373,33,o),
(371,41,c),
(312,22,o),
(228,9,o),
(154,3,cs),
(132,1,o),
(111,0,o),
(93,0,cs),
(79,0,o),
(68,0,o),
(58,1,c),
(57,1,l)
);
}
);
width = 395;
}
);
},
{
glyphname = "behDotless-ar.medi.hah";
layers = (
{
anchors = (
{
name = bottom;
pos = (461,0);
},
{
name = bottom.mark;
pos = (400,18);
},
{
name = entry;
pos = (356,184);
},
{
name = exit;
pos = (-31,7);
},
{
name = top;
pos = (229,488);
},
{
name = top.mark;
pos = (312,580);
}
);
layerId = "1467EB51-6BD4-4CFC-AEAA-3E4EB1A95CFA";
shapes = (
{
closed = 1;
nodes = (
(9,-1,o),
(0,-1,o),
(0,5,cs),
(3,43,o),
(17,106,o),
(30,138,c),
(51,164,o),
(74,192,o),
(100,218,c),
(143,263,o),
(201,312,o),
(260,340,c),
(291,354,o),
(319,361,o),
(345,361,cs),
(372,361,o),
(381,333,o),
(393,318,c),
(395,317,o),
(396,317,o),
(398,317,cs),
(431,322,l),
(369,188,l),
(361,186,o),
(354,183,o),
(350,183,c),
(333,182,o),
(322,190,o),
(317,206,c),
(308,224,o),
(287,245,o),
(257,233,cs),
(216,218,o),
(178,196,o),
(143,167,cs),
(106,137,o),
(81,110,o),
(67,89,cs),
(53,68,o),
(35,38,o),
(12,2,c)
);
}
);
width = 452;
},
{
anchors = (
{
name = bottom;
pos = (461,0);
},
{
name = bottom.mark;
pos = (400,18);
},
{
name = entry;
pos = (356,189);
},
{
name = exit;
pos = (-32,0);
},
{
name = top;
pos = (229,488);
},
{
name = top.mark;
pos = (312,580);
}
);
layerId = "EF321139-F770-433D-B2B6-C3EFA1B16465";
shapes = (
{
closed = 1;
nodes = (
(16,-5,o),
(-8,1,o),
(-8,18,cs),
(-5,63,o),
(7,112,o),
(23,152,c),
(44,178,o),
(67,206,o),
(92,231,c),
(135,276,o),
(192,323,o),
(250,351,c),
(281,365,o),
(310,372,o),
(337,372,cs),
(354,372,o),
(367,366,o),
(375,352,cs),
(380,343,o),
(385,336,o),
(390,330,c),
(419,334,ls),
(428,335,o),
(436,328,o),
(431,318,cs),
(371,189,ls),
(370,186,o),
(347,177,o),
(344,177,cs),
(321,176,o),
(306,185,o),
(299,205,c),
(295,214,o),
(284,229,o),
(269,229,cs),
(264,229,o),
(260,228,o),
(256,226,cs),
(202,206,o),
(144,164,o),
(105,125,cs),
(93,113,o),
(85,101,o),
(78,91,c),
(78,92,l),
(25,8,l)
);
}
);
width = 452;
}
);
},
{
glyphname = "behDotless-ar.medi.heh";
layers = (
{
anchors = (
{
name = bottom;
pos = (413,-79);
},
{
name = bottom.mark;
pos = (466,-83);
},
{
name = entry;
pos = (475,132);
},
{
name = exit;
},
{
name = top;
pos = (404,514);
},
{
name = top.mark;
pos = (417,541);
}
);
layerId = "1467EB51-6BD4-4CFC-AEAA-3E4EB1A95CFA";
shapes = (
{
closed = 1;
nodes = (
(186,20,o),
(134,-44,o),
(111,-98,cs),
(96,-134,o),
(73,-190,o),
(44,-248,cs),
(25,-288,o),
(12,-299,o),
(6,-282,cs),
(0,-265,o),
(-1,-235,o),
(2,-194,cs),
(5,-156,l),
(5,-155,l),
(58,-90,l),
(58,-91,l),
(54,-121,l),
(62,-105,l),
(63,-103,l),
(102,-25,o),
(144,55,o),
(196,122,cs),
(211,141,o),
(231,165,o),
(256,194,cs),
(281,223,o),
(307,249,o),
(336,270,cs),
(365,291,o),
(395,303,o),
(425,307,cs),
(455,311,o),
(482,297,o),
(507,266,c),
(507,266,o),
(507,266,o),
(512,264,c),
(545,269,l),
(483,135,l),
(477,133,o),
(470,131,o),
(464,130,c),
(446,129,o),
(436,137,o),
(432,153,c),
(420,177,o),
(402,186,o),
(379,180,cs),
(325,165,o),
(273,115,o),
(237,76,cs)
);
}
);
width = 572;
},
{
anchors = (
{
name = bottom;
pos = (413,-79);
},
{
name = bottom.mark;
pos = (466,-83);
},
{
name = entry;
pos = (475,132);
},
{
name = exit;
},
{
name = top;
pos = (404,514);
},
{
name = top.mark;
pos = (417,541);
}
);
layerId = "EF321139-F770-433D-B2B6-C3EFA1B16465";
shapes = (
{
closed = 1;
nodes = (
(196,27,o),
(149,-25,o),
(122,-88,cs),
(103,-133,o),
(84,-177,o),
(61,-225,cs),
(60,-228,o),
(60,-230,o),
(58,-232,cs),
(43,-264,o),
(17,-308,o),
(0,-265,cs),
(-5,-251,o),
(-7,-232,o),
(-7,-212,cs),
(-7,-201,o),
(-6,-188,o),
(-5,-175,cs),
(-2,-133,l),
(52,-69,ls),
(55,-65,o),
(58,-63,o),
(63,-64,c),
(99,7,o),
(137,75,o),
(185,136,cs),
(214,172,o),
(245,215,o),
(281,247,cs),
(295,260,o),
(309,272,o),
(323,282,c),
(348,299,o),
(380,315,o),
(414,320,cs),
(447,324,o),
(475,310,o),
(501,279,c),
(530,284,ls),
(539,285,o),
(547,277,o),
(542,267,cs),
(482,137,ls),
(481,135,o),
(478,132,o),
(475,131,cs),
(463,127,l),
(437,122,o),
(418,133,o),
(411,154,c),
(405,168,o),
(395,175,o),
(384,175,cs),
(367,175,o),
(356,168,o),
(342,161,cs),
(304,141,o),
(270,108,o),
(242,77,cs)
);
}
);
width = 572;
}
);
},
{
glyphname = "behDotless-ar.medi.high";
layers = (
{
anchors = (
{
name = bottom;
pos = (167,-123);
},
{
name = bottom.mark;
pos = (229,-158);
},
{
name = entry;
pos = (229,171);
},
{
name = exit;
},
{
name = top;
pos = (132,492);
},
{
name = top.mark;
pos = (224,628);
}
);
layerId = "1467EB51-6BD4-4CFC-AEAA-3E4EB1A95CFA";
shapes = (
{
closed = 1;
nodes = (
(223,254,o),
(216,283,o),
(198,352,c),
(274,465,ls),
(276,468,o),
(283,443,o),
(294,390,cs),
(305,337,o),
(303,280,o),
(286,218,c),
(261,116,o),
(188,49,o),
(82,21,cs),
(55,14,o),
(28,7,o),
(0,0,c),
(58,133,l),
(118,144,o),
(173,158,o),
(223,179,c)
);
}
);
width = 326;
},
{
anchors = (
{
name = bottom;
pos = (167,-123);
},
{
name = bottom.mark;
pos = (229,-158);
},
{
name = entry;
pos = (229,171);
},
{
name = exit;
},
{
name = top;
pos = (132,492);
},
{
name = top.mark;
pos = (224,628);
}
);
layerId = "EF321139-F770-433D-B2B6-C3EFA1B16465";
shapes = (
{
closed = 1;
nodes = (
(264,476,o),
(270,475,o),
(277,462,cs),
(289,441,o),
(306,370,o),
(306,326,cs),
(306,286,o),
(299,253,o),
(290,219,c),
(270,141,o),
(225,85,o),
(160,50,c),
(116,28,o),
(58,15,o),
(6,0,cs),
(-4,-3,o),
(-13,7,o),
(-8,17,cs),
(47,146,ls),
(48,148,o),
(53,151,o),
(56,152,cs),
(112,161,o),
(159,173,o),
(206,192,c),
(206,252,o),
(195,299,o),
(182,349,cs),
(181,351,o),
(183,357,o),
(184,358,cs),
(258,468,ls)
);
}
);
width = 326;
}
);
},
{
glyphname = "behDotless-ar.medi.high2";
layers = (
{
anchors = (
{
name = bottom;
pos = (189,-158);
},
{
name = bottom.mark;
pos = (272,-171);
},
{
name = entry;
pos = (237,0);
},
{
name = exit;
},
{
name = top;
pos = (244,586);
},
{
name = top.mark;
pos = (250,545);
}
);
layerId = "1467EB51-6BD4-4CFC-AEAA-3E4EB1A95CFA";
shapes = (
{
closed = 1;
nodes = (
(289,411,l),
(311,117,l),
(237,0,l),
(229,107,l),
(209,85,o),
(185,66,o),
(156,50,c),
(0,0,l),
(65,137,l),
(121,147,o),
(177,159,o),
(224,179,c),
(215,293,l)
);
}
);
width = 236;
},
{
anchors = (
{
name = bottom;
pos = (189,-158);
},
{
name = bottom.mark;
pos = (272,-171);
},
{
name = entry;
pos = (237,0);
},
{
name = exit;
},
{
name = top;
pos = (244,586);
},
{
name = top.mark;
pos = (250,545);
}
);
layerId = "EF321139-F770-433D-B2B6-C3EFA1B16465";
shapes = (
{
closed = 1;
nodes = (
(272,415,ls),
(278,424,o),
(293,422,o),
(294,410,cs),
(315,122,l),
(241,6,ls),
(235,-3,o),
(221,-1,o),
(220,11,cs),
(214,88,l),
(197,72,o),
(179,61,o),
(158,49,c),
(6,0,l),
(-4,-4,o),
(-13,7,o),
(-8,17,cs),
(55,149,ls),
(56,151,o),
(61,155,o),
(64,156,cs),
(113,165,o),
(165,175,o),
(207,192,c),
(198,298,l)
);
}
);
width = 236;
}
);
},
{
glyphname = "behDotless-ar.medi.meem";
layers = (
{
anchors = (
{
name = bottom;
pos = (347,-88);
},
{
name = bottom.mark;
pos = (281,-114);
},
{
name = entry;
pos = (286,92);
},
{
name = exit;
pos = (-24,-49);
},
{
name = top;
pos = (224,461);
},
{
name = top.mark;
pos = (246,466);
}
);
layerId = "1467EB51-6BD4-4CFC-AEAA-3E4EB1A95CFA";
shapes = (
{
closed = 1;
nodes = (
(118,115,o),
(69,55,o),
(30,0,c),
(0,8,l),
(0,8,l),
(34,80,o),
(90,167,o),
(145,220,cs),
(164,238,o),
(183,251,o),
(203,260,cs),
(223,269,o),
(242,272,o),
(262,268,c),
(283,263,o),
(304,248,o),
(322,225,c),
(328,224,l),
(361,229,l),
(298,94,l),
(292,92,o),
(285,91,o),
(279,90,c),
(261,89,o),
(251,96,o),
(247,112,c),
(233,141,o),
(212,151,o),
(185,141,cs)
);
}
);
width = 287;
},
{
anchors = (
{
name = bottom;
pos = (347,-88);
},
{
name = bottom.mark;
pos = (281,-114);
},
{
name = entry;
pos = (286,92);
},
{
name = exit;
pos = (-24,-49);
},
{
name = top;
pos = (224,461);
},
{
name = top.mark;
pos = (246,466);
}
);
layerId = "EF321139-F770-433D-B2B6-C3EFA1B16465";
shapes = (
{
closed = 1;
nodes = (
(277,284,o),
(302,263,o),
(321,240,c),
(350,245,ls),
(359,246,o),
(367,238,o),
(363,228,cs),
(302,98,ls),
(301,96,o),
(297,92,o),
(294,91,cs),
(282,88,l),
(276,87,l),
(251,86,o),
(236,96,o),
(230,115,c),
(222,131,o),
(213,140,o),
(201,140,cs),
(195,140,o),
(191,138,o),
(186,136,c),
(186,137,l),
(157,127,o),
(131,108,o),
(107,83,c),
(81,57,o),
(59,31,o),
(41,5,cs),
(39,2,o),
(34,-1,o),
(29,0,cs),
(0,8,ls),
(-19,13,o),
(-1,40,o),
(6,52,cs),
(40,115,o),
(85,185,o),
(135,232,cs),
(161,257,o),
(195,284,o),
(239,284,cs)
);
}
);
width = 287;
}
);
},
{
glyphname = "behDotless-ar.medi.noon";
layers = (
{
anchors = (
{
name = bottom;
pos = (88,-101);
},
{
name = bottom.mark;
pos = (136,-176);
},
{
name = entry;
pos = (242,0);
},
{
name = exit;
pos = (0,44);
},
{
name = top;
pos = (158,457);
},
{
name = top.mark;
pos = (224,497);
}
);
layerId = "1467EB51-6BD4-4CFC-AEAA-3E4EB1A95CFA";
shapes = (
{
closed = 1;
nodes = (
(302,276,o),
(309,202,o),
(315,128,c),
(242,0,l),
(229,195,l),
(192,152,o),
(144,124,o),
(82,108,cs),
(55,101,o),
(28,94,o),
(0,87,c),
(18,220,l),
(59,214,o),
(110,224,o),
(172,251,cs),
(236,279,o),
(275,311,o),
(289,345,cs),
(292,352,o),
(295,355,o),
(299,357,cs),
(302,358,o),
(304,357,o),
(304,354,cs)
);
}
);
width = 241;
},
{
anchors = (
{
name = bottom;
pos = (88,-101);
},
{
name = bottom.mark;
pos = (136,-176);
},
{
name = entry;
pos = (234,0);
},
{
name = exit;
pos = (0,44);
},
{
name = top;
pos = (158,457);
},
{
name = top.mark;
pos = (224,497);
}
);
layerId = "EF321139-F770-433D-B2B6-C3EFA1B16465";
shapes = (
{
closed = 1;
nodes = (
(308,345,o),
(308,338,o),
(308,329,cs),
(308,273,o),
(311,227,o),
(315,174,cs),
(318,142,l),
(247,6,ls),
(241,-4,o),
(226,-1,o),
(225,11,c),
(213,173,l),
(196,157,o),
(180,146,o),
(160,134,c),
(121,114,o),
(70,100,o),
(23,89,cs),
(5,84,l),
(-4,81,o),
(-10,88,o),
(-9,97,cs),
(8,226,l),
(11,241,o),
(27,234,o),
(43,234,cs),
(76,234,o),
(116,245,o),
(164,266,cs),
(220,290,o),
(256,318,o),
(271,350,c),
(271,349,l),
(274,357,o),
(279,364,o),
(286,368,c),
(301,375,o),
(308,370,o),
(308,354,cs)
);
}
);
width = 241;
}
);
},
{
glyphname = "behDotless-ar.medi.ragaa";
layers = (
{
anchors = (
{
name = bottom;
pos = (206,-255);
},
{
name = bottom.mark;
pos = (206,-255);
},
{
name = entry;
pos = (285,91);
},
{
name = exit;
},
{
name = top;
pos = (247,494);
},
{
name = top.mark;
pos = (247,537);
}
);
layerId = "1467EB51-6BD4-4CFC-AEAA-3E4EB1A95CFA";
shapes = (
{
closed = 1;
nodes = (
(231,132,o),
(209,153,o),
(179,141,cs),
(153,131,o),
(130,112,o),
(107,82,cs),
(84,52,o),
(64,25,o),
(47,1,c),
(47,0,l),
(0,32,l),
(5,46,o),
(19,71,o),
(42,105,cs),
(65,139,o),
(83,163,o),
(94,176,cs),
(116,201,o),
(141,223,o),
(169,241,cs),
(197,259,o),
(230,269,o),
(267,269,cs),
(294,269,o),
(303,242,o),
(315,227,c),
(316,227,o),
(318,226,o),
(321,225,c),
(354,230,l),
(292,96,l),
(282,93,o),
(274,92,o),
(272,91,c),
(254,90,o),
(244,98,o),
(240,114,c)
);
}
);
width = 259;
},
{
anchors = (
{
name = bottom;
pos = (206,-255);
},
{
name = bottom.mark;
pos = (206,-255);
},
{
name = entry;
pos = (285,91);
},
{
name = exit;
},
{
name = top;
pos = (247,494);
},
{
name = top.mark;
pos = (247,537);
}
);
layerId = "EF321139-F770-433D-B2B6-C3EFA1B16465";
shapes = (
{
closed = 1;
nodes = (
(243,87,o),
(228,97,o),
(223,118,c),
(219,125,o),
(207,139,o),
(193,139,cs),
(188,139,o),
(185,139,o),
(181,137,cs),
(159,128,o),
(137,110,o),
(116,84,c),
(116,84,l),
(96,57,o),
(78,33,o),
(59,6,cs),
(56,1,o),
(48,-2,o),
(42,2,cs),
(-4,33,ls),
(-7,35,o),
(-12,42,o),
(-9,48,cs),
(-5,61,o),
(9,86,o),
(33,121,cs),
(70,177,o),
(105,222,o),
(160,256,cs),
(187,274,o),
(219,284,o),
(261,285,cs),
(278,285,o),
(291,278,o),
(300,264,c),
(304,256,o),
(308,250,o),
(314,243,c),
(342,247,ls),
(352,248,o),
(362,240,o),
(356,229,cs),
(296,100,ls),
(295,98,o),
(290,94,o),
(287,93,cs),
(267,88,l)
);
}
);
width = 259;
}
);
},
{
glyphname = "behDotless-ar.medi.reh";
layers = (
{
anchors = (
{
name = bottom;
pos = (198,-158);
},
{
name = bottom.mark;
pos = (242,-167);
},
{
name = entry;
pos = (264,22);
},
{
name = exit;
},
{
name = top;
pos = (198,453);
},
{
name = top.mark;
pos = (229,426);
}
);
layerId = "1467EB51-6BD4-4CFC-AEAA-3E4EB1A95CFA";
shapes = (
{
closed = 1;
nodes = (
(280,26,o),
(252,22,o),
(225,18,cs),
(198,14,o),
(186,27,o),
(191,58,c),
(192,69,o),
(178,70,o),
(148,63,cs),
(118,56,o),
(91,49,o),
(70,41,c),
(58,34,o),
(45,24,o),
(34,13,c),
(16,-13,o),
(-6,4,o),
(1,32,c),
(0,34,o),
(10,51,o),
(11,52,cs),
(21,76,o),
(28,103,o),
(40,126,cs),
(51,147,o),
(82,165,o),
(134,181,cs),
(177,194,o),
(260,218,o),
(259,190,c),
(255,159,o),
(279,150,o),
(309,154,c),
(307,31,l)
);
}
);
width = 324;
},
{
anchors = (
{
name = bottom;
pos = (198,-158);
},
{
name = bottom.mark;
pos = (242,-167);
},
{
name = entry;
pos = (264,22);
},
{
name = exit;
},
{
name = top;
pos = (198,453);
},
{
name = top.mark;
pos = (229,426);
}
);
layerId = "EF321139-F770-433D-B2B6-C3EFA1B16465";
shapes = (
{
closed = 1;
nodes = (
(34,3,o),
(21,-9,o),
(3,5,cs),
(-7,13,o),
(-12,23,o),
(-8,42,c),
(-10,51,o),
(-2,58,o),
(1,66,cs),
(11,90,o),
(19,116,o),
(31,139,cs),
(42,162,o),
(74,181,o),
(128,198,cs),
(180,214,o),
(218,222,o),
(242,219,cs),
(258,217,o),
(266,209,o),
(265,194,c),
(262,174,o),
(280,170,o),
(300,173,cs),
(308,174,o),
(313,168,o),
(313,161,cs),
(311,42,ls),
(311,36,o),
(306,31,o),
(301,30,cs),
(222,17,ls),
(186,12,o),
(169,30,o),
(175,67,c),
(175,65,o),
(174,65,o),
(172,65,cs),
(164,65,o),
(156,63,o),
(148,62,c),
(122,55,o),
(97,50,o),
(75,41,c),
(64,34,o),
(54,26,o),
(43,16,c),
(45,18,l)
);
}
);
width = 324;
}
);
},
{
glyphname = "behDotless-ar.medi.sad";
layers = (
{
anchors = (
{
name = bottom;
pos = (435,-149);
},
{
name = bottom.mark;
pos = (448,-167);
},
{
name = entry;
pos = (489,48);
},
{
name = exit;
},
{
name = top;
pos = (532,483);
},
{
name = top.mark;
pos = (541,457);
}
);
layerId = "1467EB51-6BD4-4CFC-AEAA-3E4EB1A95CFA";
shapes = (
{
closed = 1;
nodes = (
(108,333,o),
(111,332,o),
(111,329,cs),
(111,328,o),
(111,327,o),
(110,325,cs),
(83,273,o),
(70,232,o),
(70,203,cs),
(70,191,o),
(73,180,o),
(78,172,cs),
(99,137,o),
(137,129,o),
(194,129,cs),
(314,129,o),
(443,160,o),
(535,192,c),
(555,203,o),
(569,220,o),
(578,241,c),
(580,243,o),
(581,245,o),
(582,245,cs),
(583,245,o),
(583,243,o),
(583,239,cs),
(583,233,o),
(583,230,o),
(582,228,cs),
(575,205,o),
(564,175,o),
(549,140,cs),
(534,105,o),
(514,75,o),
(489,48,c),
(489,48,ls),
(486,48,o),
(485,50,o),
(485,54,cs),
(485,57,o),
(486,60,o),
(487,65,c),
(438,44,o),
(353,28,o),
(287,17,cs),
(230,8,o),
(178,0,o),
(118,0,cs),
(58,0,o),
(14,15,o),
(5,56,cs),
(3,67,o),
(1,78,o),
(1,90,cs),
(1,110,o),
(5,132,o),
(12,154,cs),
(23,190,o),
(37,224,o),
(57,258,cs),
(77,292,o),
(92,315,o),
(102,330,cs),
(103,332,o),
(104,333,o),
(106,333,cs)
);
}
);
width = 488;
},
{
anchors = (
{
name = bottom;
pos = (435,-149);
},
{
name = bottom.mark;
pos = (448,-167);
},
{
name = entry;
pos = (477,46);
},
{
name = exit;
},
{
name = top;
pos = (532,483);
},
{
name = top.mark;
pos = (541,457);
}
);
layerId = "EF321139-F770-433D-B2B6-C3EFA1B16465";
shapes = (
{
closed = 1;
nodes = (
(118,345,o),
(124,340,o),
(124,330,cs),
(124,327,o),
(124,326,o),
(123,324,cs),
(97,273,o),
(84,234,o),
(84,208,cs),
(84,198,o),
(86,191,o),
(90,185,cs),
(105,160,o),
(136,148,o),
(180,148,cs),
(186,148,o),
(186,148,o),
(193,148,cs),
(245,148,o),
(296,156,o),
(344,164,c),
(403,176,o),
(464,190,o),
(517,208,c),
(533,218,o),
(545,232,o),
(553,250,c),
(556,255,o),
(560,260,o),
(567,260,cs),
(576,260,o),
(580,254,o),
(580,243,cs),
(580,221,o),
(572,208,o),
(565,189,cs),
(545,137,o),
(522,87,o),
(486,50,cs),
(485,49,o),
(479,46,o),
(477,46,cs),
(469,46,o),
(464,50,o),
(462,57,c),
(376,27,o),
(273,11,o),
(168,2,cs),
(151,1,o),
(136,0,o),
(119,0,cs),
(37,0,o),
(-5,24,o),
(-5,99,cs),
(-5,147,o),
(9,182,o),
(24,217,cs),
(31,235,o),
(41,251,o),
(50,267,cs),
(65,293,o),
(81,318,o),
(97,341,cs),
(99,344,o),
(102,345,o),
(108,345,cs)
);
}
);
width = 488;
}
);
},
{
glyphname = "behDotless-ar.medi.yeh";
layers = (
{
anchors = (
{
name = bottom;
pos = (321,-110);
},
{
name = bottom.mark;
pos = (294,-123);
},
{
name = entry;
pos = (286,92);
},
{
name = exit;
pos = (10,0);
},
{
name = top;
pos = (242,470);
},
{
name = top.mark;
pos = (242,483);
}
);
layerId = "1467EB51-6BD4-4CFC-AEAA-3E4EB1A95CFA";
shapes = (
{
closed = 1;
nodes = (
(282,264,l),
(297,256,o),
(304,237,o),
(314,225,c),
(318,224,o),
(319,224,o),
(319,224,c),
(353,229,l),
(291,94,l),
(283,92,o),
(276,91,o),
(271,90,c),
(254,89,o),
(243,96,o),
(239,112,c),
(232,127,o),
(221,137,o),
(208,141,c),
(208,141,l),
(208,142,l),
(198,146,o),
(188,145,o),
(177,141,cs),
(110,115,o),
(60,55,o),
(21,0,c),
(0,7,l),
(28,91,o),
(73,158,o),
(131,213,cs),
(164,245,o),
(204,263,o),
(249,268,cs),
(263,270,o),
(274,269,o),
(282,265,c),
(281,264,l)
);
}
);
width = 258;
},
{
anchors = (
{
name = bottom;
pos = (321,-110);
},
{
name = bottom.mark;
pos = (294,-123);
},
{
name = entry;
pos = (286,92);
},
{
name = exit;
pos = (10,0);
},
{
name = top;
pos = (242,470);
},
{
name = top.mark;
pos = (242,483);
}
);
layerId = "EF321139-F770-433D-B2B6-C3EFA1B16465";
shapes = (
{
closed = 1;
nodes = (
(185,139,o),
(182,139,o),
(179,137,cs),
(151,127,o),
(124,108,o),
(99,83,cs),
(74,58,o),
(53,33,o),
(33,5,cs),
(30,2,o),
(26,-1,o),
(20,0,cs),
(0,7,ls),
(-5,9,o),
(-10,15,o),
(-8,22,cs),
(7,68,o),
(27,109,o),
(54,146,cs),
(74,173,o),
(98,203,o),
(122,226,cs),
(156,259,o),
(196,278,o),
(242,282,cs),
(258,284,o),
(271,282,o),
(281,277,c),
(296,268,o),
(304,254,o),
(313,240,c),
(342,245,ls),
(350,246,o),
(358,238,o),
(355,229,c),
(377,222,o),
(381,218,o),
(350,217,c),
(295,98,ls),
(294,96,o),
(290,92,o),
(287,91,cs),
(266,87,l),
(244,87,o),
(230,96,o),
(223,117,c),
(217,127,o),
(205,139,o),
(190,139,cs)
);
}
);
width = 258;
}
);
},
{
glyphname = "behDotless-ar.init";
layers = (
{
anchors = (
{
name = bottom;
pos = (189,-136);
},
{
name = bottom.mark;
pos = (149,-171);
},
{
name = exit;
},
{
name = top;
pos = (218,496);
},
{
name = top.mark;
pos = (193,527);
}
);
layerId = "1467EB51-6BD4-4CFC-AEAA-3E4EB1A95CFA";
shapes = (
{
closed = 1;
nodes = (
(282,310,o),
(286,209,o),
(244,140,cs),
(210,83,o),
(169,37,o),
(103,18,cs),
(75,10,o),
(40,4,o),
(0,0,c),
(22,125,l),
(23,125,l),
(75,131,o),
(113,138,o),
(137,144,cs),
(161,150,o),
(182,159,o),
(201,172,c),
(201,186,o),
(192,222,o),
(175,280,c),
(252,393,l)
);
}
);
width = 294;
},
{
anchors = (
{
name = bottom;
pos = (189,-136);
},
{
name = bottom.mark;
pos = (149,-171);
},
{
name = exit;
},
{
name = top;
pos = (218,496);
},
{
name = top.mark;
pos = (193,527);
}
);
layerId = "EF321139-F770-433D-B2B6-C3EFA1B16465";
shapes = (
{
closed = 1;
nodes = (
(139,22,o),
(78,7,o),
(3,0,cs),
(-5,-1,o),
(-10,6,o),
(-9,14,cs),
(13,134,ls),
(14,139,o),
(18,144,o),
(23,145,cs),
(106,155,o),
(138,155,o),
(185,184,c),
(180,215,o),
(170,243,o),
(160,279,cs),
(159,282,o),
(161,288,o),
(162,289,cs),
(236,398,ls),
(242,407,o),
(254,406,o),
(257,396,cs),
(273,351,o),
(281,305,o),
(280,260,cs),
(279,214,o),
(269,174,o),
(248,141,cs),
(229,110,o),
(208,82,o),
(182,60,cs)
);
}
);
width = 294;
}
);
},
{
glyphname = "behDotless-ar.init.ain";
layers = (
{
anchors = (
{
name = bottom;
pos = (303,-163);
},
{
name = bottom.mark;
pos = (334,-171);
},
{
name = exit;
},
{
name = top;
pos = (360,519);
},
{
name = top.mark;
pos = (299,527);
}
);
layerId = "1467EB51-6BD4-4CFC-AEAA-3E4EB1A95CFA";
shapes = (
{
closed = 1;
nodes = (
(446,379,ls),
(449,383,o),
(452,370,o),
(459,340,cs),
(466,310,o),
(469,288,o),
(467,272,cs),
(455,172,o),
(401,86,o),
(323,46,c),
(286,26,o),
(242,12,o),
(191,6,cs),
(140,0,o),
(95,-2,o),
(56,2,cs),
(28,5,o),
(1,20,o),
(0,49,c),
(13,99,o),
(26,141,o),
(39,176,c),
(52,129,o),
(127,124,o),
(191,129,cs),
(257,134,o),
(342,154,o),
(389,174,c),
(390,195,o),
(383,226,o),
(369,266,c)
);
}
);
width = 492;
},
{
anchors = (
{
name = bottom;
pos = (303,-163);
},
{
name = bottom.mark;
pos = (334,-171);
},
{
name = exit;
},
{
name = top;
pos = (360,519);
},
{
name = top.mark;
pos = (299,527);
}
);
layerId = "EF321139-F770-433D-B2B6-C3EFA1B16465";
shapes = (
{
closed = 1;
nodes = (
(441,409,o),
(454,364,o),
(459,343,cs),
(466,312,o),
(469,289,o),
(467,273,cs),
(456,175,o),
(400,85,o),
(322,46,cs),
(265,17,o),
(190,0,o),
(105,0,cs),
(49,0,o),
(-6,6,o),
(-8,60,c),
(4,105,o),
(16,148,o),
(31,187,cs),
(33,191,o),
(36,194,o),
(42,194,cs),
(48,194,o),
(51,191,o),
(53,186,cs),
(62,153,o),
(114,147,o),
(160,147,cs),
(167,147,o),
(167,147,o),
(174,147,cs),
(216,147,o),
(257,155,o),
(292,165,c),
(323,173,o),
(348,180,o),
(368,188,c),
(366,215,o),
(359,239,o),
(349,265,cs),
(348,268,o),
(350,273,o),
(351,275,cs),
(425,385,ls)
);
}
);
width = 492;
}
);
},
{
glyphname = "behDotless-ar.init.ascend";
layers = (
{
anchors = (
{
name = bottom;
pos = (163,-136);
},
{
name = bottom.mark;
pos = (145,-145);
},
{
name = exit;
},
{
name = top;
pos = (211,422);
},
{
name = top.mark;
pos = (198,422);
}
);
layerId = "1467EB51-6BD4-4CFC-AEAA-3E4EB1A95CFA";
shapes = (
{
closed = 1;
nodes = (
(301,215,o),
(291,179,o),
(274,136,cs),
(257,93,o),
(233,61,o),
(201,43,cs),
(161,20,o),
(94,6,o),
(0,0,c),
(18,134,l),
(120,139,o),
(187,148,o),
(221,160,cs),
(255,172,o),
(281,201,o),
(298,247,c),
(301,245,l)
);
}
);
width = 313;
},
{
anchors = (
{
name = bottom;
pos = (163,-136);
},
{
name = bottom.mark;
pos = (145,-145);
},
{
name = exit;
},
{
name = top;
pos = (211,422);
},
{
name = top.mark;
pos = (198,422);
}
);
layerId = "EF321139-F770-433D-B2B6-C3EFA1B16465";
shapes = (
{
closed = 1;
nodes = (
(284,267,o),
(305,260,o),
(305,249,cs),
(304,208,o),
(292,174,o),
(278,139,cs),
(260,94,o),
(235,62,o),
(202,43,c),
(203,43,l),
(164,21,o),
(97,7,o),
(3,0,cs),
(-4,-1,o),
(-10,6,o),
(-9,13,c),
(5,143,ls),
(6,148,o),
(12,152,o),
(17,153,cs),
(66,156,o),
(106,159,o),
(139,163,cs),
(172,167,o),
(196,171,o),
(212,177,c),
(244,190,o),
(266,219,o),
(279,254,cs)
);
}
);
width = 313;
}
);
},
{
glyphname = "behDotless-ar.init.dal";
layers = (
{
anchors = (
{
name = bottom;
pos = (171,-154);
},
{
name = bottom.mark;
pos = (220,-145);
},
{
name = exit;
},
{
name = top;
pos = (213,409);
},
{
name = top.mark;
pos = (316,409);
}
);
layerId = "1467EB51-6BD4-4CFC-AEAA-3E4EB1A95CFA";
shapes = (
{
closed = 1;
nodes = (
(352,90,o),
(164,-46,o),
(38,15,cs),
(-30,48,o),
(5,159,o),
(48,215,cs),
(50,218,o),
(51,216,o),
(51,215,cs),
(45,184,o),
(57,148,o),
(84,141,cs),
(177,117,o),
(321,170,o),
(352,255,cs),
(353,257,o),
(355,256,o),
(355,253,cs)
);
}
);
width = 373;
},
{
anchors = (
{
name = bottom;
pos = (171,-154);
},
{
name = bottom.mark;
pos = (220,-145);
},
{
name = exit;
},
{
name = top;
pos = (213,409);
},
{
name = top.mark;
pos = (316,409);
}
);
layerId = "EF321139-F770-433D-B2B6-C3EFA1B16465";
shapes = (
{
closed = 1;
nodes = (
(354,273,o),
(358,265,o),
(358,256,cs),
(358,256,l),
(357,214,o),
(346,174,o),
(324,139,c),
(324,139,l),
(303,104,o),
(278,74,o),
(245,50,c),
(208,24,o),
(164,0,o),
(104,0,cs),
(80,0,o),
(57,5,o),
(35,16,cs),
(5,31,o),
(-10,55,o),
(-10,89,cs),
(-10,100,o),
(-9,108,o),
(-6,117,c),
(3,162,o),
(19,199,o),
(40,227,c),
(40,226,l),
(42,230,o),
(47,233,o),
(52,233,cs),
(64,233,o),
(64,228,o),
(64,217,c),
(63,212,o),
(62,209,o),
(62,205,cs),
(62,185,o),
(71,162,o),
(87,160,c),
(101,156,o),
(117,154,o),
(134,154,cs),
(165,154,o),
(197,161,o),
(232,175,cs),
(285,195,o),
(319,224,o),
(333,262,cs),
(335,267,o),
(340,273,o),
(346,273,cs)
);
}
);
width = 373;
}
);
},
{
glyphname = "behDotless-ar.init.feh";
layers = (
{
anchors = (
{
name = bottom;
pos = (356,-141);
},
{
name = bottom.mark;
pos = (413,-114);
},
{
name = exit;
},
{
name = top;
pos = (448,541);
},
{
name = top.mark;
pos = (404,510);
}
);
layerId = "1467EB51-6BD4-4CFC-AEAA-3E4EB1A95CFA";
shapes = (
{
closed = 1;
nodes = (
(509,392,ls),
(512,396,o),
(516,383,o),
(523,353,cs),
(530,323,o),
(532,301,o),
(530,285,cs),
(523,221,o),
(500,165,o),
(461,119,c),
(404,53,o),
(333,26,o),
(219,10,cs),
(150,0,o),
(95,-2,o),
(56,2,cs),
(28,5,o),
(1,19,o),
(0,48,c),
(13,98,o),
(26,140,o),
(39,175,c),
(54,123,o),
(149,124,o),
(223,132,cs),
(296,140,o),
(400,164,o),
(452,187,c),
(453,209,o),
(447,240,o),
(433,279,c)
);
}
);
width = 559;
},
{
anchors = (
{
name = bottom;
pos = (356,-141);
},
{
name = bottom.mark;
pos = (413,-114);
},
{
name = exit;
},
{
name = top;
pos = (448,541);
},
{
name = top.mark;
pos = (404,510);
}
);
layerId = "EF321139-F770-433D-B2B6-C3EFA1B16465";
shapes = (
{
closed = 1;
nodes = (
(507,428,o),
(525,341,o),
(528,315,cs),
(529,303,o),
(529,294,o),
(528,286,cs),
(511,148,o),
(433,64,o),
(311,29,cs),
(283,21,o),
(253,15,o),
(218,10,c),
(177,4,o),
(138,0,o),
(96,0,cs),
(43,0,o),
(-5,9,o),
(-7,60,c),
(5,105,o),
(16,147,o),
(31,186,cs),
(33,190,o),
(37,193,o),
(43,193,cs),
(49,193,o),
(52,190,o),
(54,185,cs),
(63,151,o),
(116,147,o),
(160,147,cs),
(248,147,o),
(325,167,o),
(393,188,cs),
(408,193,o),
(420,197,o),
(430,201,c),
(428,228,o),
(420,251,o),
(411,277,cs),
(410,280,o),
(412,286,o),
(413,288,cs),
(486,397,ls)
);
}
);
width = 559;
}
);
},
{
glyphname = "behDotless-ar.init.hah";
layers = (
{
anchors = (
{
name = bottom;
pos = (378,-29);
},
{
name = bottom.mark;
pos = (286,-66);
},
{
name = exit;
pos = (-44,-107);
},
{
name = top;
pos = (308,412);
},
{
name = top.mark;
pos = (308,472);
}
);
layerId = "1467EB51-6BD4-4CFC-AEAA-3E4EB1A95CFA";
shapes = (
{
closed = 1;
nodes = (
(3,5,o),
(13,20,o),
(31,44,cs),
(49,68,o),
(77,98,o),
(116,135,cs),
(155,172,o),
(201,202,o),
(255,224,cs),
(257,224,o),
(259,225,o),
(262,226,c),
(262,226,l),
(263,226,ls),
(302,244,o),
(336,247,o),
(366,235,c),
(371,229,l),
(356,192,o),
(342,153,o),
(324,119,cs),
(319,110,o),
(307,111,o),
(296,113,cs),
(273,115,o),
(253,114,o),
(234,109,c),
(234,109,l),
(189,94,o),
(151,72,o),
(119,44,cs),
(103,30,o),
(88,15,o),
(74,0,c),
(1,0,l)
);
}
);
width = 423;
},
{
anchors = (
{
name = bottom;
pos = (378,-29);
},
{
name = bottom.mark;
pos = (286,-66);
},
{
name = exit;
pos = (-44,-107);
},
{
name = top;
pos = (308,412);
},
{
name = top.mark;
pos = (308,472);
}
);
layerId = "EF321139-F770-433D-B2B6-C3EFA1B16465";
shapes = (
{
closed = 1;
nodes = (
(-17,0,o),
(-4,21,o),
(3,32,cs),
(31,75,o),
(66,113,o),
(107,151,cs),
(146,188,o),
(192,217,o),
(247,239,c),
(247,240,l),
(271,248,o),
(290,258,o),
(320,258,cs),
(334,258,o),
(349,255,o),
(365,248,c),
(371,240,ls),
(372,238,o),
(375,232,o),
(373,229,cs),
(358,192,o),
(345,154,o),
(326,120,cs),
(319,108,o),
(305,105,o),
(288,109,cs),
(284,110,o),
(281,110,o),
(278,110,cs),
(273,110,o),
(273,110,o),
(268,110,cs),
(255,110,o),
(243,108,o),
(232,105,c),
(233,105,l),
(192,91,o),
(155,70,o),
(126,45,cs),
(112,32,o),
(95,17,o),
(83,4,cs),
(82,3,o),
(77,0,o),
(75,0,cs),
(4,0,ls)
);
}
);
width = 423;
}
);
},
{
glyphname = "behDotless-ar.init.heh";
layers = (
{
anchors = (
{
name = bottom;
pos = (387,-62);
},
{
name = bottom.mark;
pos = (409,-79);
},
{
name = exit;
},
{
name = top;
pos = (417,514);
},
{
name = top.mark;
pos = (470,501);
}
);
layerId = "1467EB51-6BD4-4CFC-AEAA-3E4EB1A95CFA";
shapes = (
{
closed = 1;
nodes = (
(300,146,o),
(243,85,o),
(193,26,cs),
(153,-21,o),
(126,-62,o),
(111,-98,cs),
(96,-134,o),
(73,-190,o),
(44,-248,cs),
(25,-288,o),
(12,-299,o),
(6,-282,cs),
(0,-265,o),
(-1,-235,o),
(2,-194,cs),
(5,-156,l),
(5,-155,l),
(58,-90,l),
(58,-91,l),
(54,-121,l),
(62,-105,l),
(63,-103,l),
(102,-25,o),
(144,55,o),
(196,122,cs),
(232,168,o),
(295,225,o),
(348,260,cs),
(380,281,o),
(411,296,o),
(443,307,cs),
(475,318,o),
(504,318,o),
(528,308,c),
(528,308,o),
(528,308,o),
(533,302,c),
(518,265,o),
(505,226,o),
(486,192,cs),
(481,183,o),
(469,184,o),
(458,186,cs),
(429,189,o),
(401,186,o),
(377,176,cs)
);
}
);
width = 559;
},
{
anchors = (
{
name = bottom;
pos = (387,-62);
},
{
name = bottom.mark;
pos = (409,-79);
},
{
name = exit;
},
{
name = top;
pos = (417,514);
},
{
name = top.mark;
pos = (470,501);
}
);
layerId = "EF321139-F770-433D-B2B6-C3EFA1B16465";
shapes = (
{
closed = 1;
nodes = (
(375,181,o),
(340,158,o),
(306,133,cs),
(266,104,o),
(232,68,o),
(200,30,cs),
(171,-6,o),
(139,-47,o),
(122,-88,cs),
(103,-132,o),
(83,-177,o),
(61,-225,cs),
(60,-228,o),
(60,-230,o),
(58,-232,c),
(43,-264,o),
(17,-308,o),
(0,-265,cs),
(-5,-251,o),
(-7,-232,o),
(-7,-212,cs),
(-7,-201,o),
(-6,-188,o),
(-5,-175,cs),
(-2,-133,l),
(52,-69,ls),
(55,-65,o),
(58,-63,o),
(63,-64,c),
(97,4,o),
(139,78,o),
(184,136,cs),
(201,159,o),
(226,182,o),
(248,203,cs),
(288,241,o),
(331,274,o),
(382,300,cs),
(407,313,o),
(426,320,o),
(454,326,cs),
(462,328,o),
(471,329,o),
(478,329,cs),
(493,329,o),
(508,325,o),
(522,319,c),
(526,315,o),
(533,308,o),
(530,300,cs),
(518,268,ls),
(508,242,o),
(497,215,o),
(484,191,cs),
(473,173,o),
(452,181,o),
(428,181,cs)
);
}
);
width = 559;
}
);
},
{
glyphname = "behDotless-ar.init.meem";
layers = (
{
anchors = (
{
name = bottom;
pos = (356,-9);
},
{
name = bottom.mark;
pos = (264,-35);
},
{
name = exit;
},
{
name = top;
pos = (286,545);
},
{
name = top.mark;
pos = (272,479);
}
);
layerId = "1467EB51-6BD4-4CFC-AEAA-3E4EB1A95CFA";
shapes = (
{
closed = 1;
nodes = (
(270,187,o),
(249,205,o),
(224,203,cs),
(199,201,o),
(173,189,o),
(147,166,cs),
(121,143,o),
(96,116,o),
(73,83,cs),
(50,50,o),
(32,22,o),
(18,0,c),
(0,0,l),
(1,1,o),
(3,6,o),
(5,13,cs),
(7,20,o),
(13,32,o),
(21,50,cs),
(31,71,o),
(46,101,o),
(66,138,cs),
(103,207,o),
(157,280,o),
(223,316,cs),
(254,333,o),
(287,332,o),
(320,313,c),
(341,301,o),
(342,276,o),
(325,238,cs),
(308,200,o),
(296,170,o),
(288,149,c)
);
}
);
width = 367;
},
{
anchors = (
{
name = bottom;
pos = (356,-9);
},
{
name = bottom.mark;
pos = (264,-35);
},
{
name = exit;
},
{
name = top;
pos = (286,545);
},
{
name = top.mark;
pos = (272,479);
}
);
layerId = "EF321139-F770-433D-B2B6-C3EFA1B16465";
shapes = (
{
closed = 1;
nodes = (
(249,198,o),
(227,205,o),
(187,186,cs),
(176,181,o),
(163,173,o),
(152,163,cs),
(128,142,o),
(105,115,o),
(83,84,c),
(83,85,l),
(64,57,o),
(47,31,o),
(30,5,cs),
(29,3,o),
(23,0,o),
(20,0,cs),
(3,0,ls),
(-23,0,o),
(7,54,o),
(12,65,cs),
(25,92,o),
(40,122,o),
(56,151,cs),
(93,222,o),
(144,290,o),
(213,328,cs),
(227,335,o),
(243,341,o),
(262,341,cs),
(281,341,o),
(300,336,o),
(318,325,cs),
(333,316,o),
(340,302,o),
(340,284,cs),
(340,266,o),
(334,251,o),
(328,236,c),
(314,205,o),
(303,180,o),
(292,152,c),
(271,151,l)
);
}
);
width = 367;
}
);
},
{
glyphname = "behDotless-ar.init.ragaa";
layers = (
{
anchors = (
{
name = bottom;
pos = (419,145);
},
{
name = bottom.mark;
pos = (274,-102);
},
{
name = exit;
},
{
name = top;
pos = (199,623);
},
{
name = top.mark;
pos = (242,639);
}
);
layerId = "1467EB51-6BD4-4CFC-AEAA-3E4EB1A95CFA";
shapes = (
{
closed = 1;
nodes = (
(233,228,o),
(225,258,o),
(220,273,c),
(220,274,l),
(220,274,l),
(212,297,o),
(198,323,o),
(179,352,c),
(242,463,l),
(280,426,o),
(299,377,o),
(298,316,c),
(298,317,l),
(298,316,ls),
(298,282,o),
(293,251,o),
(281,221,c),
(273,197,o),
(260,170,o),
(241,141,cs),
(224,116,o),
(204,97,o),
(179,83,cs),
(134,58,o),
(91,32,o),
(51,3,cs),
(49,2,o),
(47,1,o),
(46,-1,c),
(0,31,l),
(22,87,o),
(91,146,o),
(151,165,cs),
(182,175,o),
(210,189,o),
(235,209,c),
(235,210,o),
(235,212,o),
(235,214,cs)
);
}
);
width = 678;
},
{
anchors = (
{
name = bottom;
pos = (419,145);
},
{
name = bottom.mark;
pos = (274,-102);
},
{
name = exit;
},
{
name = top;
pos = (199,623);
},
{
name = top.mark;
pos = (242,639);
}
);
layerId = "EF321139-F770-433D-B2B6-C3EFA1B16465";
shapes = (
{
closed = 1;
nodes = (
(56,1,o),
(48,-5,o),
(40,1,cs),
(-5,32,ls),
(-9,35,o),
(-11,41,o),
(-9,47,c),
(11,96,o),
(53,136,o),
(97,163,cs),
(113,172,o),
(128,179,o),
(144,184,cs),
(171,192,o),
(195,203,o),
(216,220,c),
(212,238,l),
(202,280,o),
(186,311,o),
(164,344,cs),
(163,346,o),
(163,348,o),
(163,351,cs),
(163,354,o),
(163,355,o),
(164,357,cs),
(225,465,ls),
(229,472,o),
(238,474,o),
(245,468,cs),
(284,430,o),
(303,380,o),
(303,318,cs),
(303,284,o),
(297,252,o),
(286,222,c),
(266,165,o),
(232,109,o),
(181,81,cs),
(158,68,o),
(136,56,o),
(114,42,c),
(103,35,l),
(88,25,o),
(74,16,o),
(60,6,c)
);
}
);
width = 678;
}
);
},
{
glyphname = "behDotless-ar.init.reh";
layers = (
{
anchors = (
{
name = bottom;
pos = (202,-127);
},
{
name = bottom.mark;
pos = (211,-123);
},
{
name = exit;
},
{
name = top;
pos = (229,422);
},
{
name = top.mark;
pos = (250,400);
}
);
layerId = "1467EB51-6BD4-4CFC-AEAA-3E4EB1A95CFA";
shapes = (
{
closed = 1;
nodes = (
(301,142,o),
(267,88,o),
(191,69,cs),
(156,60,o),
(126,53,o),
(102,49,cs),
(79,45,o),
(54,33,o),
(34,13,c),
(23,-4,o),
(13,-6,o),
(4,7,cs),
(-5,20,o),
(-1,36,o),
(14,54,c),
(14,55,l),
(20,68,o),
(26,80,o),
(33,91,c),
(54,144,o),
(93,177,o),
(154,186,cs),
(179,190,o),
(207,194,o),
(235,200,c),
(262,204,o),
(291,213,o),
(308,229,c)
);
}
);
width = 323;
},
{
anchors = (
{
name = bottom;
pos = (202,-127);
},
{
name = bottom.mark;
pos = (211,-123);
},
{
name = exit;
},
{
name = top;
pos = (229,422);
},
{
name = top.mark;
pos = (250,400);
}
);
layerId = "EF321139-F770-433D-B2B6-C3EFA1B16465";
shapes = (
{
closed = 1;
nodes = (
(2,-1,o),
(-10,18,o),
(-10,34,cs),
(-10,50,o),
(-2,60,o),
(6,71,c),
(11,83,o),
(17,94,o),
(24,105,c),
(37,138,o),
(56,162,o),
(81,177,c),
(80,177,l),
(100,190,o),
(123,198,o),
(150,203,c),
(177,207,o),
(201,211,o),
(227,217,c),
(251,221,o),
(277,228,o),
(292,242,cs),
(300,250,o),
(313,243,o),
(312,232,cs),
(305,142,o),
(267,87,o),
(190,67,cs),
(160,60,o),
(133,53,o),
(104,48,cs),
(82,44,o),
(60,31,o),
(45,18,c),
(39,9,o),
(31,-1,o),
(18,-1,cs)
);
}
);
width = 323;
}
);
},
{
glyphname = "behDotless-ar.init.sad";
layers = (
{
anchors = (
{
name = bottom;
pos = (426,-105);
},
{
name = bottom.mark;
pos = (483,-92);
},
{
name = exit;
},
{
name = top;
pos = (567,602);
},
{
name = top.mark;
pos = (497,637);
}
);
layerId = "1467EB51-6BD4-4CFC-AEAA-3E4EB1A95CFA";
shapes = (
{
closed = 1;
nodes = (
(520,268,o),
(499,325,o),
(489,354,c),
(565,467,l),
(589,393,ls),
(595,376,o),
(598,358,o),
(598,339,cs),
(598,304,o),
(588,267,o),
(568,226,cs),
(532,151,o),
(441,92,o),
(359,55,cs),
(312,34,o),
(264,18,o),
(214,9,cs),
(183,3,o),
(153,0,o),
(126,0,cs),
(65,0,o),
(14,14,o),
(5,57,cs),
(3,68,o),
(1,79,o),
(1,91,cs),
(1,111,o),
(5,133,o),
(12,155,cs),
(23,191,o),
(37,225,o),
(57,259,cs),
(77,293,o),
(92,316,o),
(102,331,cs),
(103,333,o),
(104,333,o),
(106,333,cs),
(108,333,o),
(111,333,o),
(111,330,cs),
(111,329,o),
(111,328,o),
(110,326,cs),
(81,269,o),
(67,227,o),
(67,197,cs),
(67,144,o),
(104,124,o),
(157,124,cs),
(173,124,o),
(190,126,o),
(209,130,cs),
(300,147,o),
(383,166,o),
(457,202,cs),
(520,232,l),
(520,234,ls)
);
}
);
width = 643;
},
{
anchors = (
{
name = bottom;
pos = (426,-105);
},
{
name = bottom.mark;
pos = (483,-92);
},
{
name = exit;
},
{
name = top;
pos = (567,602);
},
{
name = top.mark;
pos = (497,637);
}
);
layerId = "EF321139-F770-433D-B2B6-C3EFA1B16465";
shapes = (
{
closed = 1;
nodes = (
(82,159,o),
(114,144,o),
(157,144,cs),
(195,144,o),
(228,152,o),
(260,159,cs),
(278,163,o),
(295,167,o),
(313,172,cs),
(359,183,o),
(402,198,o),
(441,217,cs),
(495,244,l),
(495,254,o),
(491,268,o),
(486,287,c),
(479,309,o),
(474,330,o),
(466,350,cs),
(465,353,o),
(466,358,o),
(467,360,cs),
(542,469,ls),
(548,478,o),
(560,477,o),
(563,467,cs),
(586,395,ls),
(591,378,o),
(594,361,o),
(594,340,cs),
(594,283,o),
(565,214,o),
(532,176,cs),
(472,107,o),
(383,58,o),
(286,27,cs),
(262,19,o),
(238,14,o),
(214,9,c),
(214,9,l),
(183,3,o),
(154,0,o),
(127,0,cs),
(47,0,o),
(-5,20,o),
(-5,100,cs),
(-5,120,o),
(1,149,o),
(5,165,c),
(26,233,o),
(61,290,o),
(97,342,c),
(100,344,o),
(103,346,o),
(108,346,cs),
(111,346,o),
(113,345,o),
(115,344,c),
(114,345,l),
(121,343,o),
(124,339,o),
(124,331,cs),
(124,328,o),
(124,327,o),
(123,325,cs),
(95,271,o),
(82,229,o),
(82,202,cs)
);
}
);
width = 643;
}
);
},
{
glyphname = "behDotless-ar.init.yeh";
layers = (
{
anchors = (
{
name = bottom;
pos = (325,88);
},
{
name = bottom.mark;
pos = (145,-457);
},
{
name = exit;
},
{
name = top;
pos = (92,470);
},
{
name = top.mark;
pos = (101,497);
}
);
layerId = "1467EB51-6BD4-4CFC-AEAA-3E4EB1A95CFA";
shapes = (
{
closed = 1;
nodes = (
(105,89,o),
(105,90,o),
(106,92,cs),
(104,106,o),
(96,137,o),
(91,151,c),
(91,151,l),
(84,173,o),
(69,199,o),
(49,229,c),
(113,341,l),
(150,304,o),
(169,254,o),
(169,194,cs),
(169,160,o),
(163,129,o),
(151,99,c),
(141,66,o),
(117,25,o),
(98,0,c),
(0,25,l),
(7,42,l),
(36,52,o),
(83,69,o),
(105,87,c)
);
}
);
width = 177;
},
{
anchors = (
{
name = bottom;
pos = (325,88);
},
{
name = bottom.mark;
pos = (145,-457);
},
{
name = exit;
},
{
name = top;
pos = (92,470);
},
{
name = top.mark;
pos = (101,497);
}
);
layerId = "EF321139-F770-433D-B2B6-C3EFA1B16465";
shapes = (
{
closed = 1;
nodes = (
(35,74,o),
(69,84,o),
(92,103,c),
(88,120,l),
(88,120,l),
(86,130,o),
(83,141,o),
(78,154,c),
(71,175,o),
(58,199,o),
(39,227,cs),
(37,230,o),
(37,236,o),
(39,239,cs),
(101,347,ls),
(105,353,o),
(113,357,o),
(119,350,cs),
(158,312,o),
(177,262,o),
(176,200,cs),
(176,166,o),
(170,133,o),
(159,104,c),
(148,70,o),
(124,31,o),
(105,5,cs),
(103,2,o),
(98,-2,o),
(93,0,cs),
(-1,24,ls),
(-7,26,o),
(-13,33,o),
(-9,41,cs),
(-2,57,ls),
(-1,58,o),
(3,63,o),
(5,63,cs)
);
}
);
width = 177;
}
);
},
{
glyphname = "hah-ar";
layers = (
{
anchors = (
{
name = bottom.mark;
pos = (294,-545);
},
{
name = center;
pos = (382,73);
},
{
name = top;
pos = (308,739);
},
{
name = top.mark;
pos = (325,738);
}
);
layerId = "1467EB51-6BD4-4CFC-AEAA-3E4EB1A95CFA";
shapes = (
{
closed = 1;
nodes = (
(387,398,l),
(367,457,o),
(231,433,o),
(202,408,c),
(217,370,o),
(244,340,o),
(260,304,c),
(301,334,o),
(353,366,o),
(387,398,c)
);
},
{
closed = 1;
nodes = (
(485,-384,o),
(59,-451,o),
(4,-190,cs),
(-26,-49,o),
(92,160,o),
(182,242,c),
(107,325,o),
(146,478,o),
(212,525,cs),
(256,556,o),
(364,576,o),
(428,549,cs),
(494,522,o),
(430,384,o),
(403,346,cs),
(371,300,o),
(328,264,o),
(288,229,cs),
(233,181,o),
(-14,-30,o),
(64,-118,cs),
(200,-271,o),
(460,-232,o),
(635,-186,cs),
(640,-185,o),
(652,-182,o),
(648,-186,cs),
(648,-186,l)
);
}
);
width = 683;
},
{
anchors = (
{
name = bottom;
pos = (382,24);
},
{
name = bottom.mark;
pos = (294,-545);
},
{
name = center;
pos = (382,73);
},
{
name = top;
pos = (308,739);
},
{
name = top.mark;
pos = (325,738);
}
);
layerId = "EF321139-F770-433D-B2B6-C3EFA1B16465";
shapes = (
{
closed = 1;
nodes = (
(246,350,o),
(255,337,o),
(262,324,c),
(313,360,l),
(332,372,o),
(349,385,o),
(365,399,c),
(357,414,o),
(340,421,o),
(314,421,cs),
(290,421,o),
(264,416,o),
(247,412,cs),
(234,409,o),
(222,406,o),
(215,402,c),
(222,386,o),
(228,374,o),
(238,361,c),
(238,362,l)
);
},
{
closed = 1;
nodes = (
(639,-153,o),
(644,-158,o),
(644,-166,cs),
(644,-171,o),
(643,-172,o),
(640,-175,c),
(600,-223,o),
(546,-263,o),
(480,-294,c),
(414,-325,o),
(344,-348,o),
(253,-348,cs),
(193,-348,o),
(145,-334,o),
(102,-314,c),
(37,-281,o),
(-7,-217,o),
(-7,-119,cs),
(-7,12,o),
(102,186,o),
(165,247,c),
(141,278,o),
(128,313,o),
(128,353,cs),
(128,370,o),
(131,383,o),
(134,398,c),
(133,398,l),
(145,460,o),
(169,503,o),
(204,528,cs),
(233,548,o),
(291,567,o),
(350,567,cs),
(377,567,o),
(402,562,o),
(424,553,c),
(449,542,o),
(462,522,o),
(462,494,cs),
(462,479,o),
(459,463,o),
(452,444,c),
(438,404,o),
(425,366,o),
(405,339,cs),
(375,298,o),
(336,264,o),
(299,231,c),
(286,218,o),
(270,206,o),
(255,192,cs),
(225,164,l),
(225,165,l),
(167,113,o),
(108,51,o),
(73,-24,cs),
(67,-37,o),
(64,-50,o),
(64,-61,cs),
(64,-75,o),
(70,-85,o),
(77,-93,c),
(136,-159,o),
(225,-194,o),
(342,-194,cs),
(348,-194,o),
(348,-194,o),
(354,-194,cs),
(446,-194,o),
(541,-175,o),
(616,-156,cs),
(622,-154,o),
(626,-153,o),
(630,-153,cs)
);
}
);
width = 683;
}
);
unicode = 1581;
},
{
glyphname = "hah-ar.fina";
layers = (
{
anchors = (
{
name = bottom.mark;
pos = (294,-545);
},
{
name = center;
pos = (382,73);
},
{
name = entry;
pos = (147,424);
},
{
name = top;
pos = (158,760);
},
{
name = top.mark;
pos = (141,773);
}
);
layerId = "1467EB51-6BD4-4CFC-AEAA-3E4EB1A95CFA";
shapes = (
{
closed = 1;
nodes = (
(384,404,o),
(381,408,o),
(379,409,cs),
(348,416,o),
(310,419,o),
(264,419,cs),
(218,419,o),
(184,417,o),
(161,413,cs),
(149,410,o),
(145,417,o),
(148,432,cs),
(157,474,o),
(191,530,o),
(207,554,c),
(223,558,o),
(259,560,o),
(312,560,cs),
(365,560,o),
(404,556,o),
(429,546,cs),
(462,532,o),
(469,499,o),
(451,448,cs),
(433,397,o),
(417,362,o),
(404,343,cs),
(372,299,o),
(329,262,o),
(289,227,cs),
(275,215,o),
(251,193,o),
(219,164,cs),
(160,111,o),
(93,38,o),
(59,-35,cs),
(43,-69,o),
(45,-98,o),
(65,-120,cs),
(126,-189,o),
(218,-224,o),
(335,-228,cs),
(387,-230,o),
(439,-227,o),
(491,-218,cs),
(569,-205,o),
(617,-195,o),
(635,-188,cs),
(638,-187,o),
(641,-187,o),
(645,-186,cs),
(649,-185,o),
(650,-186,o),
(648,-188,cs),
(607,-237,o),
(554,-277,o),
(487,-308,cs),
(371,-362,o),
(227,-388,o),
(106,-329,cs),
(53,-303,o),
(19,-257,o),
(5,-192,cs),
(-10,-121,o),
(5,-42,o),
(49,46,cs),
(93,134,o),
(137,199,o),
(182,240,c),
(261,301,l),
(300,329,o),
(353,363,o),
(387,395,c)
);
}
);
width = 188;
},
{
anchors = (
{
name = bottom;
pos = (382,24);
},
{
name = bottom.mark;
pos = (294,-545);
},
{
name = center;
pos = (382,73);
},
{
name = entry;
pos = (147,424);
},
{
name = top;
pos = (158,760);
},
{
name = top.mark;
pos = (141,773);
}
);
layerId = "EF321139-F770-433D-B2B6-C3EFA1B16465";
shapes = (
{
closed = 1;
nodes = (
(566,-269,o),
(414,-351,o),
(254,-351,cs),
(199,-351,o),
(150,-339,o),
(103,-316,cs),
(50,-289,o),
(15,-241,o),
(0,-176,cs),
(-4,-159,o),
(-6,-141,o),
(-6,-121,cs),
(-6,-66,o),
(9,-4,o),
(42,62,c),
(85,148,o),
(129,211,o),
(173,252,c),
(250,312,l),
(287,340,o),
(331,367,o),
(366,397,c),
(337,403,o),
(306,405,o),
(271,405,c),
(239,406,o),
(209,404,o),
(183,400,c),
(184,400,l),
(143,392,o),
(147,442,o),
(157,475,c),
(163,493,o),
(171,509,o),
(179,525,cs),
(187,539,o),
(191,548,o),
(191,549,cs),
(192,553,o),
(197,557,o),
(200,558,cs),
(218,562,o),
(253,565,o),
(305,565,cs),
(359,565,o),
(399,560,o),
(424,550,c),
(450,539,o),
(462,519,o),
(462,491,cs),
(462,476,o),
(459,460,o),
(452,441,cs),
(438,400,o),
(424,365,o),
(405,336,c),
(375,295,o),
(336,261,o),
(299,228,c),
(286,215,o),
(271,203,o),
(256,189,cs),
(226,161,l),
(226,162,l),
(169,111,o),
(106,43,o),
(73,-27,cs),
(67,-40,o),
(64,-52,o),
(64,-63,cs),
(64,-77,o),
(70,-88,o),
(77,-96,c),
(124,-149,o),
(179,-175,o),
(258,-189,cs),
(286,-194,o),
(314,-197,o),
(344,-197,cs),
(351,-197,o),
(350,-197,o),
(357,-197,cs),
(396,-197,o),
(437,-194,o),
(479,-187,c),
(519,-180,o),
(571,-171,o),
(604,-162,cs),
(618,-158,o),
(646,-147,o),
(649,-164,cs),
(649,-167,o),
(647,-172,o),
(641,-178,c),
(641,-177,l)
);
}
);
width = 188;
}
);
},
{
glyphname = "hah-ar.medi";
layers = (
{
anchors = (
{
name = bottom;
pos = (316,-88);
},
{
name = bottom.mark;
pos = (312,-145);
},
{
name = entry;
pos = (225,284);
},
{
name = exit;
},
{
name = top;
pos = (180,620);
},
{
name = top.mark;
pos = (176,580);
}
);
layerId = "1467EB51-6BD4-4CFC-AEAA-3E4EB1A95CFA";
shapes = (
{
closed = 1;
nodes = (
(399,241,o),
(402,244,o),
(404,247,c),
(397,271,o),
(329,274,o),
(293,275,cs),
(263,276,o),
(242,278,o),
(229,281,cs),
(223,282,o),
(223,288,o),
(228,300,cs),
(245,339,o),
(264,374,o),
(282,412,c),
(303,413,o),
(337,410,o),
(383,403,cs),
(429,396,o),
(461,386,o),
(479,372,cs),
(491,363,o),
(494,349,o),
(486,331,cs),
(463,277,o),
(442,242,o),
(413,197,cs),
(364,123,o),
(234,59,o),
(23,5,c),
(12,3,o),
(4,1,o),
(0,0,c),
(24,129,l),
(25,129,l),
(27,129,l),
(27,130,l),
(181,150,o),
(303,186,o),
(393,238,c)
);
}
);
width = 281;
},
{
anchors = (
{
name = bottom;
pos = (316,-88);
},
{
name = bottom.mark;
pos = (312,-145);
},
{
name = entry;
pos = (225,284);
},
{
name = exit;
},
{
name = top;
pos = (180,620);
},
{
name = top.mark;
pos = (176,580);
}
);
layerId = "EF321139-F770-433D-B2B6-C3EFA1B16465";
shapes = (
{
closed = 1;
nodes = (
(167,167,o),
(284,198,o),
(377,252,c),
(373,254,o),
(369,256,o),
(361,258,cs),
(330,264,o),
(286,265,o),
(250,268,cs),
(240,269,o),
(231,269,o),
(224,271,c),
(191,275,o),
(224,330,o),
(230,343,cs),
(239,361,o),
(240,360,o),
(249,379,c),
(248,379,l),
(254,391,o),
(260,403,o),
(266,415,cs),
(267,418,o),
(272,421,o),
(276,421,cs),
(309,423,o),
(341,418,o),
(376,413,cs),
(420,406,o),
(469,398,o),
(486,367,cs),
(489,362,o),
(490,356,o),
(490,350,cs),
(490,334,o),
(481,318,o),
(476,306,cs),
(460,270,o),
(441,240,o),
(421,208,c),
(413,195,l),
(388,159,o),
(343,125,o),
(279,93,cs),
(215,61,o),
(132,31,o),
(29,5,c),
(6,0,ls),
(-3,-2,o),
(-10,5,o),
(-8,14,cs),
(17,139,ls),
(18,144,o),
(24,148,o),
(29,148,c),
(31,149,l)
);
}
);
width = 281;
},
{
anchors = (
{
name = bottom;
pos = (316,-88);
},
{
name = bottom.mark;
pos = (312,-145);
},
{
name = entry;
pos = (225,284);
},
{
name = exit;
},
{
name = top;
pos = (180,620);
},
{
name = top.mark;
pos = (176,580);
}
);
associatedMasterId = "1467EB51-6BD4-4CFC-AEAA-3E4EB1A95CFA";
attr = {
color = 1;
};
layerId = "AB105176-B062-4B40-9900-8E4653D92E08";
name = "6 Dec 21, 21:23";
shapes = (
{
attr = {
gradient = {
colors = (
(
(210,46,31,128),
0
),
(
(210,46,31,255),
1
)
);
end = (0.6361,0.3741);
start = (-0.0072,0.1894);
};
};
closed = 1;
nodes = (
(399,241,o),
(402,244,o),
(404,247,c),
(397,271,o),
(329,274,o),
(293,275,cs),
(263,276,o),
(242,278,o),
(229,281,cs),
(223,282,o),
(223,288,o),
(228,300,cs),
(245,339,o),
(264,374,o),
(282,412,c),
(303,413,o),
(337,410,o),
(383,403,cs),
(429,396,o),
(461,386,o),
(479,372,cs),
(491,363,o),
(494,349,o),
(486,331,cs),
(463,277,o),
(442,242,o),
(413,197,cs),
(364,123,o),
(234,59,o),
(23,5,c),
(12,3,o),
(4,1,o),
(0,0,c),
(24,129,l),
(25,129,l),
(27,129,l),
(27,130,l),
(181,150,o),
(303,186,o),
(393,238,c)
);
}
);
width = 281;
},
{
anchors = (
{
name = bottom;
pos = (316,-88);
},
{
name = bottom.mark;
pos = (312,-145);
},
{
name = entry;
pos = (225,284);
},
{
name = exit;
},
{
name = top;
pos = (180,620);
},
{
name = top.mark;
pos = (176,580);
}
);
associatedMasterId = "EF321139-F770-433D-B2B6-C3EFA1B16465";
attr = {
color = 1;
};
layerId = "D642CBD0-9751-41D9-81B6-343AD1DF87F5";
name = "6 Dec 21, 21:23";
shapes = (
{
attr = {
gradient = {
colors = (
(
(210,46,31,128),
0
),
(
(210,46,31,255),
1
)
);
end = (0.6361,0.3741);
start = (-0.0072,0.1894);
};
};
closed = 1;
nodes = (
(167,167,o),
(284,198,o),
(377,252,c),
(373,254,o),
(369,256,o),
(361,258,cs),
(330,264,o),
(286,265,o),
(250,268,cs),
(240,269,o),
(231,269,o),
(224,271,c),
(191,275,o),
(224,330,o),
(230,343,cs),
(239,361,o),
(240,360,o),
(249,379,c),
(248,379,l),
(254,391,o),
(260,403,o),
(266,415,cs),
(267,418,o),
(272,421,o),
(276,421,cs),
(309,423,o),
(341,418,o),
(376,413,cs),
(420,406,o),
(469,398,o),
(486,367,cs),
(489,362,o),
(490,356,o),
(490,350,cs),
(490,334,o),
(481,318,o),
(476,306,cs),
(460,270,o),
(441,240,o),
(421,208,c),
(413,195,l),
(388,159,o),
(343,125,o),
(279,93,cs),
(215,61,o),
(132,31,o),
(29,5,c),
(6,0,ls),
(-3,-2,o),
(-10,5,o),
(-8,14,cs),
(17,139,ls),
(18,144,o),
(24,148,o),
(29,148,c),
(31,149,l)
);
}
);
width = 281;
}
);
},
{
glyphname = "hah-ar.medi.ain";
layers = (
{
anchors = (
{
name = bottom;
pos = (422,-105);
},
{
name = bottom.mark;
pos = (413,-127);
},
{
name = entry;
pos = (339,278);
},
{
name = exit;
},
{
name = top;
pos = (422,628);
},
{
name = top.mark;
pos = (237,497);
}
);
layerId = "1467EB51-6BD4-4CFC-AEAA-3E4EB1A95CFA";
shapes = (
{
closed = 1;
nodes = (
(513,234,o),
(516,237,o),
(518,240,c),
(516,248,o),
(505,254,o),
(485,259,cs),
(464,264,o),
(438,267,o),
(408,268,cs),
(378,269,o),
(356,270,o),
(343,273,cs),
(337,274,o),
(337,280,o),
(342,292,cs),
(359,331,o),
(378,366,o),
(396,404,c),
(396,404,l),
(419,398,o),
(454,395,o),
(499,391,cs),
(544,387,o),
(575,378,o),
(593,364,cs),
(605,355,o),
(607,341,o),
(600,323,cs),
(577,269,o),
(556,234,o),
(527,189,cs),
(464,94,o),
(353,32,o),
(221,9,cs),
(166,0,o),
(111,-2,o),
(56,3,cs),
(28,6,o),
(1,20,o),
(0,49,c),
(13,99,o),
(26,142,o),
(39,177,c),
(45,156,o),
(60,142,o),
(84,134,c),
(111,124,o),
(150,122,o),
(202,129,cs),
(319,144,o),
(413,181,o),
(507,231,cs)
);
}
);
width = 395;
},
{
anchors = (
{
name = bottom;
pos = (422,-105);
},
{
name = bottom.mark;
pos = (413,-127);
},
{
name = entry;
pos = (339,278);
},
{
name = exit;
},
{
name = top;
pos = (422,628);
},
{
name = top.mark;
pos = (237,497);
}
);
layerId = "EF321139-F770-433D-B2B6-C3EFA1B16465";
shapes = (
{
closed = 1;
nodes = (
(263,153,o),
(340,178,o),
(412,208,cs),
(438,219,o),
(463,231,o),
(489,245,c),
(463,254,o),
(436,258,o),
(398,259,cs),
(374,260,o),
(353,260,o),
(335,264,c),
(303,269,o),
(334,321,o),
(342,336,cs),
(348,348,o),
(354,360,o),
(360,372,c),
(359,372,l),
(365,384,o),
(371,396,o),
(377,408,cs),
(379,412,o),
(385,416,o),
(391,414,cs),
(419,408,o),
(451,404,o),
(488,401,cs),
(529,398,o),
(563,391,o),
(585,373,cs),
(595,365,o),
(601,355,o),
(601,343,cs),
(601,336,o),
(598,329,o),
(595,320,cs),
(591,311,o),
(588,303,o),
(585,296,cs),
(581,286,o),
(581,286,o),
(578,279,cs),
(562,247,o),
(543,217,o),
(523,188,cs),
(470,107,o),
(384,54,o),
(281,23,cs),
(232,8,o),
(180,0,o),
(118,0,cs),
(80,0,o),
(39,2,o),
(16,18,c),
(1,27,o),
(-7,41,o),
(-7,61,c),
(5,106,o),
(17,148,o),
(32,187,cs),
(34,191,o),
(37,195,o),
(43,195,cs),
(49,195,o),
(52,191,o),
(54,186,cs),
(62,155,o),
(101,145,o),
(145,145,cs),
(153,145,o),
(161,145,o),
(170,146,cs)
);
}
);
width = 395;
}
);
},
{
glyphname = "hah-ar.medi.dal";
layers = (
{
anchors = (
{
name = bottom;
pos = (308,-123);
},
{
name = bottom.mark;
pos = (334,-119);
},
{
name = entry;
pos = (237,261);
},
{
name = exit;
},
{
name = top;
pos = (229,602);
},
{
name = top.mark;
pos = (264,615);
}
);
layerId = "1467EB51-6BD4-4CFC-AEAA-3E4EB1A95CFA";
shapes = (
{
closed = 1;
nodes = (
(-24,48,o),
(28,157,o),
(60,200,cs),
(65,208,o),
(67,208,o),
(67,200,c),
(52,89,o),
(215,113,o),
(402,212,cs),
(422.791,224.994,o),
(420.015,234.996,o),
(384,244,cs),
(363,249,o),
(336,252,o),
(306,253,cs),
(276,254,o),
(254,256,o),
(241,259,c),
(235,260,o),
(235,266,o),
(240,278,cs),
(256,317,o),
(276,352,o),
(294,390,c),
(295,390,l),
(317,384,o),
(351,380,o),
(396,376,cs),
(441,372,o),
(474,364,o),
(492,350,cs),
(502,342,o),
(505,327,o),
(498,306,cs),
(482,257,o),
(446.769,200.198,o),
(409,156,cs),
(315,46,o),
(112,-27,o),
(47,9,cs)
);
}
);
width = 291;
},
{
anchors = (
{
name = bottom;
pos = (308,-123);
},
{
name = bottom.mark;
pos = (334,-119);
},
{
name = entry;
pos = (237,261);
},
{
name = exit;
},
{
name = top;
pos = (229,602);
},
{
name = top.mark;
pos = (264,615);
}
);
layerId = "EF321139-F770-433D-B2B6-C3EFA1B16465";
shapes = (
{
closed = 1;
nodes = (
(37,0,o),
(3,33,o),
(3,80,cs),
(3,90,o),
(4,98,o),
(6,107,cs),
(15,149,o),
(31,184,o),
(52,212,c),
(70,237,o),
(81,244,o),
(81,203,c),
(78,180,o),
(87,157,o),
(104,152,cs),
(116,148,o),
(128,146,o),
(143,146,cs),
(169,146,o),
(194,152,o),
(215,157,cs),
(264,169,o),
(314,191,o),
(356,211,cs),
(369,217,o),
(380,222,o),
(387,227,cs),
(389,229,o),
(390,228,o),
(392,230,c),
(366,239,o),
(335,243,o),
(300,245,cs),
(275,246,o),
(255,246,o),
(236,250,c),
(204,253,o),
(235,309,o),
(242,323,cs),
(248,336,o),
(254,347,o),
(261,360,cs),
(279,394,ls),
(281,398,o),
(286,401,o),
(292,399,cs),
(320,393,o),
(352,390,o),
(388,387,cs),
(434,384,o),
(466,374,o),
(486,358,cs),
(495,351,o),
(500,341,o),
(500,328,cs),
(500,321,o),
(499,313,o),
(497,304,c),
(485,269,o),
(465,232,o),
(438,193,c),
(438,193,l),
(387,120,o),
(324,73,o),
(244,38,cs),
(195,17,o),
(150,0,o),
(91,0,cs)
);
}
);
width = 291;
}
);
},
{
glyphname = "hah-ar.medi.feh";
layers = (
{
anchors = (
{
name = bottom;
pos = (510,-83);
},
{
name = bottom.mark;
pos = (457,-110);
},
{
name = entry;
pos = (387,279);
},
{
name = exit;
},
{
name = top;
pos = (365,650);
},
{
name = top.mark;
pos = (396,633);
}
);
layerId = "1467EB51-6BD4-4CFC-AEAA-3E4EB1A95CFA";
shapes = (
{
closed = 1;
nodes = (
(169,2,o),
(105,-3,o),
(56,2,cs),
(28,5,o),
(1,19,o),
(0,48,c),
(13,99,o),
(26,142,o),
(39,176,c),
(56,116,o),
(177,126,o),
(248,136,cs),
(369,153,o),
(466,184,o),
(556,232,cs),
(562,235,o),
(564,238,o),
(566,241,c),
(559,265,o),
(492,268,o),
(456,269,cs),
(426,270,o),
(405,271,o),
(392,274,cs),
(386,275,o),
(385,281,o),
(391,293,c),
(407,332,o),
(426,367,o),
(444,405,c),
(445,405,l),
(473,398,o),
(518,396,o),
(551,391,cs),
(583,386,o),
(623,380,o),
(642,365,cs),
(650,358,o),
(653,347,o),
(649,331,cs),
(640,291,o),
(615,249,o),
(594,218,cs),
(537,132,o),
(471,77,o),
(364,44,cs),
(329,33,o),
(290,24,o),
(246,16,cs)
);
}
);
width = 438;
},
{
anchors = (
{
name = bottom;
pos = (510,-83);
},
{
name = bottom.mark;
pos = (457,-110);
},
{
name = entry;
pos = (387,279);
},
{
name = exit;
},
{
name = top;
pos = (365,650);
},
{
name = top.mark;
pos = (396,633);
}
);
layerId = "EF321139-F770-433D-B2B6-C3EFA1B16465";
shapes = (
{
closed = 1;
nodes = (
(396,48,o),
(329,30,o),
(245,16,cs),
(197,7,o),
(150,0,o),
(98,0,cs),
(45,0,o),
(-4,9,o),
(-6,60,c),
(6,105,o),
(17,148,o),
(32,186,cs),
(34,190,o),
(38,194,o),
(44,194,cs),
(50,194,o),
(53,190,o),
(55,185,cs),
(62,156,o),
(112,148,o),
(155,148,cs),
(272,148,o),
(373,177,o),
(459,210,cs),
(486,220,o),
(512,233,o),
(536,246,c),
(533,248,o),
(528,249,o),
(520,251,cs),
(481,260,o),
(422,256,o),
(382,265,c),
(366,267,o),
(363,279,o),
(372,300,c),
(383,326,o),
(395,350,o),
(408,375,cs),
(425,409,l),
(432,419,o),
(446,413,o),
(461,411,cs),
(470,410,o),
(481,408,o),
(492,407,cs),
(536,403,o),
(581,397,o),
(615,383,cs),
(632,376,o),
(646,367,o),
(646,345,cs),
(646,339,o),
(646,333,o),
(644,328,c),
(638,296,o),
(621,269,o),
(607,244,cs),
(570,177,o),
(521,120,o),
(455,83,c),
(456,83,l)
);
}
);
width = 438;
}
);
},
{
glyphname = "hah-ar.medi.hah";
layers = (
{
anchors = (
{
name = bottom;
pos = (444,101);
},
{
name = bottom.mark;
pos = (435,79);
},
{
name = entry;
pos = (208,389);
},
{
name = exit;
},
{
name = top;
pos = (189,716);
},
{
name = top.mark;
pos = (264,743);
}
);
layerId = "1467EB51-6BD4-4CFC-AEAA-3E4EB1A95CFA";
shapes = (
{
closed = 1;
nodes = (
(254,281,o),
(306,305,o),
(380,343,c),
(386,347,o),
(390,351,o),
(391,353,c),
(388,361,o),
(377,367,o),
(358,372,cs),
(337,377,o),
(310,379,o),
(280,380,cs),
(250,381,o),
(228,383,o),
(215,386,cs),
(209,387,o),
(209,394,o),
(214,405,cs),
(230,445,o),
(250,479,o),
(268,517,c),
(269,517,l),
(292,511,o),
(326,507,o),
(371,503,cs),
(416,499,o),
(448,491,o),
(466,477,cs),
(478,468,o),
(479,454,o),
(472,436,cs),
(450,382,o),
(428,348,o),
(399,302,c),
(366,252,o),
(329,213,o),
(286,186,c),
(238,154,o),
(176,137,o),
(124,109,cs),
(77,84,o),
(38,51,o),
(12,2,c),
(9,-1,o),
(0,-1,o),
(0,5,c),
(14,70,o),
(28,119,o),
(44,152,cs),
(56,178,o),
(71,199,o),
(88,215,cs),
(113,238,o),
(142,253,o),
(174,261,cs)
);
}
);
width = 268;
},
{
anchors = (
{
name = bottom;
pos = (444,101);
},
{
name = bottom.mark;
pos = (435,79);
},
{
name = entry;
pos = (211,389);
},
{
name = exit;
},
{
name = top;
pos = (189,716);
},
{
name = top.mark;
pos = (264,743);
}
);
layerId = "EF321139-F770-433D-B2B6-C3EFA1B16465";
shapes = (
{
closed = 1;
nodes = (
(242,295,o),
(303,321,o),
(365,354,c),
(365,354,l),
(360,356,o),
(353,357,o),
(347,359,cs),
(327,364,o),
(302,367,o),
(274,368,cs),
(245,369,o),
(224,371,o),
(210,374,c),
(210,373,l),
(195,376,o),
(192,387,o),
(200,407,cs),
(216,445,o),
(234,481,o),
(253,517,cs),
(255,520,o),
(261,525,o),
(267,523,cs),
(295,516,o),
(327,513,o),
(363,510,cs),
(409,506,o),
(441,497,o),
(461,482,c),
(471,474,o),
(476,463,o),
(476,451,cs),
(476,443,o),
(474,436,o),
(471,428,cs),
(459,399,o),
(447,374,o),
(432,350,cs),
(425,338,o),
(417,326,o),
(410,314,cs),
(400,297,l),
(353,226,o),
(292,173,o),
(207,142,cs),
(130,114,o),
(62,76,o),
(25,7,c),
(15,-3,o),
(-8,1,o),
(-8,17,c),
(4,73,o),
(17,123,o),
(37,164,c),
(36,164,l),
(63,220,o),
(107,259,o),
(169,275,cs)
);
}
);
width = 268;
}
);
},
{
glyphname = "hah-ar.medi.heh";
layers = (
{
anchors = (
{
name = bottom;
pos = (461,-13);
},
{
name = bottom.mark;
pos = (475,-35);
},
{
name = entry;
pos = (396,374);
},
{
name = exit;
},
{
name = top;
pos = (439,738);
},
{
name = top.mark;
pos = (387,694);
}
);
layerId = "1467EB51-6BD4-4CFC-AEAA-3E4EB1A95CFA";
shapes = (
{
closed = 1;
nodes = (
(106,-122,o),
(75,-186,o),
(44,-248,cs),
(25,-288,o),
(12,-299,o),
(6,-282,cs),
(0,-265,o),
(-1,-235,o),
(2,-194,cs),
(5,-156,l),
(5,-155,l),
(58,-90,l),
(58,-91,l),
(54,-121,l),
(62,-105,l),
(63,-103,l),
(125,22,o),
(202,167,o),
(320,232,cs),
(365,257,o),
(411,270,o),
(466,286,cs),
(519,301,o),
(516,302,o),
(565,328,cs),
(571,331,o),
(574,333,o),
(575,336,c),
(573,344,o),
(563,350,o),
(543,355,cs),
(522,360,o),
(495,363,o),
(465,364,cs),
(435,365,o),
(413,367,o),
(400,370,c),
(394,371,o),
(394,377,o),
(399,389,cs),
(415,428,o),
(435,463,o),
(453,501,c),
(454,501,l),
(476,495,o),
(511,491,o),
(556,487,cs),
(601,483,o),
(633,475,o),
(651,461,cs),
(663,452,o),
(664,438,o),
(657,420,cs),
(635,366,o),
(613,331,o),
(584,286,cs),
(548,230,o),
(503,190,o),
(444,162,c),
(284,88,o),
(184,17,o),
(146,-51,cs)
);
}
);
width = 453;
},
{
anchors = (
{
name = bottom;
pos = (461,-13);
},
{
name = bottom.mark;
pos = (475,-35);
},
{
name = entry;
pos = (396,374);
},
{
name = exit;
},
{
name = top;
pos = (439,738);
},
{
name = top.mark;
pos = (387,694);
}
);
layerId = "EF321139-F770-433D-B2B6-C3EFA1B16465";
shapes = (
{
closed = 1;
nodes = (
(61,-228,o),
(61,-230,o),
(59,-232,cs),
(44,-264,o),
(17,-308,o),
(0,-265,cs),
(-5,-251,o),
(-6,-232,o),
(-6,-212,cs),
(-6,-201,o),
(-5,-188,o),
(-4,-175,cs),
(-1,-133,l),
(53,-69,ls),
(56,-65,o),
(59,-63,o),
(64,-64,c),
(113,32,o),
(169,132,o),
(245,201,cs),
(266,220,o),
(288,235,o),
(310,247,c),
(352,271,o),
(393,282,o),
(443,296,c),
(453,299,l),
(499,312,o),
(510,318,o),
(545,338,c),
(540,340,o),
(534,343,o),
(527,344,cs),
(500,350,o),
(452,352,o),
(417,354,cs),
(407,355,o),
(398,355,o),
(391,357,c),
(357,360,o),
(392,418,o),
(398,430,cs),
(404,443,o),
(410,455,o),
(417,468,cs),
(434,501,ls),
(436,505,o),
(441,509,o),
(447,507,cs),
(475,500,o),
(506,498,o),
(543,495,cs),
(589,492,o),
(622,482,o),
(642,467,c),
(651,459,o),
(657,451,o),
(657,436,cs),
(657,429,o),
(654,421,o),
(651,413,cs),
(633,368,o),
(614,333,o),
(589,295,c),
(580,282,ls),
(544,227,o),
(498,185,o),
(439,158,cs),
(287,88,o),
(193,21,o),
(157,-43,c),
(121,-104,o),
(90,-164,o),
(61,-226,c),
(62,-225,l)
);
}
);
width = 453;
}
);
},
{
glyphname = "hah-ar.medi.heh.ragaa";
layers = (
{
anchors = (
{
name = bottom;
pos = (372,-99);
},
{
name = bottom.mark;
pos = (385,-121);
},
{
name = entry;
pos = (306,288);
},
{
name = exit;
},
{
name = top;
pos = (350,653);
},
{
name = top.mark;
pos = (297,609);
}
);
layerId = "1467EB51-6BD4-4CFC-AEAA-3E4EB1A95CFA";
shapes = (
{
closed = 1;
nodes = (
(491,149,o),
(442,107,o),
(402,90,cs),
(354,70,o),
(294,60,o),
(250,42,cs),
(180,14,o),
(138,-33,o),
(106,-105,cs),
(95,-130,o),
(85,-155,o),
(73,-182,c),
(62,-208,o),
(52,-228,o),
(44,-248,cs),
(25,-288,o),
(12,-299,o),
(6,-282,cs),
(-2,-260,o),
(-3,-231,o),
(2,-194,cs),
(8,-155,l),
(59,-90,l),
(59,-91,l),
(55,-120,l),
(62,-105,l),
(63,-103,l),
(84,-62,o),
(104,-23,o),
(122,12,cs),
(156,77,o),
(213,133,o),
(283,161,cs),
(315,174,o),
(349,183,o),
(384,189,cs),
(425,196,o),
(460,207,o),
(489,222,c),
(490,222,l),
(492,223,o),
(494,225,o),
(496,226,c),
(454,250,o),
(368,278,o),
(312,288,cs),
(307,289,o),
(307,294,o),
(312,304,cs),
(334,358,o),
(337,366,o),
(358,407,c),
(421,396,o),
(539,361,o),
(584,333,cs),
(599,324,o),
(599,305,o),
(583,277,cs),
(553,225,o),
(552,221,o),
(520,184,cs)
);
}
);
width = 391;
},
{
anchors = (
{
name = bottom;
pos = (354,-82);
},
{
name = bottom.mark;
pos = (368,-104);
},
{
name = entry;
pos = (301,305);
},
{
name = exit;
},
{
name = top;
pos = (333,670);
},
{
name = top.mark;
pos = (280,626);
}
);
layerId = "EF321139-F770-433D-B2B6-C3EFA1B16465";
shapes = (
{
closed = 1;
nodes = (
(554,251,o),
(531,214,o),
(495,179,cs),
(452,138,o),
(406,108,o),
(340,92,cs),
(255,73,o),
(195,46,o),
(153,-15,cs),
(142,-31,o),
(131,-49,o),
(122,-70,c),
(107,-111,o),
(86,-156,o),
(67,-196,c),
(66,-200,l),
(65,-202,l),
(64,-202,l),
(28,-275,o),
(5,-274,o),
(-3,-218,cs),
(-4,-210,o),
(-4,-200,o),
(-4,-190,cs),
(-4,-177,o),
(-3,-159,o),
(-2,-148,cs),
(1,-107,l),
(55,-42,l),
(59,-38,o),
(62,-36,o),
(67,-37,c),
(114,54,ls),
(164,151,o),
(251,211,o),
(376,232,cs),
(406,237,o),
(433,244,o),
(458,255,c),
(440,263,o),
(417,271,o),
(397,278,c),
(368,287,o),
(337,296,o),
(306,302,c),
(283,305,o),
(280,318,o),
(293,337,c),
(346,445,ls),
(347,447,o),
(355,451,o),
(359,450,cs),
(395,444,o),
(452,424,o),
(484,412,cs),
(527,396,o),
(558,381,o),
(578,368,cs),
(587,362,o),
(594,353,o),
(594,338,cs),
(594,328,o),
(589,314,o),
(580,297,cs)
);
}
);
width = 391;
}
);
},
{
glyphname = "hah-ar.medi.meem";
layers = (
{
anchors = (
{
name = bottom;
pos = (378,-4);
},
{
name = bottom.mark;
pos = (435,4);
},
{
name = entry;
pos = (249,389);
},
{
name = exit;
pos = (-10,-24);
},
{
name = top;
pos = (202,738);
},
{
name = top.mark;
pos = (229,725);
}
);
layerId = "1467EB51-6BD4-4CFC-AEAA-3E4EB1A95CFA";
shapes = (
{
closed = 1;
nodes = (
(15,-1,o),
(12,0,o),
(11,1,c),
(0,2,l),
(10,24,o),
(15,35,o),
(21,60,cs),
(37,120,o),
(56,164,o),
(77,192,cs),
(99,221,o),
(134,244,o),
(182,261,cs),
(226,277,o),
(269,288,o),
(319,303,cs),
(375,319,o),
(367,317,o),
(417,344,cs),
(423,347,o),
(426,350,o),
(428,353,c),
(417,389,o),
(291,378,o),
(253,387,cs),
(247,388,o),
(247,394,o),
(252,405,cs),
(269,445,o),
(287,478,o),
(306,517,c),
(307,518,l),
(330,512,o),
(364,508,o),
(409,504,cs),
(454,500,o),
(486,492,o),
(504,478,c),
(516,469,o),
(518,454,o),
(510,436,cs),
(487,382,o),
(466,348,o),
(437,303,cs),
(389,230,o),
(324,186,o),
(239,153,cs),
(190,134,o),
(127,106,o),
(90,82,c),
(65,64,o),
(45,41,o),
(29,16,cs),
(25,10,o),
(23,5,o),
(21,0,c),
(18,0,l)
);
}
);
width = 306;
},
{
anchors = (
{
name = bottom;
pos = (378,-4);
},
{
name = bottom.mark;
pos = (435,4);
},
{
name = entry;
pos = (249,389);
},
{
name = exit;
pos = (-10,-24);
},
{
name = top;
pos = (202,738);
},
{
name = top.mark;
pos = (229,725);
}
);
layerId = "EF321139-F770-433D-B2B6-C3EFA1B16465";
shapes = (
{
closed = 1;
nodes = (
(17,-1,o),
(15,0,o),
(11,1,c),
(1,2,o),
(-12,5,o),
(-6,19,cs),
(3,39,o),
(8,50,o),
(14,73,cs),
(30,132,o),
(48,175,o),
(69,204,cs),
(98,242,o),
(150,270,o),
(210,287,cs),
(251,299,o),
(298,312,o),
(338,325,cs),
(365,333,o),
(367,336,o),
(401,354,c),
(389,361,o),
(369,363,o),
(352,365,cs),
(321,368,o),
(276,367,o),
(248,374,cs),
(232,377,o),
(231,391,o),
(237,408,c),
(248,433,o),
(260,457,o),
(272,481,c),
(271,481,l),
(277,493,o),
(284,506,o),
(290,518,cs),
(292,521,o),
(297,525,o),
(303,523,cs),
(331,516,o),
(363,513,o),
(400,510,cs),
(445,507,o),
(494,499,o),
(510,469,cs),
(513,464,o),
(514,458,o),
(514,452,cs),
(514,435,o),
(503,418,o),
(498,406,cs),
(483,370,o),
(465,342,o),
(445,311,c),
(437,298,l),
(404,250,o),
(361,209,o),
(309,181,cs),
(241,146,o),
(160,122,o),
(98,81,c),
(75,64,o),
(56,44,o),
(42,21,c),
(42,21,l),
(35,7,ls),
(33,3,o),
(28,-1,o),
(22,0,c),
(22,0,l)
);
}
);
width = 306;
}
);
},
{
glyphname = "hah-ar.medi.ragaa";
layers = (
{
anchors = (
{
name = bottom;
pos = (462,167);
},
{
name = bottom.mark;
pos = (301,-86);
},
{
name = entry;
pos = (149,340);
},
{
name = exit;
},
{
name = top;
pos = (167,693);
},
{
name = top.mark;
pos = (344,682);
}
);
layerId = "1467EB51-6BD4-4CFC-AEAA-3E4EB1A95CFA";
shapes = (
{
closed = 1;
nodes = (
(324,277,o),
(328,280,o),
(329,283,c),
(328,289,o),
(323,293,o),
(315,297,c),
(264,315,o),
(210,324,o),
(154,337,cs),
(148,338,o),
(148,344,o),
(153,356,cs),
(170,395,o),
(189,430,o),
(207,468,c),
(208,468,l),
(231,462,o),
(264,454,o),
(309,444,cs),
(354,434,o),
(386,422,o),
(404,408,cs),
(410,404,o),
(413,397,o),
(414,390,cs),
(415,361,o),
(402,345,o),
(393,326,cs),
(377,292,o),
(357,264,o),
(337,233,cs),
(315,199,o),
(296,173,o),
(280,155,cs),
(249,122,o),
(217,99,o),
(175,84,cs),
(155,77,o),
(132,63,o),
(104,42,c),
(88,28,o),
(59,13,o),
(42,0,c),
(0,30,l),
(2,35,o),
(3,39,o),
(4,42,cs),
(7,48,o),
(21,82,o),
(24,88,cs),
(44,130,o),
(85,165,o),
(146,194,c),
(235,235,o),
(227,226,o),
(318,274,cs)
);
}
);
width = 198;
},
{
anchors = (
{
name = bottom;
pos = (462,167);
},
{
name = bottom.mark;
pos = (301,-86);
},
{
name = entry;
pos = (149,340);
},
{
name = exit;
},
{
name = top;
pos = (167,693);
},
{
name = top.mark;
pos = (344,682);
}
);
layerId = "EF321139-F770-433D-B2B6-C3EFA1B16465";
shapes = (
{
closed = 1;
nodes = (
(182,231,o),
(211,240,o),
(250,260,cs),
(264,267,o),
(282,277,o),
(303,288,c),
(255,304,o),
(201,313,o),
(149,326,c),
(150,325,l),
(117,331,o),
(148,382,o),
(156,398,cs),
(168,422,o),
(181,446,o),
(192,470,cs),
(194,474,o),
(201,478,o),
(207,476,cs),
(258,464,o),
(318,453,o),
(363,436,cs),
(379,430,o),
(392,423,o),
(401,416,c),
(408,410,o),
(414,401,o),
(415,389,cs),
(416,362,o),
(407,344,o),
(396,327,cs),
(395,326,o),
(395,324,o),
(394,321,c),
(379,289,o),
(363,266,o),
(345,238,c),
(345,238,l),
(325,203,o),
(299,171,o),
(282,153,c),
(282,154,l),
(266,137,o),
(251,123,o),
(236,112,c),
(204,91,o),
(179,86,o),
(147,67,cs),
(136,60,o),
(124,51,o),
(111,42,c),
(103,34,o),
(91,28,o),
(81,22,c),
(82,22,l),
(61,9,l),
(62,10,l),
(53,3,ls),
(49,0,o),
(42,-1,o),
(38,2,cs),
(-3,31,ls),
(-6,33,o),
(-10,39,o),
(-8,45,cs),
(-4,58,l),
(2,73,o),
(9,88,o),
(15,103,c),
(36,146,o),
(77,181,o),
(139,211,c)
);
}
);
width = 198;
}
);
},
{
glyphname = "hah-ar.medi.reh";
layers = (
{
anchors = (
{
name = bottom;
pos = (325,-48);
},
{
name = bottom.mark;
pos = (356,-79);
},
{
name = entry;
pos = (222,333);
},
{
name = exit;
},
{
name = top;
pos = (163,664);
},
{
name = top.mark;
pos = (189,589);
}
);
layerId = "1467EB51-6BD4-4CFC-AEAA-3E4EB1A95CFA";
shapes = (
{
closed = 1;
nodes = (
(398,292,o),
(401,294,o),
(402,297,c),
(396,321,o),
(328,324,o),
(292,325,cs),
(262,326,o),
(240,328,o),
(227,331,cs),
(221,332,o),
(221,338,o),
(226,350,cs),
(243,389,o),
(262,424,o),
(280,462,c),
(280,462,l),
(303,456,o),
(337,452,o),
(382,448,cs),
(427,444,o),
(460,436,o),
(478,422,cs),
(490,413,o),
(491,399,o),
(484,381,cs),
(462,327,o),
(440,292,o),
(411,247,cs),
(359,167,o),
(297,132,o),
(199,95,cs),
(142,73,o),
(72,51,o),
(34,13,c),
(23,-4,o),
(13,-6,o),
(4,7,cs),
(-5,20,o),
(-1,36,o),
(14,54,c),
(14,55,l),
(27,82,o),
(31,112,o),
(47,135,cs),
(61,156,o),
(103,174,o),
(131,185,cs),
(186,206,o),
(243,220,o),
(296,243,cs),
(323,254,o),
(356,269,o),
(392,288,c)
);
}
);
width = 279;
},
{
anchors = (
{
name = bottom;
pos = (325,-48);
},
{
name = bottom.mark;
pos = (356,-79);
},
{
name = entry;
pos = (222,333);
},
{
name = exit;
},
{
name = top;
pos = (163,664);
},
{
name = top.mark;
pos = (189,589);
}
);
layerId = "EF321139-F770-433D-B2B6-C3EFA1B16465";
shapes = (
{
closed = 1;
nodes = (
(4,-1,o),
(-9,18,o),
(-9,34,cs),
(-9,50,o),
(-1,60,o),
(7,71,c),
(19,97,o),
(24,127,o),
(40,148,c),
(56,174,o),
(98,191,o),
(127,202,cs),
(142,208,o),
(155,212,o),
(169,217,cs),
(196,226,l),
(263,245,o),
(319,270,o),
(376,300,c),
(350,309,o),
(320,312,o),
(285,314,c),
(257,314,o),
(235,316,o),
(221,320,c),
(222,320,l),
(190,325,o),
(220,376,o),
(228,391,cs),
(234,403,o),
(241,416,o),
(247,428,c),
(246,428,l),
(252,440,o),
(258,451,o),
(264,463,cs),
(266,467,o),
(272,471,o),
(278,469,cs),
(306,463,o),
(338,460,o),
(375,457,cs),
(416,454,o),
(450,447,o),
(473,429,cs),
(483,421,o),
(488,410,o),
(488,398,cs),
(488,391,o),
(485,384,o),
(482,375,cs),
(464,331,o),
(445,298,o),
(422,261,c),
(422,261,l),
(379,192,o),
(330,148,o),
(255,114,cs),
(239,107,o),
(221,99,o),
(201,92,cs),
(164,79,o),
(127,62,o),
(92,47,cs),
(73,39,o),
(62,31,o),
(47,18,c),
(39,6,o),
(30,-1,o),
(20,-1,cs)
);
}
);
width = 279;
}
);
},
{
glyphname = "hah-ar.medi.sad";
layers = (
{
anchors = (
{
name = bottom;
pos = (483,-149);
},
{
name = bottom.mark;
pos = (483,-114);
},
{
name = entry;
pos = (484,297);
},
{
name = exit;
},
{
name = top;
pos = (492,694);
},
{
name = top.mark;
pos = (422,606);
}
);
layerId = "1467EB51-6BD4-4CFC-AEAA-3E4EB1A95CFA";
shapes = (
{
closed = 1;
nodes = (
(40,13,o),
(17,31,o),
(10,61,cs),
(3,91,o),
(5,123,o),
(16,159,cs),
(27,195,o),
(42,229,o),
(62,263,cs),
(82,297,o),
(97,320,o),
(107,334,cs),
(109,336,o),
(111,338,o),
(114,337,cs),
(117,336,o),
(117,334,o),
(115,330,cs),
(81,262,o),
(73,214,o),
(92,186,cs),
(137,119,o),
(256,131,o),
(357,154,cs),
(443,174,o),
(521,198,o),
(594,224,cs),
(612,230,o),
(631,239,o),
(653,251,c),
(659,256,o),
(663,260,o),
(664,261,c),
(662,269,o),
(651,275,o),
(631,280,cs),
(610,285,o),
(583,288,o),
(553,289,cs),
(523,290,o),
(502,291,o),
(489,294,c),
(482,295,o),
(482,302,o),
(488,313,c),
(504,353,o),
(523,387,o),
(542,425,c),
(542,425,l),
(564,419,o),
(599,415,o),
(644,411,cs),
(689,407,o),
(721,399,o),
(739,385,cs),
(751,376,o),
(753,362,o),
(746,344,cs),
(739,326,o),
(733,312,o),
(728,303,cs),
(672,188,o),
(580,105,o),
(453,55,cs),
(326,5,o),
(202,-11,o),
(83,7,cs)
);
}
);
width = 541;
},
{
anchors = (
{
name = bottom;
pos = (483,-149);
},
{
name = bottom.mark;
pos = (483,-114);
},
{
name = entry;
pos = (484,297);
},
{
name = exit;
},
{
name = top;
pos = (492,694);
},
{
name = top.mark;
pos = (422,606);
}
);
layerId = "EF321139-F770-433D-B2B6-C3EFA1B16465";
shapes = (
{
closed = 1;
nodes = (
(145,0,o),
(115,3,o),
(85,7,c),
(85,7,l),
(30,15,o),
(0,42,o),
(0,104,cs),
(0,128,o),
(5,148,o),
(11,168,cs),
(31,231,o),
(65,293,o),
(100,342,cs),
(106,350,o),
(126,357,o),
(131,342,cs),
(132,338,o),
(131,333,o),
(127,326,cs),
(107,286,o),
(98,254,o),
(98,229,cs),
(98,217,o),
(100,206,o),
(105,198,c),
(127,168,o),
(166,156,o),
(219,156,cs),
(299,156,o),
(369,175,o),
(434,194,cs),
(463,202,o),
(490,211,o),
(516,219,c),
(537,227,l),
(572,238,o),
(602,248,o),
(632,265,c),
(619,273,o),
(600,274,o),
(581,276,cs),
(549,279,o),
(505,278,o),
(477,285,c),
(458,288,o),
(458,303,o),
(467,320,c),
(480,352,o),
(496,380,o),
(511,411,cs),
(515,418,o),
(520,438,o),
(533,434,cs),
(554,429,o),
(586,425,o),
(630,421,c),
(676,417,o),
(708,408,o),
(728,393,cs),
(738,385,o),
(743,375,o),
(743,362,cs),
(743,353,o),
(741,347,o),
(738,340,cs),
(731,322,o),
(725,308,o),
(720,299,cs),
(665,185,o),
(574,104,o),
(448,54,c),
(366,23,o),
(282,0,o),
(178,0,cs)
);
}
);
width = 541;
}
);
},
{
glyphname = "hah-ar.medi.yeh";
layers = (
{
anchors = (
{
name = bottom;
pos = (431,48);
},
{
name = bottom.mark;
pos = (382,9);
},
{
name = entry;
pos = (230,374);
},
{
name = exit;
pos = (10,49);
},
{
name = top;
pos = (250,729);
},
{
name = top.mark;
pos = (272,712);
}
);
layerId = "1467EB51-6BD4-4CFC-AEAA-3E4EB1A95CFA";
shapes = (
{
closed = 1;
nodes = (
(9,-1,o),
(0,-1,o),
(0,5,c),
(13,68,o),
(27,116,o),
(42,148,cs),
(72,213,o),
(109,240,o),
(177,263,cs),
(248,287,o),
(323,308,o),
(395,331,cs),
(404,334,o),
(409,336,o),
(410,338,c),
(408,346,o),
(397,352,o),
(377,357,cs),
(356,362,o),
(330,365,o),
(300,366,cs),
(270,367,o),
(248,369,o),
(235,372,c),
(229,373,o),
(229,379,o),
(234,391,cs),
(250,430,o),
(270,464,o),
(288,502,c),
(289,502,l),
(311,496,o),
(345,493,o),
(390,489,cs),
(435,485,o),
(467,476,o),
(485,462,cs),
(497,453,o),
(499,439,o),
(492,421,cs),
(470,368,o),
(461,353,o),
(426,299,cs),
(405,266,o),
(386,243,o),
(370,230,cs),
(310,180,o),
(233,156,o),
(157,124,cs),
(94,97,o),
(42,58,o),
(12,2,c)
);
}
);
width = 287;
},
{
anchors = (
{
name = bottom;
pos = (431,48);
},
{
name = bottom.mark;
pos = (382,9);
},
{
name = entry;
pos = (230,374);
},
{
name = exit;
pos = (10,49);
},
{
name = top;
pos = (250,729);
},
{
name = top.mark;
pos = (272,712);
}
);
layerId = "EF321139-F770-433D-B2B6-C3EFA1B16465";
shapes = (
{
closed = 1;
nodes = (
(17,-3,o),
(-8,-1,o),
(-8,17,c),
(11,107,o),
(33,190,o),
(91,235,c),
(118,255,o),
(157,274,o),
(197,285,cs),
(206,287,o),
(215,290,o),
(225,293,cs),
(262,304,ls),
(297,314,o),
(330,325,o),
(366,337,c),
(376,340,ls),
(380,341,o),
(380,341,o),
(380,341,c),
(347,352,o),
(298,352,o),
(256,355,cs),
(246,356,o),
(236,357,o),
(229,359,c),
(214,361,o),
(211,373,o),
(219,394,c),
(228,415,o),
(240,438,o),
(250,458,cs),
(272,502,ls),
(274,505,o),
(280,511,o),
(286,509,cs),
(314,502,o),
(345,499,o),
(382,496,cs),
(427,493,o),
(460,483,o),
(480,468,c),
(490,460,o),
(495,450,o),
(495,438,cs),
(495,430,o),
(493,422,o),
(490,414,cs),
(467,359,o),
(435,301,o),
(396,252,cs),
(354,200,o),
(284,170,o),
(219,145,c),
(210,141,l),
(210,142,l),
(176,129,o),
(136,111,o),
(107,94,c),
(74,73,o),
(45,43,o),
(26,8,c)
);
}
);
width = 287;
}
);
},
{
glyphname = "hah-ar.init";
layers = (
{
anchors = (
{
name = bottom;
pos = (264,-141);
},
{
name = bottom.mark;
pos = (303,-185);
},
{
name = exit;
},
{
name = top;
pos = (334,545);
},
{
name = top.mark;
pos = (347,554);
}
);
layerId = "1467EB51-6BD4-4CFC-AEAA-3E4EB1A95CFA";
shapes = (
{
closed = 1;
nodes = (
(364,221,o),
(351,239,o),
(337,250,cs),
(327,258,o),
(317,261,o),
(308,261,cs),
(298,261,o),
(289,257,o),
(280,249,cs),
(253,225,o),
(241,193,o),
(227,158,c),
(369,186,ls),
(373,187,o),
(375,189,o),
(375,192,cs),
(375,194,o),
(375,196,o),
(374,198,cs)
);
},
{
closed = 1;
nodes = (
(22,124,l),
(82,135,o),
(142,145,o),
(202,156,c),
(229,231,o),
(271,326,o),
(332,368,cs),
(344,376,o),
(355,380,o),
(368,380,cs),
(405,380,o),
(432,353,o),
(446,327,cs),
(457,306,o),
(467,283,o),
(474,258,c),
(483,248,o),
(494,243,o),
(506,243,cs),
(514,243,o),
(523,245,o),
(532,250,c),
(468,112,l),
(369,81,o),
(285,67,o),
(180,40,c),
(174,27,o),
(171,-12,o),
(151,-12,cs),
(147,-12,o),
(145,-10,o),
(145,-6,cs),
(145,4,o),
(151,22,o),
(153,32,c),
(137,29,o),
(118,25,o),
(97,21,c),
(97,20,l),
(74,16,o),
(49,12,o),
(27,6,cs),
(25,6,o),
(24,5,o),
(22,5,c),
(22,5,l),
(14,3,o),
(8,1,o),
(0,0,c),
(21,124,l)
);
}
);
width = 558;
},
{
anchors = (
{
name = bottom;
pos = (264,-141);
},
{
name = bottom.mark;
pos = (303,-185);
},
{
name = exit;
},
{
name = top;
pos = (334,545);
},
{
name = top.mark;
pos = (347,554);
}
);
layerId = "EF321139-F770-433D-B2B6-C3EFA1B16465";
shapes = (
{
closed = 1;
nodes = (
(283,252,o),
(266,228,o),
(259,215,cs),
(253,204,o),
(248,193,o),
(243,181,c),
(353,202,l),
(345,219,o),
(336,233,o),
(323,244,c),
(323,244,l),
(315,250,o),
(308,252,o),
(302,252,cs)
);
},
{
closed = 1;
nodes = (
(15,138,o),
(20,144,o),
(26,144,c),
(28,144,l),
(26,144,l),
(84,154,o),
(133,163,o),
(191,174,c),
(210,223,o),
(231,275,o),
(259,316,c),
(275,341,o),
(294,361,o),
(318,377,cs),
(331,386,o),
(345,391,o),
(360,391,cs),
(428,391,o),
(458,321,o),
(474,268,c),
(480,262,o),
(486,259,o),
(493,259,cs),
(499,259,o),
(506,260,o),
(513,264,cs),
(523,269,o),
(533,260,o),
(529,249,c),
(467,116,ls),
(466,115,o),
(461,110,o),
(460,109,cs),
(372,82,o),
(279,64,o),
(187,41,c),
(185,35,o),
(184,28,o),
(182,21,cs),
(179,5,o),
(169,-12,o),
(154,-12,cs),
(153,-12,o),
(152,-12,o),
(151,-12,cs),
(139,-12,o),
(133,-6,o),
(133,6,cs),
(133,7,o),
(133,7,o),
(133,9,cs),
(133,10,o),
(133,11,o),
(134,13,c),
(134,12,l),
(137,28,l),
(132,27,o),
(127,25,o),
(121,24,cs),
(113,23,o),
(112,22,o),
(104,21,c),
(102,20,o),
(101,20,o),
(100,20,cs),
(72,15,o),
(34,5,o),
(7,0,cs),
(-1,-1,o),
(-8,6,o),
(-7,14,cs),
(14,133,ls)
);
}
);
width = 558;
}
);
},
{
glyphname = "hah-ar.init.ain";
layers = (
{
anchors = (
{
name = bottom;
pos = (338,-149);
},
{
name = bottom.mark;
pos = (404,-132);
},
{
name = exit;
},
{
name = top;
pos = (422,562);
},
{
name = top.mark;
pos = (400,562);
}
);
layerId = "1467EB51-6BD4-4CFC-AEAA-3E4EB1A95CFA";
shapes = (
{
closed = 1;
nodes = (
(294,220,o),
(335,314,o),
(396,356,cs),
(417,370,o),
(440,372,o),
(464,360,cs),
(504,340,o),
(525,294,o),
(539,246,c),
(554,230,o),
(572,228,o),
(596,238,c),
(532,101,l),
(433,69,o),
(350,53,o),
(245,26,c),
(238,12,o),
(235,-17,o),
(219,-23,cs),
(200,-30,o),
(215,6,o),
(217,18,c),
(156,5,o),
(128,-6,o),
(56,1,cs),
(29,4,o),
(1,18,o),
(0,48,c),
(12,96,o),
(25,138,o),
(39,175,c),
(59,101,o),
(200,135,o),
(267,145,c)
);
},
{
closed = 1;
nodes = (
(425,216,o),
(388,276,o),
(344,237,cs),
(317,213,o),
(306,181,o),
(292,146,c),
(433,174,ls),
(439,175,o),
(441,179,o),
(438,186,cs)
);
}
);
width = 625;
},
{
anchors = (
{
name = bottom;
pos = (338,-149);
},
{
name = bottom.mark;
pos = (404,-132);
},
{
name = exit;
},
{
name = top;
pos = (422,562);
},
{
name = top.mark;
pos = (400,562);
}
);
layerId = "EF321139-F770-433D-B2B6-C3EFA1B16465";
shapes = (
{
closed = 1;
nodes = (
(162,6,o),
(139,0,o),
(97,0,cs),
(45,0,o),
(-7,8,o),
(-7,59,c),
(4,104,o),
(16,147,o),
(31,186,cs),
(33,190,o),
(37,193,o),
(43,193,cs),
(49,193,o),
(52,190,o),
(54,185,cs),
(58,171,o),
(69,161,o),
(82,156,c),
(118,145,o),
(167,147,o),
(207,154,cs),
(254,162,l),
(282,240,o),
(318,324,o),
(380,366,c),
(380,365,l),
(393,374,o),
(407,379,o),
(422,379,cs),
(434,379,o),
(446,377,o),
(458,371,cs),
(500,349,o),
(521,304,o),
(536,255,c),
(540,251,o),
(548,247,o),
(556,247,cs),
(562,247,o),
(568,248,o),
(576,252,cs),
(586,256,o),
(597,248,o),
(592,237,cs),
(530,104,ls),
(529,102,o),
(525,99,o),
(523,98,cs),
(435,69,o),
(343,51,o),
(250,27,c),
(247,21,o),
(246,16,o),
(244,8,cs),
(240,-8,o),
(233,-18,o),
(221,-22,cs),
(200,-29,o),
(192,-22,o),
(197,0,c),
(196,0,l),
(197,5,o),
(198,9,o),
(199,14,c)
);
},
{
closed = 1;
nodes = (
(326,215,o),
(316,193,o),
(306,169,c),
(416,190,l),
(408,208,o),
(397,222,o),
(385,232,c),
(385,232,l),
(378,238,o),
(372,241,o),
(366,241,cs),
(359,241,o),
(352,237,o),
(345,231,cs)
);
}
);
width = 625;
}
);
},
{
glyphname = "hah-ar.init.dal";
layers = (
{
anchors = (
{
name = bottom;
pos = (325,-154);
},
{
name = bottom.mark;
pos = (404,-123);
},
{
name = exit;
},
{
name = top;
pos = (426,567);
},
{
name = top.mark;
pos = (435,549);
}
);
layerId = "1467EB51-6BD4-4CFC-AEAA-3E4EB1A95CFA";
shapes = (
{
closed = 1;
nodes = (
(303,216,o),
(381,413,o),
(477,361,cs),
(515,340,o),
(537,297,o),
(549,246,c),
(562,231,o),
(585,229,o),
(606,238,c),
(543,102,l),
(465,77,o),
(361,49,o),
(254,26,c),
(247,13,o),
(248,-19,o),
(228,-24,cs),
(224,-25,o),
(218,-19,o),
(219,-14,cs),
(221,-6,o),
(225,9,o),
(227,20,c),
(-30,-47,o),
(-38,55,o),
(46,214,cs),
(47,217,o),
(50,216,o),
(50,214,cs),
(45,177,o),
(67,143,o),
(100,133,cs),
(120,127,o),
(157,124,o),
(277,144,c)
);
},
{
closed = 1;
nodes = (
(439,207,o),
(429,224,o),
(413,238,cs),
(398,251,o),
(375,255,o),
(358,241,cs),
(330,218,o),
(317,180,o),
(301,146,c),
(441,174,ls),
(452,176,o),
(450,179,o),
(447,186,cs)
);
}
);
width = 636;
},
{
anchors = (
{
name = bottom;
pos = (325,-154);
},
{
name = bottom.mark;
pos = (404,-123);
},
{
name = exit;
},
{
name = top;
pos = (426,567);
},
{
name = top.mark;
pos = (435,549);
}
);
layerId = "EF321139-F770-433D-B2B6-C3EFA1B16465";
shapes = (
{
closed = 1;
nodes = (
(417,210,o),
(399,242,o),
(375,242,cs),
(356,242,o),
(340,217,o),
(333,204,cs),
(327,193,o),
(321,182,o),
(316,170,c),
(426,191,l)
);
},
{
closed = 1;
nodes = (
(65,216,o),
(63,212,o),
(63,208,cs),
(63,205,o),
(63,205,o),
(63,203,cs),
(63,185,o),
(71,171,o),
(87,159,c),
(102,151,o),
(122,147,o),
(145,147,cs),
(186,147,o),
(228,158,o),
(264,162,c),
(291,238,o),
(330,325,o),
(391,367,c),
(391,366,l),
(404,375,o),
(418,380,o),
(433,380,cs),
(472,380,o),
(501,352,o),
(517,325,cs),
(529,305,o),
(539,282,o),
(546,257,c),
(552,251,o),
(559,248,o),
(566,248,cs),
(572,248,o),
(579,249,o),
(586,253,cs),
(596,258,o),
(606,249,o),
(602,238,c),
(540,105,ls),
(539,103,o),
(535,99,o),
(533,98,cs),
(444,70,o),
(353,51,o),
(260,27,c),
(258,21,o),
(256,14,o),
(254,8,cs),
(250,-9,o),
(241,-22,o),
(223,-22,cs),
(211,-22,o),
(206,-17,o),
(206,-5,cs),
(206,-1,o),
(205,-1,o),
(206,2,c),
(207,7,o),
(208,10,o),
(209,15,c),
(175,7,o),
(148,0,o),
(108,0,cs),
(43,0,o),
(-8,15,o),
(-8,78,cs),
(-8,87,o),
(-7,94,o),
(-6,102,cs),
(3,150,o),
(17,192,o),
(40,224,cs),
(43,229,o),
(47,233,o),
(53,233,cs),
(65,233,o),
(65,230,o),
(65,220,cs)
);
}
);
width = 636;
}
);
},
{
glyphname = "hah-ar.init.feh";
layers = (
{
anchors = (
{
name = bottom;
pos = (505,-154);
},
{
name = bottom.mark;
pos = (527,-158);
},
{
name = exit;
},
{
name = top;
pos = (562,606);
},
{
name = top.mark;
pos = (549,576);
}
);
layerId = "1467EB51-6BD4-4CFC-AEAA-3E4EB1A95CFA";
shapes = (
{
closed = 1;
nodes = (
(451,243,o),
(493,339,o),
(554,381,cs),
(575,395,o),
(598,397,o),
(622,385,cs),
(662,365,o),
(683,319,o),
(697,271,c),
(712,254,o),
(731,251,o),
(754,262,c),
(690,125,l),
(591,94,o),
(508,77,o),
(403,50,c),
(396,36,o),
(393,6,o),
(377,0,c),
(358,-2,o),
(373,30,o),
(375,42,c),
(291,24,o),
(156,-8,o),
(56,2,cs),
(28,5,o),
(1,19,o),
(0,48,c),
(13,99,o),
(26,142,o),
(39,176,c),
(52,132,o),
(111,124,o),
(170,128,cs),
(252,132,o),
(354,151,o),
(425,168,c)
);
},
{
closed = 1;
nodes = (
(583,241,o),
(546,300,o),
(502,261,cs),
(475,237,o),
(464,205,o),
(450,170,c),
(591,199,ls),
(597,200,o),
(599,203,o),
(596,210,cs)
);
}
);
width = 791;
},
{
anchors = (
{
name = bottom;
pos = (505,-154);
},
{
name = bottom.mark;
pos = (527,-158);
},
{
name = exit;
},
{
name = top;
pos = (562,606);
},
{
name = top.mark;
pos = (549,576);
}
);
layerId = "EF321139-F770-433D-B2B6-C3EFA1B16465";
shapes = (
{
closed = 1;
nodes = (
(280,22,o),
(190,0,o),
(103,0,cs),
(49,0,o),
(-3,8,o),
(-5,60,c),
(7,105,o),
(18,148,o),
(33,186,cs),
(35,190,o),
(39,194,o),
(45,194,cs),
(51,194,o),
(54,190,o),
(56,185,cs),
(60,170,o),
(71,160,o),
(90,154,cs),
(108,149,o),
(128,147,o),
(150,147,cs),
(155,147,o),
(154,147,o),
(159,147,cs),
(204,147,o),
(251,155,o),
(293,161,c),
(332,168,o),
(371,175,o),
(407,184,c),
(426,234,o),
(449,285,o),
(476,328,c),
(492,351,o),
(513,374,o),
(535,389,c),
(535,389,l),
(547,398,o),
(559,403,o),
(577,403,cs),
(589,403,o),
(601,400,o),
(613,394,cs),
(655,372,o),
(675,328,o),
(690,279,c),
(696,273,o),
(703,271,o),
(710,271,cs),
(715,271,o),
(722,272,o),
(730,276,cs),
(740,281,o),
(751,271,o),
(746,260,cs),
(685,127,ls),
(684,125,o),
(679,122,o),
(677,121,cs),
(589,93,o),
(497,74,o),
(404,50,c),
(401,44,o),
(399,38,o),
(398,31,cs),
(395,15,o),
(387,5,o),
(374,0,c),
(347,-3,o),
(347,13,o),
(353,36,c),
(354,36,l),
(354,38,l)
);
},
{
closed = 1;
nodes = (
(481,238,o),
(470,217,o),
(460,192,c),
(569,214,l),
(560,232,o),
(551,246,o),
(540,256,c),
(532,262,o),
(525,264,o),
(520,264,cs),
(513,264,o),
(506,261,o),
(500,255,cs)
);
}
);
width = 791;
}
);
},
{
glyphname = "hah-ar.init.hah";
layers = (
{
anchors = (
{
name = bottom;
pos = (453,119);
},
{
name = bottom.mark;
pos = (396,62);
},
{
name = exit;
},
{
name = top;
pos = (330,751);
},
{
name = top.mark;
pos = (347,734);
}
);
layerId = "1467EB51-6BD4-4CFC-AEAA-3E4EB1A95CFA";
shapes = (
{
closed = 1;
nodes = (
(16,85,o),
(41,165,o),
(91,213,cs),
(113,234,o),
(138,253,o),
(167,270,c),
(146,289,o),
(141,328,o),
(155,389,cs),
(169,450,o),
(192,492,o),
(225,515,cs),
(247,530,o),
(280,542,o),
(325,549,cs),
(370,556,o),
(409,552,o),
(441,539,cs),
(474,525,o),
(483,494,o),
(470,443,cs),
(457,392,o),
(433,344,o),
(398,300,cs),
(363,256,o),
(305,212,o),
(222,170,cs),
(139,128,o),
(86,93,o),
(61,65,cs),
(36,37,o),
(20,15,o),
(12,2,c),
(9,-1,o),
(0,-1,o),
(0,5,c)
);
},
{
closed = 1;
nodes = (
(387,420,o),
(352,430,o),
(303,424,cs),
(258,418,o),
(229,409,o),
(215,398,c),
(226,367,o),
(246,345,o),
(260,317,cs),
(260,316,o),
(261,315,o),
(262,314,c),
(311,334,o),
(353,354,o),
(396,385,c),
(396,385,o),
(396,385,o),
(399,388,c)
);
}
);
width = 514;
},
{
anchors = (
{
name = bottom;
pos = (453,119);
},
{
name = bottom.mark;
pos = (396,62);
},
{
name = exit;
},
{
name = top;
pos = (330,751);
},
{
name = top.mark;
pos = (347,734);
}
);
layerId = "EF321139-F770-433D-B2B6-C3EFA1B16465";
shapes = (
{
closed = 1;
nodes = (
(421,557,o),
(476,538,o),
(476,477,cs),
(476,465,o),
(474,452,o),
(470,437,cs),
(456,383,o),
(429,334,o),
(398,294,cs),
(363,250,o),
(306,207,o),
(224,166,cs),
(185,146,o),
(152,128,o),
(127,112,cs),
(102,96,o),
(83,80,o),
(71,66,c),
(71,67,l),
(53,45,o),
(37,27,o),
(24,6,c),
(13,-5,o),
(-8,2,o),
(-8,17,c),
(10,98,o),
(31,172,o),
(79,221,cs),
(99,241,o),
(121,259,o),
(147,275,c),
(139,288,o),
(134,307,o),
(134,329,cs),
(134,383,o),
(152,434,o),
(171,468,cs),
(192,506,o),
(215,525,o),
(258,539,cs),
(287,548,o),
(322,557,o),
(361,557,cs)
);
},
{
closed = 1;
nodes = (
(364,405,o),
(348,412,o),
(322,412,cs),
(299,412,o),
(273,406,o),
(255,402,cs),
(242,399,o),
(233,397,o),
(226,393,c),
(233,375,o),
(243,359,o),
(253,344,cs),
(263,330,l),
(293,343,o),
(337,364,o),
(360,380,cs),
(370,387,o),
(375,390,o),
(375,390,cs)
);
}
);
width = 514;
}
);
},
{
glyphname = "hah-ar.init.heh";
layers = (
{
anchors = (
{
name = bottom;
pos = (483,35);
},
{
name = bottom.mark;
pos = (470,-22);
},
{
name = exit;
},
{
name = top;
pos = (431,756);
},
{
name = top.mark;
pos = (453,708);
}
);
layerId = "1467EB51-6BD4-4CFC-AEAA-3E4EB1A95CFA";
shapes = (
{
closed = 1;
nodes = (
(307,229,l),
(270,270,o),
(258,321,o),
(270,383,cs),
(282,445,o),
(305,487,o),
(338,511,cs),
(360,526,o),
(393,538,o),
(438,545,cs),
(483,552,o),
(522,548,o),
(554,535,cs),
(587,521,o),
(594,489,o),
(576,438,cs),
(558,387,o),
(541,352,o),
(528,333,cs),
(483,271,o),
(442,223,o),
(403,191,cs),
(316,120,o),
(247,68,o),
(173,-24,cs),
(134,-73,o),
(92,-145,o),
(47,-242,cs),
(29,-278,o),
(14,-307,o),
(6,-284,cs),
(0,-267,o),
(-1,-237,o),
(2,-196,cs),
(5,-157,l),
(5,-157,l),
(59,-91,l),
(58,-93,l),
(54,-122,l),
(62,-106,l),
(63,-104,l),
(102,-26,o),
(144,53,o),
(196,120,c),
(223,155,o),
(259,190,o),
(304,226,c),
(304,226,l)
);
},
{
closed = 1;
nodes = (
(424,319,o),
(478,352,o),
(512,384,c),
(502,414,o),
(473,426,o),
(424,421,cs),
(375,416,o),
(343,407,o),
(328,395,c),
(342,357,o),
(370,326,o),
(386,291,c)
);
}
);
width = 632;
},
{
anchors = (
{
name = bottom;
pos = (483,35);
},
{
name = bottom.mark;
pos = (470,-22);
},
{
name = exit;
},
{
name = top;
pos = (431,756);
},
{
name = top.mark;
pos = (453,708);
}
);
layerId = "EF321139-F770-433D-B2B6-C3EFA1B16465";
shapes = (
{
closed = 1;
nodes = (
(111,27,o),
(160,115,o),
(229,184,cs),
(246,201,o),
(264,217,o),
(285,234,c),
(262,264,o),
(250,300,o),
(250,340,cs),
(250,389,o),
(264,433,o),
(281,464,cs),
(302,502,o),
(325,522,o),
(368,536,cs),
(397,546,o),
(431,553,o),
(471,553,cs),
(499,553,o),
(524,549,o),
(545,540,cs),
(570,530,o),
(583,510,o),
(583,481,cs),
(583,466,o),
(580,450,o),
(573,431,cs),
(541,340,o),
(510,301,o),
(461,246,cs),
(408,187,o),
(351,147,o),
(292,96,cs),
(256,66,o),
(219,27,o),
(182,-20,cs),
(146,-65,o),
(105,-135,o),
(61,-229,c),
(59,-231,o),
(59,-232,o),
(58,-234,cs),
(42,-267,o),
(17,-308,o),
(0,-266,c),
(-4,-254,o),
(-6,-238,o),
(-6,-216,cs),
(-6,-203,o),
(-5,-189,o),
(-4,-176,cs),
(-1,-135,l),
(53,-69,l),
(56,-64,o),
(60,-62,o),
(65,-64,c)
);
},
{
closed = 1;
nodes = (
(453,360,o),
(469,372,o),
(485,386,c),
(477,401,o),
(460,408,o),
(435,408,cs),
(413,408,o),
(382,402,o),
(366,399,cs),
(353,396,o),
(343,393,o),
(336,389,c),
(347,365,o),
(364,342,o),
(377,320,cs),
(378,318,o),
(380,315,o),
(382,311,c),
(434,347,ls)
);
}
);
width = 632;
}
);
},
{
glyphname = "hah-ar.init.heh.ragaa";
layers = (
{
anchors = (
{
name = bottom;
pos = (401,-85);
},
{
name = bottom.mark;
pos = (388,-143);
},
{
name = exit;
},
{
name = top;
pos = (349,635);
},
{
name = top.mark;
pos = (371,587);
}
);
layerId = "1467EB51-6BD4-4CFC-AEAA-3E4EB1A95CFA";
shapes = (
{
closed = 1;
nodes = (
(223,106,o),
(225,107,o),
(226,108,c),
(189,150,o),
(176,201,o),
(188,263,cs),
(200,325,o),
(223,367,o),
(256,390,cs),
(277,406,o),
(311,417,o),
(356,424,cs),
(401,431,o),
(440,427,o),
(472,414,cs),
(505,400,o),
(512,368,o),
(494,317,cs),
(476,266,o),
(460,231,o),
(447,212,cs),
(402,149,o),
(355,98,o),
(307,60,cs),
(259,22,o),
(212,-19,o),
(168,-65,cs),
(119,-115,o),
(80,-170,o),
(48,-240,cs),
(30,-275,o),
(14,-305,o),
(6,-282,cs),
(0,-265,o),
(-2,-236,o),
(2,-194,cs),
(8,-155,l),
(8,-155,l),
(59,-90,l),
(59,-91,l),
(55,-120,l),
(62,-105,l),
(73,-87,o),
(81,-66,o),
(91,-47,cs),
(120,9,o),
(164,59,o),
(222,105,c),
(222,105,l)
);
},
{
closed = 1;
nodes = (
(343,197,o),
(396,232,o),
(430,264,c),
(420,293,o),
(391,305,o),
(342,300,cs),
(293,295,o),
(261,285,o),
(246,273,c),
(261,236,o),
(288,205,o),
(304,169,c)
);
}
);
width = 551;
},
{
anchors = (
{
name = bottom;
pos = (401,-85);
},
{
name = bottom.mark;
pos = (388,-143);
},
{
name = exit;
},
{
name = top;
pos = (349,635);
},
{
name = top.mark;
pos = (371,587);
}
);
layerId = "EF321139-F770-433D-B2B6-C3EFA1B16465";
shapes = (
{
closed = 1;
nodes = (
(110,48,o),
(152,97,o),
(206,142,c),
(183,172,o),
(171,207,o),
(171,247,cs),
(171,326,o),
(202,390,o),
(246,423,c),
(280,446,o),
(335,461,o),
(391,461,cs),
(418,461,o),
(443,456,o),
(466,447,cs),
(492,436,o),
(504,416,o),
(504,387,cs),
(504,369,o),
(499,353,o),
(494,337,cs),
(476,286,o),
(460,252,o),
(447,233,cs),
(407,176,o),
(362,125,o),
(310,84,cs),
(262,47,o),
(220,8,o),
(178,-35,cs),
(131,-84,o),
(94,-135,o),
(62,-204,c),
(63,-203,l),
(35,-263,o),
(14,-275,o),
(1,-240,cs),
(-3,-228,o),
(-6,-212,o),
(-6,-192,cs),
(-6,-178,o),
(-4,-163,o),
(-3,-149,cs),
(0,-107,l),
(53,-43,ls),
(56,-39,o),
(60,-39,o),
(65,-40,c),
(71,-28,o),
(77,-15,o),
(83,-3,cs)
);
},
{
closed = 1;
nodes = (
(338,242,o),
(376,266,o),
(406,294,c),
(398,307,o),
(381,313,o),
(356,313,cs),
(320,313,o),
(274,302,o),
(259,295,c),
(265,281,o),
(273,269,o),
(281,256,c),
(290,244,o),
(297,233,o),
(304,219,c)
);
}
);
width = 551;
}
);
},
{
glyphname = "hah-ar.init.meem";
layers = (
{
anchors = (
{
name = bottom;
pos = (426,9);
},
{
name = bottom.mark;
pos = (387,-4);
},
{
name = exit;
pos = (-24,-49);
},
{
name = top;
pos = (404,734);
},
{
name = top.mark;
pos = (422,703);
}
);
layerId = "1467EB51-6BD4-4CFC-AEAA-3E4EB1A95CFA";
shapes = (
{
closed = 1;
nodes = (
(223,297,o),
(220,344,o),
(234,392,cs),
(248,440,o),
(269,474,o),
(297,494,cs),
(319,509,o),
(352,520,o),
(397,527,cs),
(442,534,o),
(481,531,o),
(513,518,cs),
(532,510,o),
(541,494,o),
(541,471,cs),
(541,448,o),
(536,423,o),
(528,399,cs),
(491,290,o),
(409,207,o),
(307,163,cs),
(265,145,o),
(197,113,o),
(146,97,cs),
(91,80,o),
(40,46,o),
(21,0,c),
(0,2,l),
(21,63,o),
(35,108,o),
(71,161,cs),
(91,190,o),
(148,220,o),
(243,250,c)
);
},
{
closed = 1;
nodes = (
(383,307,o),
(437,335,o),
(471,367,c),
(461,397,o),
(432,408,o),
(383,403,cs),
(334,398,o),
(302,389,o),
(287,377,c),
(300,344,o),
(316,314,o),
(337,287,c)
);
}
);
width = 567;
},
{
anchors = (
{
name = bottom;
pos = (426,9);
},
{
name = bottom.mark;
pos = (387,-4);
},
{
name = exit;
pos = (-24,-49);
},
{
name = top;
pos = (404,734);
},
{
name = top.mark;
pos = (422,703);
}
);
layerId = "EF321139-F770-433D-B2B6-C3EFA1B16465";
shapes = (
{
closed = 1;
nodes = (
(487,537,o),
(539,521,o),
(539,467,cs),
(539,443,o),
(534,419,o),
(526,394,cs),
(489,287,o),
(408,202,o),
(306,158,c),
(214,119,ls),
(175,102,o),
(128,92,o),
(94,70,c),
(64,52,o),
(44,31,o),
(35,7,cs),
(33,3,o),
(28,-1,o),
(23,0,cs),
(3,2,ls),
(-4,3,o),
(-11,10,o),
(-7,18,c),
(19,91,ls),
(28,118,o),
(42,145,o),
(62,174,c),
(83,203,o),
(137,232,o),
(224,261,c),
(216,283,o),
(211,306,o),
(211,334,cs),
(211,408,o),
(247,471,o),
(284,498,cs),
(318,521,o),
(374,537,o),
(431,537,cs)
);
},
{
closed = 1;
nodes = (
(307,347,o),
(319,325,o),
(334,303,c),
(373,320,o),
(416,343,o),
(445,369,c),
(437,383,o),
(420,391,o),
(395,391,cs),
(373,391,o),
(342,385,o),
(326,382,cs),
(313,379,o),
(303,376,o),
(296,372,c)
);
}
);
width = 567;
}
);
},
{
glyphname = "hah-ar.init.ragaa";
layers = (
{
anchors = (
{
name = bottom;
pos = (510,193);
},
{
name = bottom.mark;
pos = (333,-38);
},
{
name = exit;
},
{
name = top;
pos = (333,671);
},
{
name = top.mark;
pos = (338,666);
}
);
layerId = "1467EB51-6BD4-4CFC-AEAA-3E4EB1A95CFA";
shapes = (
{
closed = 1;
nodes = (
(143,222,o),
(145,280,o),
(154,324,cs),
(165,374,o),
(191,431,o),
(226,456,cs),
(248,471,o),
(281,483,o),
(326,490,cs),
(371,497,o),
(409,493,o),
(441,480,cs),
(474,466,o),
(482,433,o),
(464,382,cs),
(446,331,o),
(430,296,o),
(417,277,cs),
(378,222,o),
(337,183,o),
(295,158,cs),
(253,133,o),
(211,108,o),
(167,82,cs),
(142,67,o),
(122,53,o),
(104,40,c),
(88,26,o),
(59,13,o),
(42,-1,c),
(0,28,l),
(3,41,o),
(18,73,o),
(24,86,cs),
(35,110,o),
(53,132,o),
(77,151,cs),
(97,166,o),
(119,180,o),
(146,192,cs),
(161,199,o),
(170,203,o),
(173,206,c)
);
},
{
closed = 1;
nodes = (
(312,263,o),
(366,297,o),
(400,329,c),
(390,359,o),
(360,370,o),
(311,365,cs),
(262,360,o),
(231,351,o),
(216,339,c),
(230,302,o),
(257,271,o),
(273,235,c)
);
}
);
width = 678;
},
{
anchors = (
{
name = bottom;
pos = (510,193);
},
{
name = bottom.mark;
pos = (333,-38);
},
{
name = exit;
},
{
name = top;
pos = (333,671);
},
{
name = top.mark;
pos = (338,666);
}
);
layerId = "EF321139-F770-433D-B2B6-C3EFA1B16465";
shapes = (
{
closed = 1;
nodes = (
(140,226,o),
(135,243,o),
(135,263,cs),
(135,269,o),
(135,269,o),
(135,275,cs),
(135,327,o),
(149,368,o),
(167,404,cs),
(187,444,o),
(213,468,o),
(258,483,cs),
(287,493,o),
(322,500,o),
(361,500,cs),
(389,500,o),
(414,496,o),
(435,487,cs),
(461,476,o),
(473,456,o),
(473,427,cs),
(473,413,o),
(469,397,o),
(462,377,cs),
(444,327,o),
(429,291,o),
(416,272,c),
(378,218,o),
(337,179,o),
(295,154,cs),
(243,123,o),
(189,92,o),
(139,60,cs),
(129,54,o),
(120,48,o),
(112,41,c),
(86,23,l),
(76,17,o),
(67,11,o),
(57,5,cs),
(52,2,o),
(45,-4,o),
(38,1,cs),
(-3,30,l),
(-17,40,o),
(2,67,o),
(6,78,c),
(16,101,l),
(39,149,o),
(88,187,o),
(140,210,c),
(149,214,l)
);
},
{
closed = 1;
nodes = (
(307,282,o),
(344,305,o),
(374,333,c),
(366,347,o),
(349,354,o),
(325,354,cs),
(303,354,o),
(273,348,o),
(258,345,cs),
(245,342,o),
(235,338,o),
(228,334,c),
(240,306,o),
(260,286,o),
(273,259,c)
);
}
);
width = 678;
}
);
},
{
glyphname = "hah-ar.init.reh";
layers = (
{
anchors = (
{
name = bottom;
pos = (356,-57);
},
{
name = bottom.mark;
pos = (347,-62);
},
{
name = exit;
},
{
name = top;
pos = (338,655);
},
{
name = top.mark;
pos = (374,637);
}
);
layerId = "1467EB51-6BD4-4CFC-AEAA-3E4EB1A95CFA";
shapes = (
{
closed = 1;
nodes = (
(383,282,o),
(437,310,o),
(471,342,c),
(461,372,o),
(432,384,o),
(383,379,cs),
(334,374,o),
(302,365,o),
(287,353,c),
(300,320,o),
(316,289,o),
(337,262,c)
);
},
{
closed = 1;
nodes = (
(9,0,o),
(0,13,o),
(0,23,cs),
(0,32,o),
(5,42,o),
(15,54,c),
(15,55,l),
(32,110,o),
(62,149,o),
(106,170,cs),
(150,191,o),
(193,212,o),
(238,232,c),
(203,321,o),
(247,433,o),
(297,469,cs),
(319,484,o),
(352,496,o),
(397,503,cs),
(442,510,o),
(481,506,o),
(513,493,cs),
(532,485,o),
(541,469,o),
(541,446,cs),
(541,423,o),
(536,399,o),
(528,375,cs),
(491,266,o),
(409,182,o),
(307,138,cs),
(265,120,o),
(197,89,o),
(146,73,c),
(92,52,o),
(55,33,o),
(36,14,c),
(29,5,o),
(24,0,o),
(18,0,cs)
);
}
);
width = 544;
},
{
anchors = (
{
name = bottom;
pos = (356,-57);
},
{
name = bottom.mark;
pos = (347,-62);
},
{
name = exit;
},
{
name = top;
pos = (338,655);
},
{
name = top.mark;
pos = (374,637);
}
);
layerId = "EF321139-F770-433D-B2B6-C3EFA1B16465";
shapes = (
{
closed = 1;
nodes = (
(307,323,o),
(319,301,o),
(334,280,c),
(373,297,o),
(416,319,o),
(445,345,c),
(437,360,o),
(420,367,o),
(395,367,cs),
(373,367,o),
(342,361,o),
(326,358,cs),
(313,355,o),
(303,352,o),
(296,348,c)
);
},
{
closed = 1;
nodes = (
(213,262,o),
(210,282,o),
(210,306,cs),
(210,381,o),
(246,448,o),
(284,475,cs),
(318,498,o),
(374,513,o),
(431,513,cs),
(459,513,o),
(484,508,o),
(505,499,cs),
(528,489,o),
(539,470,o),
(539,443,cs),
(539,396,o),
(521,348,o),
(502,314,cs),
(458,234,o),
(392,172,o),
(306,134,c),
(214,95,ls),
(194,86,o),
(172,78,o),
(150,71,c),
(110,55,o),
(74,42,o),
(49,19,c),
(40,6,o),
(30,0,o),
(21,0,cs),
(5,0,o),
(-7,18,o),
(-7,34,cs),
(-7,50,o),
(1,60,o),
(9,71,c),
(26,126,o),
(56,165,o),
(101,187,c),
(144,208,o),
(176,223,o),
(220,243,c)
);
}
);
width = 544;
}
);
},
{
glyphname = "hah-ar.init.sad";
layers = (
{
anchors = (
{
name = bottom;
pos = (475,-163);
},
{
name = bottom.mark;
pos = (448,-149);
},
{
name = exit;
pos = (24,49);
},
{
name = top;
pos = (580,567);
},
{
name = top.mark;
pos = (598,571);
}
);
layerId = "1467EB51-6BD4-4CFC-AEAA-3E4EB1A95CFA";
shapes = (
{
closed = 1;
nodes = (
(108,333,o),
(111,333,o),
(111,330,cs),
(111,329,o),
(111,328,o),
(110,326,cs),
(84,274,o),
(70,234,o),
(70,205,cs),
(70,194,o),
(72,185,o),
(76,178,cs),
(93,143,o),
(130,130,o),
(183,130,cs),
(215,130,o),
(250,135,o),
(290,143,cs),
(342,154,o),
(389,162,o),
(430,168,c),
(456,243,o),
(499,339,o),
(560,381,cs),
(572,389,o),
(583,393,o),
(596,393,cs),
(633,393,o),
(659,365,o),
(674,339,cs),
(686,318,o),
(695,296,o),
(702,271,c),
(711,261,o),
(722,255,o),
(734,255,cs),
(742,255,o),
(751,257,o),
(760,262,c),
(696,125,l),
(597,94,o),
(513,77,o),
(408,50,c),
(402,36,o),
(399,6,o),
(383,0,c),
(381,0,ls),
(376,0,o),
(373,2,o),
(373,6,cs),
(373,16,o),
(379,32,o),
(381,42,c),
(339,33,o),
(289,23,o),
(229,12,cs),
(189,4,o),
(154,0,o),
(123,0,cs),
(63,0,o),
(14,15,o),
(5,57,cs),
(3,68,o),
(1,79,o),
(1,91,cs),
(1,111,o),
(5,133,o),
(12,155,cs),
(23,191,o),
(37,225,o),
(57,259,cs),
(77,293,o),
(92,316,o),
(102,331,cs),
(103,333,o),
(104,333,o),
(106,333,cs)
);
},
{
closed = 1;
nodes = (
(589,235,o),
(577,253,o),
(563,264,cs),
(553,272,o),
(543,275,o),
(534,275,cs),
(524,275,o),
(515,271,o),
(506,263,cs),
(479,239,o),
(468,207,o),
(454,172,c),
(595,200,ls),
(599,201,o),
(601,203,o),
(601,207,cs),
(601,208,o),
(601,210,o),
(600,212,cs)
);
}
);
width = 797;
},
{
anchors = (
{
name = bottom;
pos = (475,-163);
},
{
name = bottom.mark;
pos = (448,-149);
},
{
name = exit;
pos = (24,49);
},
{
name = top;
pos = (580,567);
},
{
name = top.mark;
pos = (598,571);
}
);
layerId = "EF321139-F770-433D-B2B6-C3EFA1B16465";
shapes = (
{
closed = 1;
nodes = (
(119,346,o),
(125,341,o),
(125,331,cs),
(125,328,o),
(126,327,o),
(125,325,cs),
(99,274,o),
(86,236,o),
(86,210,cs),
(86,201,o),
(87,194,o),
(90,189,c),
(104,159,o),
(137,149,o),
(183,149,cs),
(217,149,o),
(254,155,o),
(284,161,cs),
(351,174,o),
(394,182,o),
(413,185,c),
(442,262,o),
(479,346,o),
(541,390,cs),
(552,398,o),
(565,403,o),
(583,403,cs),
(594,403,o),
(606,400,o),
(618,394,cs),
(660,372,o),
(682,328,o),
(696,279,c),
(702,273,o),
(708,271,o),
(715,271,cs),
(721,271,o),
(727,272,o),
(735,276,cs),
(745,281,o),
(756,271,o),
(751,260,cs),
(689,127,ls),
(688,125,o),
(685,122,o),
(683,121,cs),
(594,93,o),
(502,73,o),
(409,50,c),
(408,47,o),
(407,44,o),
(406,41,cs),
(404,31,l),
(401,16,o),
(392,5,o),
(379,0,c),
(375,0,ls),
(362,0,o),
(355,6,o),
(355,18,cs),
(355,22,o),
(356,33,o),
(359,36,c),
(359,38,l),
(301,27,o),
(239,11,o),
(175,4,cs),
(157,2,o),
(140,0,o),
(125,0,cs),
(107,0,o),
(93,1,o),
(81,3,cs),
(35,9,o),
(7,29,o),
(0,64,cs),
(-3,75,o),
(-4,86,o),
(-4,100,cs),
(-4,120,o),
(2,149,o),
(6,165,c),
(27,233,o),
(62,290,o),
(98,342,c),
(101,345,o),
(104,346,o),
(109,346,cs)
);
},
{
closed = 1;
nodes = (
(484,240,o),
(474,219,o),
(463,194,c),
(574,216,l),
(566,232,o),
(555,247,o),
(543,258,c),
(535,264,o),
(528,266,o),
(522,266,cs),
(515,266,o),
(509,263,o),
(503,257,cs)
);
}
);
width = 797;
}
);
},
{
glyphname = "hah-ar.init.yeh";
layers = (
{
anchors = (
{
name = bottom;
pos = (343,22);
},
{
name = bottom.mark;
pos = (435,92);
},
{
name = exit;
pos = (10,49);
},
{
name = top;
pos = (308,743);
},
{
name = top.mark;
pos = (334,738);
}
);
layerId = "1467EB51-6BD4-4CFC-AEAA-3E4EB1A95CFA";
shapes = (
{
closed = 1;
nodes = (
(16,85,o),
(41,165,o),
(91,213,cs),
(113,234,o),
(138,253,o),
(167,270,c),
(146,289,o),
(141,328,o),
(155,389,cs),
(169,450,o),
(192,492,o),
(225,515,cs),
(247,530,o),
(280,542,o),
(325,549,cs),
(370,556,o),
(409,552,o),
(441,539,cs),
(474,525,o),
(481,493,o),
(463,442,cs),
(445,391,o),
(429,355,o),
(416,336,c),
(376,276,o),
(321,227,o),
(252,188,cs),
(183,149,o),
(129,112,o),
(87,76,cs),
(45,40,o),
(20,15,o),
(12,2,c),
(9,-1,o),
(0,-1,o),
(0,5,c)
);
},
{
closed = 1;
nodes = (
(387,420,o),
(352,430,o),
(303,424,cs),
(258,418,o),
(229,409,o),
(215,398,c),
(226,367,o),
(246,345,o),
(260,317,cs),
(260,316,o),
(261,315,o),
(262,314,c),
(311,334,o),
(353,354,o),
(396,385,c),
(396,385,o),
(396,385,o),
(399,388,c)
);
}
);
width = 514;
},
{
anchors = (
{
name = bottom;
pos = (343,22);
},
{
name = bottom.mark;
pos = (435,92);
},
{
name = exit;
pos = (10,49);
},
{
name = top;
pos = (308,743);
},
{
name = top.mark;
pos = (334,738);
}
);
layerId = "EF321139-F770-433D-B2B6-C3EFA1B16465";
shapes = (
{
closed = 1;
nodes = (
(10,98,o),
(30,172,o),
(78,221,cs),
(98,241,o),
(121,259,o),
(147,275,c),
(139,288,o),
(134,307,o),
(134,329,cs),
(134,383,o),
(152,434,o),
(171,468,cs),
(192,506,o),
(215,525,o),
(258,539,cs),
(287,548,o),
(322,557,o),
(361,557,cs),
(389,557,o),
(414,552,o),
(435,543,cs),
(460,533,o),
(473,513,o),
(473,484,cs),
(473,469,o),
(469,454,o),
(462,435,cs),
(448,394,o),
(435,358,o),
(416,330,cs),
(375,269,o),
(320,220,o),
(253,183,cs),
(193,150,o),
(142,117,o),
(95,77,cs),
(56,43,o),
(32,19,o),
(24,6,c),
(13,-5,o),
(-8,2,o),
(-8,17,c)
);
},
{
closed = 1;
nodes = (
(364,405,o),
(347,412,o),
(321,412,cs),
(298,412,o),
(273,406,o),
(255,402,cs),
(242,399,o),
(233,397,o),
(226,393,c),
(233,375,o),
(243,359,o),
(253,344,cs),
(263,330,l),
(304,347,o),
(339,365,o),
(375,390,c)
);
}
);
width = 514;
}
);
},
{
glyphname = "dal-ar";
layers = (
{
anchors = (
{
name = bottom;
pos = (198,-167);
},
{
name = bottom.mark;
pos = (180,-167);
},
{
name = top;
pos = (233,562);
},
{
name = top.mark;
pos = (233,571);
}
);
layerId = "1467EB51-6BD4-4CFC-AEAA-3E4EB1A95CFA";
shapes = (
{
closed = 1;
nodes = (
(319,425,ls),
(319,425,o),
(404,267,o),
(282,122,cs),
(261,98,o),
(236,76,o),
(207,61,cs),
(161,37,o),
(56,15,o),
(0,0,c),
(74,133,l),
(134,144,o),
(223,168,o),
(273,190,c),
(273,190,l),
(274,216,o),
(256,271,o),
(242,311,c)
);
}
);
width = 367;
},
{
anchors = (
{
name = bottom;
pos = (198,-167);
},
{
name = bottom.mark;
pos = (180,-167);
},
{
name = top;
pos = (233,562);
},
{
name = top.mark;
pos = (233,571);
}
);
layerId = "EF321139-F770-433D-B2B6-C3EFA1B16465";
shapes = (
{
closed = 1;
nodes = (
(306,437,o),
(317,436,o),
(321,427,cs),
(333,400,ls),
(343,377,o),
(350,341,o),
(350,304,cs),
(350,282,o),
(347,258,o),
(342,232,c),
(332,188,o),
(311,154,o),
(284,122,c),
(261,96,o),
(236,76,o),
(208,61,c),
(208,61,l),
(186,49,o),
(153,37,o),
(109,26,cs),
(72,17,o),
(39,9,o),
(6,0,cs),
(-4,-3,o),
(-13,7,o),
(-7,18,cs),
(64,146,l),
(65,147,o),
(71,151,o),
(73,152,cs),
(135,163,o),
(202,180,o),
(254,203,c),
(252,217,o),
(249,231,o),
(246,245,c),
(239,267,o),
(233,289,o),
(225,309,cs),
(224,312,o),
(226,317,o),
(227,319,cs),
(301,428,ls)
);
}
);
width = 367;
}
);
unicode = 1583;
},
{
glyphname = "dal-ar.fina";
layers = (
{
anchors = (
{
name = bottom;
pos = (211,-207);
},
{
name = bottom.mark;
pos = (207,-176);
},
{
name = entry;
pos = (338,48);
},
{
name = top;
pos = (347,417);
},
{
name = top.mark;
pos = (308,457);
}
);
layerId = "1467EB51-6BD4-4CFC-AEAA-3E4EB1A95CFA";
shapes = (
{
closed = 1;
nodes = (
(385,164,o),
(390,156,o),
(390,147,cs),
(390,135,o),
(384,125,o),
(376,122,c),
(354,106,o),
(336,80,o),
(321,56,c),
(296,18,o),
(272,0,o),
(227,0,cs),
(206,0,o),
(182,4,o),
(157,12,cs),
(146,15,o),
(120,25,o),
(78,43,cs),
(36,61,o),
(11,74,o),
(3,81,cs),
(1,83,o),
(0,84,o),
(0,86,cs),
(0,89,o),
(3,92,o),
(10,94,cs),
(103,117,o),
(212,118,o),
(311,134,cs),
(329,137,o),
(346,145,o),
(360,158,cs),
(364,162,o),
(369,164,o),
(374,164,cs)
);
}
);
width = 390;
},
{
anchors = (
{
name = bottom;
pos = (211,-207);
},
{
name = bottom.mark;
pos = (207,-176);
},
{
name = entry;
pos = (338,48);
},
{
name = top;
pos = (347,417);
},
{
name = top.mark;
pos = (308,457);
}
);
layerId = "EF321139-F770-433D-B2B6-C3EFA1B16465";
shapes = (
{
closed = 1;
nodes = (
(382,182,o),
(392,169,o),
(392,154,cs),
(392,137,o),
(385,124,o),
(373,119,c),
(340,94,o),
(321,42,o),
(287,19,cs),
(268,6,o),
(251,0,o),
(223,0,cs),
(165,0,o),
(122,23,o),
(74,43,c),
(32,61,o),
(6,75,o),
(-2,82,cs),
(-6,86,o),
(-8,90,o),
(-8,95,cs),
(-8,106,o),
(1,111,o),
(10,114,cs),
(53,124,o),
(107,133,o),
(156,136,cs),
(203,139,o),
(258,146,o),
(302,153,c),
(318,156,o),
(331,162,o),
(343,173,cs),
(349,179,o),
(356,182,o),
(364,182,cs)
);
}
);
width = 390;
}
);
},
{
glyphname = "reh-ar";
layers = (
{
anchors = (
{
name = bottom;
pos = (233,-224);
},
{
name = bottom.mark;
pos = (242,-193);
},
{
name = top;
pos = (360,457);
},
{
name = top.mark;
pos = (277,431);
}
);
layerId = "1467EB51-6BD4-4CFC-AEAA-3E4EB1A95CFA";
shapes = (
{
closed = 1;
nodes = (
(435,205,o),
(402,121,o),
(371,84,cs),
(326,30,o),
(259,-3,o),
(158,0,cs),
(2,4,o),
(-94,21,o),
(142,94,cs),
(223,119,o),
(302,146,o),
(366,189,cs),
(396,209,o),
(419,237,o),
(435,272,cs),
(438,280,o),
(447,279,o),
(448,272,cs)
);
}
);
width = 469;
},
{
anchors = (
{
name = bottom;
pos = (233,-224);
},
{
name = bottom.mark;
pos = (242,-193);
},
{
name = top;
pos = (360,457);
},
{
name = top.mark;
pos = (277,431);
}
);
layerId = "EF321139-F770-433D-B2B6-C3EFA1B16465";
shapes = (
{
closed = 1;
nodes = (
(442,291,o),
(447,285,o),
(448,276,c),
(448,272,l),
(433,207,o),
(405,126,o),
(371,85,cs),
(326,33,o),
(262,0,o),
(165,0,cs),
(156,0,l),
(118,1,o),
(85,3,o),
(57,6,cs),
(27,9,o),
(7,15,o),
(-2,23,cs),
(-6,27,o),
(-7,32,o),
(-7,38,cs),
(-7,63,o),
(36,79,o),
(64,89,cs),
(83,96,o),
(108,105,o),
(137,114,cs),
(213,138,o),
(290,164,o),
(351,204,cs),
(378,222,o),
(399,248,o),
(413,279,c),
(416,288,o),
(423,292,o),
(433,292,c)
);
}
);
width = 469;
}
);
unicode = 1585;
},
{
glyphname = "reh-ar.fina";
layers = (
{
anchors = (
{
name = bottom;
pos = (211,-220);
},
{
name = bottom.mark;
pos = (224,-176);
},
{
name = entry;
pos = (316,105);
},
{
name = top;
pos = (334,439);
},
{
name = top.mark;
pos = (369,466);
}
);
layerId = "1467EB51-6BD4-4CFC-AEAA-3E4EB1A95CFA";
shapes = (
{
closed = 1;
nodes = (
(354,121,o),
(340,95,o),
(327,69,cs),
(296,10,o),
(253,-8,o),
(168,9,cs),
(157,11,o),
(130,20,o),
(86,33,cs),
(42,46,o),
(16,56,o),
(8,63,cs),
(2,68,o),
(5,72,o),
(14,76,c),
(104,108,o),
(214,120,o),
(310,145,cs),
(328,150,o),
(343,159,o),
(356,174,c),
(356,173,l),
(361,179,o),
(366,182,o),
(373,181,cs),
(393,178,o),
(390,147,o),
(375,139,c)
);
}
);
width = 410;
},
{
anchors = (
{
name = bottom;
pos = (211,-220);
},
{
name = bottom.mark;
pos = (224,-176);
},
{
name = entry;
pos = (316,105);
},
{
name = top;
pos = (334,439);
},
{
name = top.mark;
pos = (369,466);
}
);
layerId = "EF321139-F770-433D-B2B6-C3EFA1B16465";
shapes = (
{
closed = 1;
nodes = (
(387,149,o),
(382,141,o),
(373,136,c),
(355,120,o),
(342,96,o),
(330,73,cs),
(311,37,o),
(286,15,o),
(255,7,cs),
(243,4,o),
(230,3,o),
(217,3,cs),
(201,3,o),
(184,5,o),
(164,9,c),
(137,15,o),
(31,45,o),
(4,63,c),
(-10,76,o),
(-6,88,o),
(11,96,c),
(56,112,o),
(104,125,o),
(156,133,cs),
(206,141,o),
(254,151,o),
(300,163,cs),
(314,167,o),
(326,174,o),
(337,186,c),
(344,196,o),
(354,201,o),
(366,198,c),
(366,198,l),
(385,195,o),
(393,182,o),
(389,160,cs)
);
}
);
width = 410;
}
);
},
{
glyphname = "seen-ar";
layers = (
{
anchors = (
{
name = bottom;
pos = (541,-4);
},
{
name = bottom.mark;
pos = (602,26);
},
{
name = top;
pos = (633,703);
},
{
name = top.mark;
pos = (655,725);
}
);
layerId = "1467EB51-6BD4-4CFC-AEAA-3E4EB1A95CFA";
shapes = (
{
closed = 1;
nodes = (
(401,222,o),
(391,187,o),
(349,126,cs),
(203,-85,o),
(-169,-57,o),
(87,409,cs),
(95,425,o),
(108,422,o),
(99,398,cs),
(68,329,o),
(-20,195,o),
(87,149,c),
(205,128,o),
(304,174,o),
(368,233,c),
(369,283,o),
(359,324,o),
(344,371,c),
(397,503,l),
(420,456,o),
(422,414,o),
(464,423,c),
(587,449,o),
(712,473,o),
(817,515,cs),
(843,526,o),
(869,538,o),
(882,560,cs),
(884,563,o),
(889,560,o),
(888,557,c),
(888,557,l),
(861,475,o),
(829,396,o),
(794,321,cs),
(790,313,o),
(780,308,o),
(772,314,cs),
(764,320,o),
(768,333,o),
(771,342,cs),
(777,362,o),
(789,380,o),
(796,400,c),
(699,356,o),
(573,333,o),
(467,303,cs),
(426,289,l)
);
}
);
width = 933;
},
{
anchors = (
{
name = bottom;
pos = (541,-4);
},
{
name = bottom.mark;
pos = (602,26);
},
{
name = top;
pos = (633,703);
},
{
name = top.mark;
pos = (655,725);
}
);
layerId = "EF321139-F770-433D-B2B6-C3EFA1B16465";
shapes = (
{
closed = 1;
nodes = (
(749,300,o),
(738,311,o),
(738,326,cs),
(738,333,o),
(740,340,o),
(742,346,c),
(745,357,o),
(749,366,o),
(754,375,c),
(708,356,o),
(658,341,o),
(605,329,cs),
(541,314,o),
(488,300,o),
(428,282,c),
(399,206,ls),
(380,156,o),
(333,92,o),
(292,59,cs),
(269,41,o),
(243,26,o),
(215,16,cs),
(186,6,o),
(159,0,o),
(134,0,cs),
(111,0,o),
(89,6,o),
(68,16,c),
(68,15,l),
(25,36,o),
(3,86,o),
(-4,146,cs),
(-4,148,o),
(-5,150,o),
(-5,153,cs),
(-5,157,o),
(-5,158,o),
(-5,161,cs),
(-5,192,o),
(3,229,o),
(18,272,cs),
(33,315,o),
(54,362,o),
(82,413,cs),
(88,423,o),
(94,428,o),
(101,428,cs),
(112,428,o),
(118,420,o),
(118,410,cs),
(118,391,o),
(108,379,o),
(101,364,cs),
(86,334,o),
(67,302,o),
(59,265,cs),
(56,254,o),
(55,241,o),
(55,230,cs),
(55,195,o),
(65,180,o),
(96,167,c),
(117,163,o),
(135,162,o),
(152,162,cs),
(212,162,o),
(264,183,o),
(303,206,cs),
(321,216,o),
(337,229,o),
(352,242,c),
(352,245,ls),
(352,295,o),
(340,332,o),
(328,371,c),
(381,502,ls),
(385,512,o),
(397,513,o),
(402,503,c),
(411,483,o),
(419,464,o),
(426,444,cs),
(429,436,o),
(435,432,o),
(444,432,cs),
(446,432,o),
(447,432,o),
(449,432,c),
(449,432,l),
(569,457,o),
(689,479,o),
(793,521,c),
(822,532,o),
(842,545,o),
(852,562,cs),
(854,564,o),
(856,566,o),
(861,566,cs),
(865,566,o),
(868,564,o),
(871,563,c),
(876,559,o),
(878,557,o),
(878,548,c),
(852,470,o),
(820,388,o),
(787,317,cs),
(783,308,o),
(775,300,o),
(763,300,cs)
);
}
);
width = 933;
}
);
unicode = 1587;
},
{
glyphname = "seen-ar.jalt";
layers = (
{
anchors = (
{
name = bottom.mark;
pos = (519,-163);
},
{
name = top;
pos = (1239,703);
},
{
name = top.mark;
pos = (1213,782);
}
);
layerId = "1467EB51-6BD4-4CFC-AEAA-3E4EB1A95CFA";
shapes = (
{
closed = 1;
nodes = (
(178,21,o),
(102,51,o),
(59,98,cs),
(-33,198,o),
(-7,321,o),
(72,422,cs),
(152,524,o),
(266,581,o),
(409,618,cs),
(473,635,o),
(545,645,o),
(624,648,c),
(571,535,l),
(489,532,o),
(403,518,o),
(313,490,cs),
(223,462,o),
(148,420,o),
(87,362,cs),
(69,344,o),
(58,326,o),
(56,306,cs),
(54,286,o),
(69,262,o),
(101,235,cs),
(186,162,o),
(306,126,o),
(463,128,c),
(543,134,o),
(623,142,o),
(695,158,cs),
(731,165,o),
(773,180,o),
(822,201,cs),
(895,233,o),
(896,233,o),
(896,233,c),
(898,266,o),
(875,326,o),
(865,354,c),
(934,456,ls),
(945,473,o),
(952,472,o),
(956,453,cs),
(959,439,o),
(961,423,o),
(962,404,cs),
(963,385,o),
(977,378,o),
(1004,384,cs),
(1122,411,o),
(1286,442,o),
(1388,483,c),
(1420,495,o),
(1441,510,o),
(1452,528,cs),
(1454,531,o),
(1459,525,o),
(1459,524,cs),
(1432,442,o),
(1400,364,o),
(1365,289,cs),
(1359,277,o),
(1351,275,o),
(1342,282,cs),
(1329,291,o),
(1350,330,o),
(1354,338,cs),
(1359,347,o),
(1363,358,o),
(1367,368,c),
(1318,346,o),
(1265,328,o),
(1206,314,cs),
(1147,300,o),
(1091,286,o),
(1038,271,cs),
(953,247,l),
(952,244,o),
(950,238,o),
(945,227,c),
(920,176,o),
(881,134,o),
(828,102,cs),
(731,44,o),
(601,8,o),
(458,2,cs),
(393,-1,o),
(336,1,o),
(287,7,cs)
);
}
);
width = 1531;
},
{
anchors = (
{
name = bottom.mark;
pos = (519,-163);
},
{
name = top;
pos = (1239,703);
},
{
name = top.mark;
pos = (1213,782);
}
);
layerId = "EF321139-F770-433D-B2B6-C3EFA1B16465";
shapes = (
{
closed = 1;
nodes = (
(305,0,o),
(214,15,o),
(150,40,cs),
(112,55,o),
(83,74,o),
(61,98,cs),
(21,141,o),
(0,189,o),
(0,241,cs),
(0,244,o),
(0,245,o),
(0,249,cs),
(0,252,o),
(1,254,o),
(1,257,cs),
(9,323,o),
(37,381,o),
(72,426,cs),
(115,482,o),
(169,525,o),
(231,556,cs),
(337,610,o),
(461,644,o),
(615,650,cs),
(623,651,o),
(631,642,o),
(626,633,c),
(575,524,ls),
(574,521,o),
(569,517,o),
(565,517,cs),
(474,514,o),
(396,498,o),
(318,474,c),
(233,448,o),
(161,408,o),
(104,353,cs),
(88,338,o),
(80,323,o),
(78,306,c),
(77,291,o),
(91,272,o),
(118,248,cs),
(194,181,o),
(303,147,o),
(445,147,cs),
(459,147,l),
(556,155,o),
(658,164,o),
(737,191,cs),
(777,205,o),
(828,228,o),
(866,245,c),
(864,271,o),
(854,298,o),
(847,320,cs),
(844,331,o),
(841,341,o),
(837,351,cs),
(836,354,o),
(837,359,o),
(838,361,cs),
(904,459,ls),
(911,470,o),
(920,476,o),
(928,476,cs),
(952,476,o),
(951,428,o),
(953,402,cs),
(953,395,o),
(958,392,o),
(966,392,cs),
(972,392,o),
(975,393,o),
(980,394,cs),
(1008,400,l),
(1122,427,o),
(1249,450,o),
(1349,489,cs),
(1372,498,o),
(1394,510,o),
(1406,528,cs),
(1408,531,o),
(1410,532,o),
(1413,532,cs),
(1422,532,o),
(1434,525,o),
(1434,516,c),
(1407,436,o),
(1376,360,o),
(1341,286,cs),
(1332,266,o),
(1319,262,o),
(1302,274,c),
(1293,282,o),
(1291,295,o),
(1297,314,c),
(1301,324,o),
(1305,334,o),
(1310,344,c),
(1271,328,o),
(1227,315,o),
(1180,303,c),
(1123,290,o),
(1070,277,o),
(1019,262,cs),
(942,240,l),
(936,227,l),
(910,175,o),
(871,132,o),
(818,100,c),
(721,43,o),
(601,9,o),
(456,1,cs),
(447,0,o),
(438,0,o),
(428,0,cs),
(413,0,o),
(413,0,o),
(400,0,cs)
);
}
);
width = 1531;
}
);
},
{
glyphname = "seen-ar.fina";
layers = (
{
anchors = (
{
name = bottom;
pos = (510,13);
},
{
name = bottom.mark;
pos = (554,92);
},
{
name = entry;
pos = (571,321);
},
{
name = top;
pos = (545,681);
},
{
name = top.mark;
pos = (549,690);
}
);
layerId = "1467EB51-6BD4-4CFC-AEAA-3E4EB1A95CFA";
shapes = (
{
closed = 1;
nodes = (
(585,334,o),
(550,324,o),
(510,314,cs),
(505,313,o),
(500,312,o),
(498,320,c),
(490,315,o),
(476,306,o),
(427,290,c),
(402,223,o),
(392,187,o),
(350,126,cs),
(204,-85,o),
(-168,-56,o),
(88,410,cs),
(96,426,o),
(109,422,o),
(100,398,cs),
(69,329,o),
(-19,195,o),
(88,149,c),
(206,128,o),
(305,175,o),
(369,234,c),
(370,284,o),
(360,325,o),
(345,372,c),
(398,504,l),
(429,439,o),
(418,385,o),
(536,459,cs),
(549,469,o),
(554,489,o),
(562,503,cs),
(564,506,o),
(566,510,o),
(566,502,cs),
(567,485,o),
(564,465,o),
(560,449,c),
(609,458,o),
(642,487,o),
(653,531,cs),
(654,538,o),
(657,538,o),
(657,536,cs),
(650,469,o),
(639,404,o),
(606,361,cs)
);
}
);
width = 507;
},
{
anchors = (
{
name = bottom;
pos = (510,13);
},
{
name = bottom.mark;
pos = (554,92);
},
{
name = entry;
pos = (571,321);
},
{
name = top;
pos = (545,681);
},
{
name = top.mark;
pos = (549,690);
}
);
layerId = "EF321139-F770-433D-B2B6-C3EFA1B16465";
shapes = (
{
closed = 1;
nodes = (
(645,544,o),
(651,538,o),
(652,531,c),
(652,527,l),
(645,459,o),
(632,397,o),
(600,354,c),
(578,328,o),
(539,313,o),
(501,304,cs),
(498,303,o),
(495,302,o),
(493,302,cs),
(488,302,o),
(483,303,o),
(480,305,c),
(477,304,l),
(460,295,o),
(443,288,o),
(426,282,c),
(397,206,ls),
(388,183,o),
(374,156,o),
(353,127,c),
(317,74,o),
(270,37,o),
(213,16,cs),
(184,6,o),
(157,0,o),
(132,0,cs),
(109,0,o),
(87,6,o),
(66,16,c),
(66,15,l),
(23,36,o),
(1,86,o),
(-6,146,cs),
(-6,148,o),
(-7,150,o),
(-7,153,cs),
(-7,157,o),
(-7,158,o),
(-7,161,cs),
(-7,192,o),
(1,229,o),
(16,272,cs),
(31,315,o),
(52,362,o),
(80,413,cs),
(86,423,o),
(92,428,o),
(99,428,cs),
(110,428,o),
(116,420,o),
(116,410,cs),
(116,391,o),
(106,379,o),
(99,364,cs),
(84,334,o),
(65,302,o),
(57,265,cs),
(54,254,o),
(53,241,o),
(53,230,cs),
(53,195,o),
(63,180,o),
(94,167,c),
(115,163,o),
(133,162,o),
(150,162,cs),
(210,162,o),
(262,183,o),
(301,206,cs),
(319,216,o),
(335,229,o),
(350,242,c),
(350,245,ls),
(350,295,o),
(338,332,o),
(326,371,c),
(379,502,ls),
(383,512,o),
(395,513,o),
(400,503,cs),
(412,476,o),
(424,452,o),
(436,430,cs),
(437,429,o),
(438,429,o),
(440,429,cs),
(454,429,o),
(479,441,o),
(516,464,c),
(526,472,o),
(530,491,o),
(537,502,c),
(541,509,o),
(545,513,o),
(551,513,cs),
(559,513,o),
(563,506,o),
(563,497,cs),
(563,488,ls),
(563,479,o),
(563,470,o),
(562,461,c),
(597,471,o),
(615,492,o),
(624,527,cs),
(627,536,o),
(627,544,o),
(638,544,cs)
);
}
);
width = 507;
}
);
},
{
glyphname = "seen-ar.fina.jalt";
layers = (
{
anchors = (
{
name = bottom.mark;
pos = (523,-154);
},
{
name = entry;
pos = (1107,281);
},
{
name = top;
pos = (1081,690);
},
{
name = top.mark;
pos = (1020,690);
}
);
layerId = "1467EB51-6BD4-4CFC-AEAA-3E4EB1A95CFA";
shapes = (
{
closed = 1;
nodes = (
(960,248,o),
(960,248,o),
(959,248,c),
(959,248,l),
(953,247,l),
(952,244,o),
(950,238,o),
(945,227,c),
(920,176,o),
(881,134,o),
(828,102,cs),
(731,44,o),
(601,8,o),
(458,2,cs),
(393,-1,o),
(336,1,o),
(287,7,cs),
(178,21,o),
(102,51,o),
(59,98,cs),
(-33,198,o),
(-7,321,o),
(72,422,cs),
(152,524,o),
(266,581,o),
(409,618,cs),
(473,635,o),
(545,645,o),
(624,648,c),
(571,535,l),
(489,532,o),
(403,518,o),
(313,490,cs),
(223,462,o),
(148,420,o),
(87,362,cs),
(69,344,o),
(58,326,o),
(56,306,cs),
(54,286,o),
(69,262,o),
(101,235,cs),
(186,162,o),
(306,126,o),
(463,128,c),
(543,134,o),
(623,142,o),
(695,158,cs),
(731,165,o),
(773,180,o),
(822,201,cs),
(895,233,o),
(896,233,o),
(896,233,c),
(898,266,o),
(875,326,o),
(865,354,c),
(934,456,ls),
(945,473,o),
(952,472,o),
(956,453,cs),
(958,441,o),
(959,426,o),
(960,409,cs),
(961,392,o),
(970,383,o),
(987,382,c),
(987,383,l),
(987,383,l),
(1020,385,o),
(1051,402,o),
(1071,417,cs),
(1083,427,o),
(1088,447,o),
(1096,461,cs),
(1099,467,o),
(1101,466,o),
(1101,460,cs),
(1102,443,o),
(1100,426,o),
(1095,407,c),
(1145,416,o),
(1175,443,o),
(1187,489,c),
(1188,499,o),
(1190,501,o),
(1192,494,c),
(1185,426,o),
(1173,361,o),
(1140,319,cs),
(1127,302,o),
(1070,271,o),
(1041,271,cs),
(1036,271,o),
(1033,273,o),
(1032,278,c),
(1030,278,o),
(1025,276,o),
(1016,271,cs),
(997,262,o),
(979,254,o),
(961,248,cs)
);
}
);
width = 1042;
},
{
anchors = (
{
name = bottom.mark;
pos = (523,-154);
},
{
name = entry;
pos = (1107,281);
},
{
name = top;
pos = (1081,690);
},
{
name = top.mark;
pos = (1020,690);
}
);
layerId = "EF321139-F770-433D-B2B6-C3EFA1B16465";
shapes = (
{
closed = 1;
nodes = (
(939,240,o),
(940,239,o),
(939,239,c),
(934,227,l),
(908,175,o),
(868,132,o),
(816,100,cs),
(720,43,o),
(598,9,o),
(454,1,cs),
(445,0,o),
(436,0,o),
(426,0,cs),
(412,0,o),
(411,0,o),
(398,0,cs),
(303,0,o),
(211,15,o),
(147,40,cs),
(109,55,o),
(80,74,o),
(58,98,cs),
(18,141,o),
(-2,189,o),
(-2,241,cs),
(-2,244,o),
(-2,245,o),
(-2,249,cs),
(-2,252,o),
(-1,254,o),
(-1,257,cs),
(7,323,o),
(35,381,o),
(70,426,cs),
(113,482,o),
(167,525,o),
(229,556,cs),
(335,610,o),
(459,644,o),
(613,650,cs),
(621,651,o),
(628,642,o),
(624,633,cs),
(573,524,ls),
(572,521,o),
(566,517,o),
(562,517,cs),
(471,514,o),
(394,498,o),
(316,474,c),
(230,448,o),
(159,407,o),
(102,353,cs),
(87,339,o),
(78,323,o),
(76,306,cs),
(75,291,o),
(88,272,o),
(115,248,cs),
(192,181,o),
(301,147,o),
(443,147,cs),
(457,147,l),
(554,155,o),
(656,164,o),
(735,191,cs),
(775,205,o),
(826,228,o),
(864,245,c),
(862,270,o),
(852,298,o),
(845,320,cs),
(842,331,o),
(838,341,o),
(835,351,cs),
(834,354,o),
(835,359,o),
(836,361,cs),
(902,459,ls),
(909,470,o),
(917,476,o),
(925,476,cs),
(948,476,o),
(949,435,o),
(949,408,cs),
(949,399,o),
(954,395,o),
(963,394,c),
(991,396,o),
(1020,411,o),
(1038,424,c),
(1048,434,o),
(1052,451,o),
(1060,463,c),
(1077,498,o),
(1085,496,o),
(1085,457,c),
(1086,445,o),
(1085,432,o),
(1083,421,c),
(1116,432,o),
(1138,453,o),
(1146,487,c),
(1153,533,o),
(1161,531,o),
(1174,490,c),
(1166,421,o),
(1154,357,o),
(1121,313,cs),
(1105,291,o),
(1070,275,o),
(1041,266,cs),
(1031,263,o),
(1023,262,o),
(1016,262,cs),
(1011,262,o),
(1006,263,o),
(1003,266,c),
(983,256,o),
(963,246,o),
(940,240,cs)
);
}
);
width = 1042;
}
);
},
{
glyphname = "seen-ar.medi";
layers = (
{
anchors = (
{
name = bottom;
pos = (272,-127);
},
{
name = bottom.mark;
pos = (242,-149);
},
{
name = entry;
pos = (387,70);
},
{
name = exit;
},
{
name = top;
pos = (338,431);
},
{
name = top.mark;
pos = (352,461);
}
);
layerId = "1467EB51-6BD4-4CFC-AEAA-3E4EB1A95CFA";
shapes = (
{
closed = 1;
nodes = (
(150,34,o),
(90,29,o),
(0,0,cs),
(0,0,l),
(55,140,l),
(107,148,o),
(236,158,o),
(258,227,cs),
(260,234,o),
(262,218,o),
(263,214,cs),
(265,202,o),
(262,189,o),
(259,176,c),
(265,175,o),
(303,177,o),
(347,210,cs),
(360,220,o),
(364,240,o),
(372,254,cs),
(374,257,o),
(377,262,o),
(377,254,cs),
(378,237,o),
(375,216,o),
(371,200,c),
(420,209,o),
(452,238,o),
(463,282,cs),
(464,289,o),
(468,289,o),
(468,287,cs),
(461,220,o),
(449,156,o),
(416,113,cs),
(400,92,o),
(342,64,o),
(316,64,cs),
(312,64,o),
(309,67,o),
(308,71,cs),
(303,71,o),
(296,66,o),
(292,64,cs),
(275,56,o),
(259,48,o),
(238,41,cs),
(222,37,o),
(203,43,o),
(201,57,c),
(201,57,l)
);
}
);
width = 318;
},
{
anchors = (
{
name = bottom;
pos = (272,-127);
},
{
name = bottom.mark;
pos = (242,-149);
},
{
name = entry;
pos = (387,70);
},
{
name = exit;
},
{
name = top;
pos = (338,431);
},
{
name = top.mark;
pos = (352,461);
}
);
layerId = "EF321139-F770-433D-B2B6-C3EFA1B16465";
shapes = (
{
closed = 1;
nodes = (
(304,62,o),
(300,62,o),
(297,65,c),
(276,56,o),
(261,48,o),
(236,41,cs),
(229,39,o),
(224,38,o),
(219,38,cs),
(205,38,o),
(196,42,o),
(191,51,c),
(155,38,o),
(106,27,o),
(65,18,c),
(47,13,o),
(26,6,o),
(7,0,cs),
(-3,-3,o),
(-11,6,o),
(-7,16,cs),
(43,150,ls),
(44,153,o),
(50,158,o),
(54,158,c),
(57,159,l),
(55,159,l),
(91,164,o),
(125,171,o),
(164,178,c),
(207,187,o),
(233,206,o),
(242,235,cs),
(244,239,o),
(248,245,o),
(254,245,cs),
(262,245,o),
(266,237,o),
(268,230,c),
(270,220,l),
(270,214,ls),
(270,207,o),
(269,201,o),
(268,194,c),
(293,197,o),
(316,211,o),
(332,224,cs),
(345,234,o),
(346,272,o),
(366,272,cs),
(377,272,o),
(378,267,o),
(380,259,c),
(380,249,ls),
(380,239,o),
(379,230,o),
(378,221,c),
(413,231,o),
(431,252,o),
(440,287,c),
(439,287,l),
(440,293,o),
(442,296,o),
(446,299,c),
(455,307,o),
(457,305,o),
(464,298,cs),
(466,296,o),
(468,291,o),
(468,288,cs),
(461,219,o),
(448,156,o),
(416,113,c),
(407,101,o),
(390,90,o),
(366,78,c),
(342,68,o),
(324,62,o),
(310,62,cs)
);
}
);
width = 318;
}
);
},
{
glyphname = "seen-ar.medi.ain";
layers = (
{
anchors = (
{
name = bottom.mark;
pos = (431,-158);
},
{
name = entry;
pos = (470,62);
},
{
name = exit;
},
{
name = top;
pos = (426,510);
},
{
name = top.mark;
pos = (435,422);
}
);
layerId = "1467EB51-6BD4-4CFC-AEAA-3E4EB1A95CFA";
shapes = (
{
closed = 1;
nodes = (
(359,166,l),
(393,167,o),
(424,184,o),
(444,200,cs),
(456,209,o),
(462,230,o),
(470,244,cs),
(473,248,o),
(474,248,o),
(474,243,cs),
(475,225,o),
(473,208,o),
(468,190,c),
(518,199,o),
(549,226,o),
(561,272,c),
(562,282,o),
(563,284,o),
(565,277,c),
(558,209,o),
(547,144,o),
(514,102,cs),
(501,85,o),
(443,54,o),
(414,54,cs),
(410,54,o),
(407,57,o),
(406,61,c),
(404,61,o),
(399,58,o),
(390,53,c),
(372,45,o),
(355,37,o),
(335,31,c),
(313,25,o),
(300,31,o),
(298,47,c),
(240,22,o),
(138,-7,o),
(56,1,cs),
(28,4,o),
(1,19,o),
(0,48,c),
(13,99,o),
(26,141,o),
(39,175,c),
(48,142,o),
(90,131,o),
(132,129,cs),
(165,127,o),
(208,133,o),
(261,149,cs),
(314,165,o),
(346,188,o),
(355,217,cs),
(357,223,o),
(361,203,o),
(361,203,c),
(362,195,o),
(360,183,o),
(356,166,c)
);
}
);
width = 416;
},
{
anchors = (
{
name = bottom.mark;
pos = (431,-158);
},
{
name = entry;
pos = (470,62);
},
{
name = exit;
},
{
name = top;
pos = (426,510);
},
{
name = top.mark;
pos = (435,422);
}
);
layerId = "EF321139-F770-433D-B2B6-C3EFA1B16465";
shapes = (
{
closed = 1;
nodes = (
(398,52,o),
(395,53,o),
(392,56,c),
(387,54,o),
(382,50,o),
(377,48,cs),
(360,40,o),
(340,28,o),
(314,28,cs),
(300,28,o),
(291,32,o),
(286,41,c),
(238,23,o),
(157,0,o),
(90,0,cs),
(40,0,o),
(-5,11,o),
(-7,59,c),
(5,104,o),
(17,148,o),
(32,186,cs),
(36,197,o),
(51,196,o),
(54,185,cs),
(66,146,o),
(137,144,o),
(187,152,cs),
(207,155,o),
(229,160,o),
(254,167,cs),
(301,181,o),
(328,200,o),
(336,225,c),
(347,261,o),
(355,256,o),
(362,221,c),
(365,210,l),
(365,201,o),
(364,193,o),
(363,185,c),
(388,188,o),
(411,201,o),
(427,214,cs),
(438,221,o),
(442,242,o),
(449,253,cs),
(463,273,o),
(474,276,o),
(475,247,cs),
(476,236,o),
(475,220,o),
(473,211,c),
(508,221,o),
(526,241,o),
(535,276,c),
(542,322,o),
(550,322,o),
(563,280,c),
(555,211,o),
(544,147,o),
(511,104,cs),
(499,88,o),
(458,65,o),
(429,56,cs),
(420,53,o),
(411,52,o),
(404,52,cs)
);
}
);
width = 416;
}
);
},
{
glyphname = "seen-ar.medi.dal";
layers = (
{
anchors = (
{
name = bottom.mark;
pos = (338,-154);
},
{
name = entry;
pos = (396,40);
},
{
name = exit;
},
{
name = top;
pos = (356,457);
},
{
name = top.mark;
pos = (338,435);
}
);
layerId = "1467EB51-6BD4-4CFC-AEAA-3E4EB1A95CFA";
shapes = (
{
closed = 1;
nodes = (
(178,15,o),
(83,-14,o),
(39,7,cs),
(-27,40,o),
(1,150,o),
(47,203,cs),
(53,210,o),
(52,210,o),
(52,203,cs),
(52,184,o),
(55,169,o),
(62,158,cs),
(98,98,o),
(256,149,o),
(274,203,cs),
(276,210,o),
(278,193,o),
(279,189,cs),
(281,177,o),
(278,165,o),
(275,152,c),
(276,152,o),
(276,151,o),
(277,151,cs),
(310,152,o),
(342,170,o),
(363,186,cs),
(376,196,o),
(380,216,o),
(388,230,cs),
(390,233,o),
(393,237,o),
(393,229,cs),
(394,212,o),
(391,192,o),
(387,176,c),
(436,185,o),
(468,214,o),
(479,258,cs),
(480,265,o),
(484,265,o),
(484,263,cs),
(477,196,o),
(465,131,o),
(432,88,cs),
(416,67,o),
(358,40,o),
(332,40,cs),
(328,40,o),
(325,43,o),
(324,47,cs),
(319,47,o),
(312,41,o),
(308,39,cs),
(291,31,o),
(275,24,o),
(254,17,cs),
(238,13,o),
(219,19,o),
(217,33,c)
);
}
);
width = 333;
},
{
anchors = (
{
name = bottom.mark;
pos = (338,-154);
},
{
name = entry;
pos = (396,40);
},
{
name = exit;
},
{
name = top;
pos = (356,457);
},
{
name = top.mark;
pos = (338,435);
}
);
layerId = "EF321139-F770-433D-B2B6-C3EFA1B16465";
shapes = (
{
closed = 1;
nodes = (
(478,277,o),
(484,271,o),
(483,264,cs),
(476,197,o),
(463,132,o),
(431,90,c),
(419,73,o),
(378,52,o),
(349,43,cs),
(340,40,o),
(332,39,o),
(325,39,cs),
(320,39,o),
(316,40,o),
(312,43,c),
(310,42,o),
(308,40,o),
(306,39,cs),
(296,35,l),
(278,26,o),
(260,15,o),
(234,15,cs),
(220,15,o),
(211,19,o),
(206,28,c),
(183,19,o),
(159,13,o),
(132,7,cs),
(113,2,o),
(96,0,o),
(82,0,cs),
(24,0,o),
(-9,33,o),
(-9,84,cs),
(-9,117,o),
(0,146,o),
(10,169,cs),
(18,187,o),
(29,203,o),
(41,217,cs),
(45,221,o),
(49,223,o),
(53,223,cs),
(62,223,o),
(66,218,o),
(66,208,cs),
(66,204,ls),
(66,167,o),
(86,150,o),
(125,150,cs),
(166,150,o),
(203,165,o),
(228,181,cs),
(244,192,o),
(254,202,o),
(257,212,cs),
(259,216,o),
(263,222,o),
(269,222,cs),
(280,222,o),
(286,205,o),
(286,193,cs),
(286,191,o),
(286,191,o),
(286,189,cs),
(286,183,o),
(285,177,o),
(284,171,c),
(309,174,o),
(331,189,o),
(347,201,cs),
(358,209,o),
(363,230,o),
(370,242,c),
(374,247,o),
(378,249,o),
(382,249,cs),
(389,249,o),
(394,243,o),
(395,236,c),
(395,230,ls),
(395,219,o),
(394,208,o),
(393,198,c),
(427,208,o),
(446,228,o),
(455,263,c),
(456,271,o),
(460,276,o),
(467,278,c),
(471,277,l)
);
}
);
width = 333;
}
);
},
{
glyphname = "seen-ar.medi.feh";
layers = (
{
anchors = (
{
name = bottom.mark;
pos = (519,-149);
},
{
name = entry;
pos = (580,66);
},
{
name = exit;
},
{
name = top;
pos = (557,468);
},
{
name = top.mark;
pos = (545,488);
}
);
layerId = "1467EB51-6BD4-4CFC-AEAA-3E4EB1A95CFA";
shapes = (
{
closed = 1;
nodes = (
(478,179,l),
(512,180,o),
(544,198,o),
(564,213,cs),
(576,222,o),
(581,243,o),
(589,257,c),
(591,263,o),
(593,262,o),
(594,256,cs),
(595,238,o),
(592,221,o),
(587,203,c),
(637,212,o),
(669,239,o),
(680,285,cs),
(681,288,o),
(685,293,o),
(685,290,cs),
(678,222,o),
(666,158,o),
(633,116,cs),
(620,99,o),
(562,67,o),
(533,67,cs),
(528,67,o),
(526,70,o),
(525,74,c),
(521,74,o),
(512,68,o),
(509,67,cs),
(489,57,o),
(471,49,o),
(455,44,c),
(433,38,o),
(420,44,o),
(418,60,c),
(374,41,o),
(284,23,o),
(231,14,cs),
(162,2,o),
(104,-2,o),
(56,2,cs),
(28,5,o),
(1,19,o),
(0,48,c),
(13,99,o),
(26,142,o),
(39,176,c),
(46,150,o),
(70,136,o),
(110,132,cs),
(150,128,o),
(194,129,o),
(240,135,cs),
(270,139,o),
(314,147,o),
(372,160,cs),
(430,173,o),
(464,196,o),
(475,230,cs),
(477,237,o),
(480,216,o),
(480,216,c),
(481,208,o),
(480,196,o),
(476,179,c)
);
}
);
width = 535;
},
{
anchors = (
{
name = bottom.mark;
pos = (519,-149);
},
{
name = entry;
pos = (580,66);
},
{
name = exit;
},
{
name = top;
pos = (557,468);
},
{
name = top.mark;
pos = (545,488);
}
);
layerId = "EF321139-F770-433D-B2B6-C3EFA1B16465";
shapes = (
{
closed = 1;
nodes = (
(417,41,o),
(408,46,o),
(402,54,c),
(353,36,o),
(287,23,o),
(231,13,cs),
(189,6,o),
(144,0,o),
(99,0,cs),
(46,0,o),
(-4,9,o),
(-6,60,c),
(6,105,o),
(18,148,o),
(33,186,cs),
(37,197,o),
(52,196,o),
(55,185,cs),
(65,151,o),
(113,148,o),
(158,148,cs),
(234,148,o),
(294,163,o),
(362,177,c),
(413,189,o),
(444,209,o),
(453,238,c),
(453,237,l),
(463,273,o),
(472,272,o),
(479,233,c),
(481,222,l),
(482,216,o),
(482,208,o),
(480,198,c),
(504,202,o),
(527,215,o),
(543,227,cs),
(553,236,o),
(558,255,o),
(565,266,c),
(579,299,o),
(588,303,o),
(591,260,cs),
(592,248,o),
(591,235,o),
(589,225,c),
(624,235,o),
(641,256,o),
(651,290,c),
(653,301,o),
(658,313,o),
(668,309,cs),
(673,307,o),
(679,298,o),
(679,291,c),
(672,223,o),
(660,159,o),
(627,117,cs),
(613,99,o),
(575,78,o),
(546,69,cs),
(537,66,o),
(528,65,o),
(521,65,cs),
(516,65,o),
(512,66,o),
(508,69,c),
(488,59,o),
(470,50,o),
(448,43,cs),
(442,41,o),
(437,41,o),
(430,41,cs)
);
}
);
width = 535;
}
);
},
{
glyphname = "seen-ar.medi.hah";
layers = (
{
anchors = (
{
name = bottom.mark;
pos = (413,26);
},
{
name = entry;
pos = (505,198);
},
{
name = exit;
},
{
name = top;
pos = (444,514);
},
{
name = top.mark;
pos = (448,624);
}
);
layerId = "1467EB51-6BD4-4CFC-AEAA-3E4EB1A95CFA";
shapes = (
{
closed = 1;
nodes = (
(501,393,o),
(505,397,o),
(505,390,cs),
(506,373,o),
(505,355,o),
(500,336,c),
(547,319,o),
(584,384,o),
(592,418,c),
(594,429,o),
(595,431,o),
(597,423,c),
(592,379,o),
(580,330,o),
(561,278,cs),
(542,226,o),
(503,200,o),
(445,200,cs),
(440,200,o),
(437,202,o),
(437,207,c),
(435,207,o),
(430,205,o),
(421,200,cs),
(406,193,o),
(382,186,o),
(350,180,cs),
(318,174,o),
(304,188,o),
(308,221,cs),
(313,266,o),
(271,250,o),
(243,235,cs),
(203,214,o),
(151,174,o),
(118,145,c),
(118,145,l),
(63,94,o),
(53,68,o),
(12,2,c),
(9,-1,o),
(0,-1,o),
(0,5,cs),
(3,43,o),
(17,106,o),
(30,138,c),
(43,162,o),
(60,179,o),
(76,198,cs),
(109,237,o),
(167,288,o),
(213,320,cs),
(240,339,o),
(266,355,o),
(292,365,cs),
(318,375,o),
(339,377,o),
(355,369,cs),
(367,363,o),
(374,351,o),
(375,334,cs),
(377,303,o),
(398,297,o),
(437,316,cs),
(476,335,o),
(497,360,o),
(501,390,cs)
);
}
);
width = 447;
},
{
anchors = (
{
name = bottom.mark;
pos = (413,26);
},
{
name = entry;
pos = (505,198);
},
{
name = exit;
},
{
name = top;
pos = (444,514);
},
{
name = top.mark;
pos = (448,624);
}
);
layerId = "EF321139-F770-433D-B2B6-C3EFA1B16465";
shapes = (
{
closed = 1;
nodes = (
(429,193,o),
(425,194,o),
(422,197,c),
(421,196,o),
(420,196,o),
(420,196,cs),
(420,196,o),
(419,195,o),
(417,194,cs),
(397,185,o),
(373,178,o),
(345,174,cs),
(303,167,o),
(286,186,o),
(291,227,cs),
(291,233,o),
(290,242,o),
(286,242,cs),
(271,243,o),
(258,236,o),
(245,229,c),
(245,229,l),
(207,208,o),
(161,173,o),
(127,144,c),
(106,124,o),
(87,106,o),
(73,83,cs),
(25,6,l),
(15,-6,o),
(-7,4,o),
(-7,18,cs),
(-4,60,o),
(10,117,o),
(24,152,c),
(35,172,o),
(47,187,o),
(61,202,c),
(61,202,l),
(69,211,l),
(116,266,o),
(179,319,o),
(244,356,cs),
(266,368,o),
(296,385,o),
(325,385,cs),
(358,385,o),
(376,364,o),
(379,335,cs),
(380,324,o),
(385,318,o),
(393,318,cs),
(400,318,o),
(410,322,o),
(422,328,cs),
(455,344,o),
(475,364,o),
(478,389,c),
(480,394,o),
(505,394,o),
(505,388,cs),
(506,372,o),
(504,358,o),
(501,345,c),
(504,345,ls),
(535,345,o),
(560,395,o),
(565,417,c),
(573,470,o),
(584,475,o),
(593,422,c),
(588,370,o),
(574,321,o),
(558,276,c),
(539,226,o),
(501,193,o),
(436,193,cs)
);
}
);
width = 447;
}
);
},
{
glyphname = "seen-ar.medi.heh";
layers = (
{
anchors = (
{
name = bottom.mark;
pos = (505,-57);
},
{
name = entry;
pos = (677,171);
},
{
name = exit;
},
{
name = top;
pos = (650,584);
},
{
name = top.mark;
pos = (611,580);
}
);
layerId = "1467EB51-6BD4-4CFC-AEAA-3E4EB1A95CFA";
shapes = (
{
closed = 1;
nodes = (
(500,315,ls),
(524,315,o),
(529,299,o),
(539,285,c),
(540,286,ls),
(540,285,ls),
(555,248,o),
(629,301,o),
(639,308,cs),
(651,317,o),
(656,339,o),
(664,352,cs),
(667,357,o),
(667,356,o),
(668,351,cs),
(669,334,o),
(667,316,o),
(662,297,c),
(711,306,o),
(742,334,o),
(754,380,cs),
(755,383,o),
(759,388,o),
(759,385,cs),
(752,317,o),
(741,252,o),
(708,210,cs),
(695,193,o),
(637,162,o),
(608,162,cs),
(603,162,o),
(601,164,o),
(600,168,c),
(595,168,o),
(586,163,o),
(583,161,cs),
(542,140,o),
(515,135,o),
(500,144,cs),
(485,153,o),
(471,163,o),
(460,174,cs),
(449,185,o),
(433,191,o),
(413,191,cs),
(393,191,o),
(357,173,o),
(305,136,cs),
(262,105,o),
(227,67,o),
(193,26,cs),
(153,-21,o),
(126,-62,o),
(111,-98,cs),
(96,-134,o),
(73,-190,o),
(44,-248,cs),
(25,-288,o),
(12,-299,o),
(6,-282,cs),
(0,-265,o),
(-1,-235,o),
(2,-194,cs),
(5,-156,l),
(5,-155,l),
(58,-90,l),
(58,-91,l),
(54,-121,l),
(62,-105,l),
(63,-103,l),
(102,-25,o),
(144,55,o),
(196,122,cs),
(223,157,o),
(267,199,o),
(329,247,cs),
(391,295,o),
(446,318,o),
(496,315,c)
);
}
);
width = 609;
},
{
anchors = (
{
name = bottom.mark;
pos = (505,-57);
},
{
name = entry;
pos = (677,171);
},
{
name = exit;
},
{
name = top;
pos = (650,584);
},
{
name = top.mark;
pos = (611,580);
}
);
layerId = "EF321139-F770-433D-B2B6-C3EFA1B16465";
shapes = (
{
closed = 1;
nodes = (
(505,328,o),
(516,323,o),
(522,313,c),
(539,292,l),
(541,287,o),
(543,286,o),
(547,286,cs),
(563,286,o),
(586,299,o),
(596,305,cs),
(608,312,o),
(617,315,o),
(623,327,cs),
(628,337,o),
(632,348,o),
(638,357,c),
(650,382,o),
(661,384,o),
(664,352,cs),
(665,340,o),
(664,327,o),
(662,316,c),
(692,327,o),
(714,352,o),
(724,382,c),
(727,396,o),
(739,408,o),
(749,393,cs),
(751,390,o),
(752,387,o),
(752,383,cs),
(745,315,o),
(732,251,o),
(700,208,cs),
(682,186,o),
(627,157,o),
(594,157,cs),
(589,157,o),
(585,158,o),
(581,161,c),
(567,152,o),
(549,144,o),
(536,140,cs),
(524,136,o),
(514,135,o),
(505,135,cs),
(497,135,o),
(490,136,o),
(483,140,cs),
(468,149,o),
(454,159,o),
(443,171,cs),
(434,180,o),
(421,185,o),
(405,185,c),
(388,186,o),
(356,168,o),
(308,133,c),
(308,133,l),
(268,104,o),
(234,68,o),
(202,30,cs),
(173,-6,o),
(141,-47,o),
(124,-88,cs),
(105,-132,o),
(85,-177,o),
(63,-225,cs),
(62,-228,o),
(62,-230,o),
(60,-232,c),
(45,-265,o),
(19,-307,o),
(1,-265,c),
(-3,-253,o),
(-5,-235,o),
(-5,-212,cs),
(-5,-201,o),
(-4,-188,o),
(-3,-175,cs),
(0,-133,l),
(54,-69,ls),
(57,-65,o),
(60,-63,o),
(65,-64,c),
(113,31,o),
(166,124,o),
(240,194,cs),
(282,233,o),
(350,289,o),
(406,312,cs),
(434,324,o),
(461,329,o),
(486,328,c),
(489,328,ls)
);
}
);
width = 609;
}
);
},
{
glyphname = "seen-ar.medi.ragaa";
layers = (
{
anchors = (
{
name = bottom.mark;
pos = (333,-97);
},
{
name = entry;
pos = (446,118);
},
{
name = exit;
},
{
name = top;
pos = (392,521);
},
{
name = top.mark;
pos = (414,537);
}
);
layerId = "1467EB51-6BD4-4CFC-AEAA-3E4EB1A95CFA";
shapes = (
{
closed = 1;
nodes = (
(423,263,o),
(429,284,o),
(437,298,cs),
(440,303,o),
(440,302,o),
(441,297,c),
(441,278,o),
(440,260,o),
(435,244,c),
(484,253,o),
(515,280,o),
(527,326,cs),
(527,329,o),
(529,331,o),
(530,332,cs),
(531,333,o),
(532,332,o),
(532,331,cs),
(525,264,o),
(513,198,o),
(480,156,cs),
(467,139,o),
(410,108,o),
(381,108,cs),
(376,108,o),
(374,111,o),
(373,115,c),
(371,115,o),
(365,112,o),
(356,107,cs),
(341,100,o),
(318,94,o),
(286,88,cs),
(254,82,o),
(239,95,o),
(243,129,cs),
(249,182,o),
(193,148,o),
(167,131,cs),
(135,110,o),
(114,93,o),
(102,77,cs),
(90,61,o),
(71,36,o),
(47,1,c),
(46,0,l),
(0,32,l),
(7,51,o),
(23,79,o),
(47,116,cs),
(71,153,o),
(93,179,o),
(112,195,cs),
(138,217,o),
(167,236,o),
(199,250,cs),
(231,264,o),
(264,270,o),
(299,266,cs),
(308,265,o),
(312,260,o),
(311,253,cs),
(307,220,o),
(319,210,o),
(347,221,cs),
(375,232,o),
(397,243,o),
(411,254,cs)
);
}
);
width = 382;
},
{
anchors = (
{
name = bottom.mark;
pos = (333,-97);
},
{
name = entry;
pos = (446,118);
},
{
name = exit;
},
{
name = top;
pos = (392,521);
},
{
name = top.mark;
pos = (414,537);
}
);
layerId = "EF321139-F770-433D-B2B6-C3EFA1B16465";
shapes = (
{
closed = 1;
nodes = (
(299,282,o),
(320,279,o),
(317,255,c),
(316,241,o),
(318,234,o),
(322,234,cs),
(326,234,o),
(329,235,o),
(334,237,cs),
(360,247,o),
(381,258,o),
(394,268,c),
(394,267,l),
(406,276,o),
(417,329,o),
(433,326,cs),
(438,325,o),
(441,316,o),
(443,300,c),
(444,288,o),
(443,276,o),
(441,266,c),
(472,276,o),
(491,297,o),
(500,330,c),
(501,342,o),
(506,352,o),
(517,348,cs),
(523,346,o),
(530,339,o),
(530,331,cs),
(523,263,o),
(511,197,o),
(478,155,cs),
(466,139,o),
(426,118,o),
(397,109,cs),
(388,106,o),
(379,104,o),
(372,104,cs),
(366,104,o),
(362,106,o),
(359,108,c),
(338,97,o),
(312,89,o),
(282,84,cs),
(239,77,o),
(221,95,o),
(227,139,cs),
(228,148,o),
(226,151,o),
(222,151,cs),
(210,149,o),
(193,141,o),
(173,128,cs),
(111,89,o),
(99,62,o),
(60,6,cs),
(56,1,o),
(48,-3,o),
(42,2,c),
(-3,33,ls),
(-6,35,o),
(-9,42,o),
(-7,48,cs),
(3,77,o),
(21,104,o),
(39,132,cs),
(59,163,o),
(79,190,o),
(104,211,cs),
(131,233,o),
(160,251,o),
(191,265,cs),
(217,276,o),
(245,282,o),
(273,282,cs)
);
}
);
width = 382;
}
);
},
{
glyphname = "seen-ar.medi.reh";
layers = (
{
anchors = (
{
name = bottom.mark;
pos = (325,-141);
},
{
name = entry;
pos = (396,48);
},
{
name = exit;
},
{
name = top;
pos = (378,457);
},
{
name = top.mark;
pos = (338,444);
}
);
layerId = "1467EB51-6BD4-4CFC-AEAA-3E4EB1A95CFA";
shapes = (
{
closed = 1;
nodes = (
(249,203,o),
(259,201,o),
(259,191,cs),
(259,190,ls),
(259,186,o),
(259,183,o),
(259,179,cs),
(259,162,o),
(265,153,o),
(277,153,cs),
(282,153,o),
(289,154,o),
(296,157,cs),
(324,168,o),
(345,179,o),
(359,190,cs),
(371,199,o),
(377,220,o),
(385,234,cs),
(386,236,o),
(387,238,o),
(388,238,cs),
(389,238,o),
(389,237,o),
(389,234,cs),
(389,226,ls),
(389,211,o),
(387,196,o),
(383,181,c),
(433,190,o),
(464,217,o),
(475,263,cs),
(476,266,o),
(476,269,o),
(479,269,cs),
(479,269,o),
(480,269,o),
(480,268,cs),
(473,200,o),
(462,135,o),
(429,93,cs),
(416,76,o),
(358,45,o),
(329,45,cs),
(324,45,o),
(321,47,o),
(320,51,c),
(318,51,o),
(314,49,o),
(305,44,cs),
(290,37,o),
(266,30,o),
(234,24,cs),
(229,23,o),
(225,23,o),
(221,23,cs),
(201,23,o),
(191,34,o),
(191,55,cs),
(191,58,o),
(191,61,o),
(191,65,cs),
(191,66,ls),
(191,71,o),
(188,74,o),
(180,74,cs),
(173,74,o),
(162,72,o),
(148,67,cs),
(118,58,o),
(91,49,o),
(70,41,c),
(58,34,o),
(45,24,o),
(34,13,c),
(28,4,o),
(22,0,o),
(16,0,cs),
(6,0,o),
(0,11,o),
(0,21,cs),
(0,24,o),
(0,28,o),
(1,32,c),
(1,33,ls),
(1,36,o),
(10,50,o),
(11,52,cs),
(21,76,o),
(28,103,o),
(40,126,cs),
(51,147,o),
(82,166,o),
(134,182,cs),
(179,196,o),
(213,203,o),
(237,203,cs)
);
}
);
width = 330;
},
{
anchors = (
{
name = bottom.mark;
pos = (325,-141);
},
{
name = entry;
pos = (396,48);
},
{
name = exit;
},
{
name = top;
pos = (378,457);
},
{
name = top.mark;
pos = (338,444);
}
);
layerId = "EF321139-F770-433D-B2B6-C3EFA1B16465";
shapes = (
{
closed = 1;
nodes = (
(387,253,o),
(392,246,o),
(392,238,cs),
(392,230,ls),
(392,220,o),
(391,212,o),
(390,203,c),
(425,213,o),
(442,233,o),
(451,268,c),
(452,274,o),
(454,277,o),
(458,280,c),
(467,289,o),
(469,287,o),
(477,279,cs),
(478,277,o),
(479,273,o),
(479,270,cs),
(472,202,o),
(461,136,o),
(428,94,cs),
(411,72,o),
(354,43,o),
(322,43,cs),
(316,43,o),
(312,45,o),
(309,47,c),
(292,36,o),
(269,30,o),
(232,23,c),
(232,24,l),
(227,23,o),
(222,22,o),
(217,22,cs),
(190,22,o),
(177,36,o),
(177,65,cs),
(177,72,l),
(155,70,o),
(128,59,o),
(110,53,cs),
(98,49,o),
(87,45,o),
(77,41,c),
(66,34,o),
(56,26,o),
(46,17,c),
(39,6,o),
(30,0,o),
(20,0,cs),
(15,0,o),
(10,1,o),
(5,5,c),
(5,5,l),
(-4,11,o),
(-8,21,o),
(-8,33,cs),
(-8,37,o),
(-7,40,o),
(-6,45,cs),
(-5,49,o),
(0,61,o),
(3,66,cs),
(5,71,o),
(7,75,o),
(9,80,cs),
(11,87,o),
(12,86,o),
(14,93,cs),
(26,129,o),
(33,151,o),
(66,171,cs),
(95,189,o),
(148,206,o),
(189,214,cs),
(207,218,o),
(222,219,o),
(233,219,cs),
(236,219,o),
(236,219,o),
(239,219,cs),
(257,219,o),
(267,211,o),
(267,194,cs),
(267,192,o),
(266,190,o),
(266,189,cs),
(266,187,o),
(266,187,o),
(266,185,cs),
(266,176,o),
(268,171,o),
(272,171,cs),
(276,171,o),
(283,174,o),
(286,175,cs),
(307,183,o),
(329,193,o),
(344,205,c),
(344,205,l),
(354,212,o),
(360,234,o),
(366,245,cs),
(370,251,o),
(374,253,o),
(379,253,cs)
);
}
);
width = 330;
}
);
},
{
glyphname = "seen-ar.medi.sad";
layers = (
{
anchors = (
{
name = bottom.mark;
pos = (510,-127);
},
{
name = entry;
pos = (646,79);
},
{
name = exit;
},
{
name = top;
pos = (633,510);
},
{
name = top.mark;
pos = (602,510);
}
);
layerId = "1467EB51-6BD4-4CFC-AEAA-3E4EB1A95CFA";
shapes = (
{
closed = 1;
nodes = (
(523,236,o),
(525,221,o),
(525,221,cs),
(525,217,ls),
(525,210,o),
(524,199,o),
(521,184,c),
(521,184,ls),
(521,184,o),
(522,183,o),
(523,183,cs),
(557,184,o),
(589,202,o),
(609,217,cs),
(621,227,o),
(626,247,o),
(634,261,cs),
(635,264,o),
(636,265,o),
(637,265,cs),
(638,265,o),
(639,264,o),
(639,261,cs),
(639,257,ls),
(639,240,o),
(636,224,o),
(632,208,c),
(681,217,o),
(713,244,o),
(725,290,cs),
(726,293,o),
(727,294,o),
(728,295,c),
(729,295,ls),
(730,295,o),
(729,295,o),
(729,294,cs),
(722,226,o),
(711,162,o),
(678,120,cs),
(665,103,o),
(607,72,o),
(578,72,cs),
(573,72,o),
(571,74,o),
(570,79,c),
(568,79,o),
(563,76,o),
(554,71,cs),
(535,61,o),
(517,54,o),
(500,49,cs),
(494,48,o),
(489,47,o),
(484,47,cs),
(471,47,o),
(464,53,o),
(462,65,c),
(419,45,o),
(356,29,o),
(272,15,cs),
(214,5,o),
(165,0,o),
(126,0,cs),
(64,0,o),
(14,14,o),
(5,57,cs),
(3,68,o),
(1,79,o),
(1,91,cs),
(1,111,o),
(5,132,o),
(12,154,cs),
(23,190,o),
(37,224,o),
(57,258,cs),
(77,292,o),
(92,316,o),
(102,331,cs),
(103,333,o),
(104,333,o),
(106,333,cs),
(108,333,o),
(111,333,o),
(111,330,cs),
(111,329,o),
(111,328,o),
(110,326,cs),
(84,275,o),
(71,235,o),
(71,207,cs),
(71,142,o),
(126,128,o),
(195,128,cs),
(288,128,o),
(380,150,o),
(448,180,cs),
(483,196,o),
(507,213,o),
(520,234,cs),
(520,235,o),
(520,236,o),
(521,236,cs)
);
}
);
width = 580;
},
{
anchors = (
{
name = bottom.mark;
pos = (510,-127);
},
{
name = entry;
pos = (646,79);
},
{
name = exit;
},
{
name = top;
pos = (633,510);
},
{
name = top.mark;
pos = (602,510);
}
);
layerId = "EF321139-F770-433D-B2B6-C3EFA1B16465";
shapes = (
{
closed = 1;
nodes = (
(521,184,o),
(521,183,o),
(522,184,cs),
(523,185,o),
(523,187,o),
(522,190,c),
(522,189,o),
(522,189,o),
(522,189,cs),
(522,189,o),
(522,189,o),
(522,188,cs)
);
},
{
closed = 1;
nodes = (
(377,31,o),
(236,0,o),
(128,0,cs),
(110,0,o),
(95,1,o),
(81,3,c),
(80,3,l),
(20,11,o),
(-4,40,o),
(-4,100,cs),
(-4,147,o),
(11,182,o),
(26,217,cs),
(45,263,o),
(72,304,o),
(98,341,c),
(101,343,o),
(104,345,o),
(109,345,cs),
(112,345,o),
(114,344,o),
(117,343,c),
(115,344,l),
(122,342,o),
(125,338,o),
(125,330,cs),
(125,327,o),
(125,326,o),
(124,324,cs),
(99,275,o),
(87,238,o),
(87,212,cs),
(87,157,o),
(138,147,o),
(194,147,cs),
(198,147,o),
(199,147,o),
(203,147,cs),
(291,147,o),
(372,168,o),
(434,197,cs),
(465,211,o),
(486,226,o),
(498,244,c),
(500,248,o),
(504,252,o),
(510,252,cs),
(520,252,o),
(520,247,o),
(523,239,c),
(525,228,l),
(525,222,ls),
(525,216,o),
(525,209,o),
(524,202,c),
(548,206,o),
(571,219,o),
(587,231,c),
(587,231,l),
(595,237,o),
(599,252,o),
(604,262,cs),
(606,266,o),
(607,267,o),
(609,271,cs),
(612,276,o),
(614,280,o),
(622,280,cs),
(632,280,o),
(633,275,o),
(635,267,c),
(635,260,ls),
(635,249,o),
(634,239,o),
(633,229,c),
(668,239,o),
(685,259,o),
(694,294,c),
(695,302,o),
(700,307,o),
(707,309,c),
(711,308,l),
(718,308,o),
(724,302,o),
(723,295,cs),
(716,225,o),
(703,164,o),
(670,121,cs),
(657,103,o),
(619,82,o),
(590,73,cs),
(581,70,o),
(572,69,o),
(565,69,cs),
(559,69,o),
(555,70,o),
(552,74,c),
(533,63,o),
(509,53,o),
(492,48,cs),
(486,46,o),
(480,45,o),
(474,45,cs),
(460,45,o),
(451,50,o),
(446,59,c)
);
}
);
width = 580;
}
);
},
{
glyphname = "seen-ar.init";
layers = (
{
anchors = (
{
name = bottom;
pos = (290,-180);
},
{
name = bottom.mark;
pos = (281,-141);
},
{
name = exit;
},
{
name = top;
pos = (312,409);
},
{
name = top.mark;
pos = (352,461);
}
);
layerId = "1467EB51-6BD4-4CFC-AEAA-3E4EB1A95CFA";
shapes = (
{
closed = 1;
nodes = (
(625,222,o),
(593,144,o),
(558,69,cs),
(552,57,o),
(545,55,o),
(536,62,c),
(523,71,o),
(543,110,o),
(547,118,cs),
(552,127,o),
(557,137,o),
(561,147,c),
(467,105,o),
(337,80,o),
(231,50,c),
(0,0,l),
(21,135,l),
(162,160,o),
(278,185,o),
(415,215,cs),
(485,230,o),
(540,246,o),
(581,262,cs),
(607,272,o),
(632,286,o),
(646,308,cs),
(648,310,o),
(653,306,o),
(652,304,cs)
);
}
);
width = 685;
},
{
anchors = (
{
name = bottom;
pos = (290,-180);
},
{
name = bottom.mark;
pos = (281,-141);
},
{
name = exit;
},
{
name = top;
pos = (312,409);
},
{
name = top.mark;
pos = (352,461);
}
);
layerId = "EF321139-F770-433D-B2B6-C3EFA1B16465";
shapes = (
{
closed = 1;
nodes = (
(621,224,o),
(589,144,o),
(556,73,cs),
(548,56,o),
(534,49,o),
(516,62,cs),
(498,76,o),
(516,115,o),
(523,131,c),
(435,96,o),
(327,77,o),
(232,49,c),
(8,0,ls),
(-1,-2,o),
(-7,6,o),
(-6,14,cs),
(14,145,ls),
(15,149,o),
(19,153,o),
(23,154,cs),
(59,160,o),
(92,167,o),
(124,173,cs),
(206,189,l),
(325,214,o),
(458,236,o),
(562,276,cs),
(585,285,o),
(608,298,o),
(621,317,c),
(629,325,o),
(649,312,o),
(647,303,c),
(647,302,l)
);
}
);
width = 685;
}
);
},
{
glyphname = "seen-ar.init.ain";
layers = (
{
anchors = (
{
name = bottom.mark;
pos = (404,-141);
},
{
name = exit;
},
{
name = top;
pos = (448,492);
},
{
name = top.mark;
pos = (444,492);
}
);
layerId = "1467EB51-6BD4-4CFC-AEAA-3E4EB1A95CFA";
shapes = (
{
closed = 1;
nodes = (
(665,196,o),
(633,118,o),
(596,39,cs),
(590,27,o),
(583,25,o),
(574,32,c),
(568,36,o),
(568,45,o),
(574,59,c),
(580,79,o),
(591,98,o),
(599,117,c),
(525,84,o),
(414,52,o),
(321,32,cs),
(269,21,o),
(220,12,o),
(172,6,cs),
(124,0,o),
(86,-2,o),
(56,1,cs),
(28,4,o),
(1,19,o),
(0,48,c),
(13,99,o),
(26,141,o),
(39,175,c),
(47,146,o),
(78,131,o),
(133,131,cs),
(257,130,o),
(400,165,o),
(502,195,cs),
(562,213,o),
(600,225,o),
(619,232,cs),
(645,242,o),
(670,256,o),
(684,278,cs),
(686,280,o),
(691,276,o),
(690,274,cs)
);
}
);
width = 725;
},
{
anchors = (
{
name = bottom.mark;
pos = (404,-141);
},
{
name = exit;
},
{
name = top;
pos = (448,492);
},
{
name = top.mark;
pos = (444,492);
}
);
layerId = "EF321139-F770-433D-B2B6-C3EFA1B16465";
shapes = (
{
closed = 1;
nodes = (
(658,193,o),
(628,118,o),
(593,44,cs),
(584,24,o),
(570,20,o),
(553,33,cs),
(537,45,o),
(549,73,o),
(555,88,cs),
(558,95,o),
(558,96,o),
(561,103,c),
(469,65,o),
(354,36,o),
(243,16,cs),
(197,8,o),
(139,0,o),
(92,0,cs),
(41,0,o),
(-4,10,o),
(-6,59,c),
(6,104,o),
(18,148,o),
(33,186,cs),
(37,197,o),
(52,196,o),
(55,185,cs),
(67,144,o),
(158,149,o),
(216,155,cs),
(338,168,o),
(456,201,o),
(558,233,cs),
(594,244,o),
(607,248,o),
(632,264,cs),
(642,271,o),
(651,279,o),
(658,289,c),
(666,297,o),
(686,283,o),
(684,274,c),
(684,273,l)
);
}
);
width = 725;
}
);
},
{
glyphname = "seen-ar.init.dal";
layers = (
{
anchors = (
{
name = bottom.mark;
pos = (321,-136);
},
{
name = exit;
},
{
name = top;
pos = (347,448);
},
{
name = top.mark;
pos = (391,435);
}
);
layerId = "1467EB51-6BD4-4CFC-AEAA-3E4EB1A95CFA";
shapes = (
{
closed = 1;
nodes = (
(673,246,o),
(628,132,o),
(589,51,cs),
(579,31,o),
(555,47,o),
(566,72,cs),
(592,131,l),
(380,38,o),
(98,-22,o),
(40,6,cs),
(-27,39,o),
(6,149,o),
(48,205,cs),
(50,208,o),
(52,207,o),
(52,205,cs),
(47,174,o),
(60,140,o),
(86,133,cs),
(192,106,o),
(547,205,o),
(651,265,cs),
(662,271,o),
(669,283,o),
(678,291,cs),
(681,293,o),
(683,290,o),
(682,286,cs)
);
}
);
width = 696;
},
{
anchors = (
{
name = bottom.mark;
pos = (321,-136);
},
{
name = exit;
},
{
name = top;
pos = (347,448);
},
{
name = top.mark;
pos = (391,435);
}
);
layerId = "EF321139-F770-433D-B2B6-C3EFA1B16465";
shapes = (
{
closed = 1;
nodes = (
(68,207,o),
(66,201,o),
(66,196,cs),
(66,175,o),
(78,155,o),
(92,151,cs),
(96,150,o),
(101,149,o),
(107,148,c),
(289,158,o),
(448,200,o),
(593,260,cs),
(617,269,o),
(639,282,o),
(652,302,c),
(660,310,o),
(679,294,o),
(677,284,cs),
(652,207,o),
(619,128,o),
(586,58,cs),
(577,38,o),
(564,34,o),
(547,46,c),
(528,61,o),
(547,101,o),
(555,117,c),
(483,89,o),
(420,67,o),
(366,50,cs),
(312,33,o),
(265,23,o),
(227,17,cs),
(145,5,o),
(97,0,o),
(83,0,cs),
(27,0,o),
(-6,33,o),
(-6,81,cs),
(-6,88,o),
(-5,97,o),
(-3,107,c),
(-3,107,l),
(6,150,o),
(20,187,o),
(42,217,cs),
(47,223,o),
(52,225,o),
(56,225,cs),
(68,225,o),
(68,222,o),
(68,212,cs)
);
}
);
width = 696;
}
);
},
{
glyphname = "seen-ar.init.feh";
layers = (
{
anchors = (
{
name = bottom.mark;
pos = (435,-163);
},
{
name = exit;
},
{
name = top;
pos = (545,554);
},
{
name = top.mark;
pos = (497,475);
}
);
layerId = "1467EB51-6BD4-4CFC-AEAA-3E4EB1A95CFA";
shapes = (
{
closed = 1;
nodes = (
(772,220,o),
(740,142,o),
(705,67,cs),
(699,55,o),
(692,53,o),
(683,60,c),
(670,69,o),
(689,108,o),
(694,116,cs),
(699,125,o),
(704,135,o),
(708,145,c),
(628,110,o),
(493,72,o),
(390,47,cs),
(325,32,o),
(263,19,o),
(202,10,cs),
(141,1,o),
(92,-3,o),
(56,1,cs),
(28,4,o),
(1,19,o),
(0,48,c),
(13,99,o),
(26,141,o),
(39,175,c),
(48,144,o),
(86,130,o),
(154,133,cs),
(301,139,o),
(478,182,o),
(602,220,cs),
(672,241,o),
(714,255,o),
(728,261,cs),
(760,273,o),
(781,288,o),
(792,306,cs),
(794,309,o),
(799,303,o),
(799,302,cs)
);
}
);
width = 839;
},
{
anchors = (
{
name = bottom.mark;
pos = (435,-163);
},
{
name = exit;
},
{
name = top;
pos = (545,554);
},
{
name = top.mark;
pos = (497,475);
}
);
layerId = "EF321139-F770-433D-B2B6-C3EFA1B16465";
shapes = (
{
closed = 1;
nodes = (
(765,222,o),
(732,142,o),
(699,71,cs),
(690,51,o),
(676,48,o),
(659,60,c),
(650,68,o),
(649,81,o),
(655,100,c),
(658,112,o),
(662,119,o),
(667,129,c),
(610,106,o),
(542,87,o),
(478,69,cs),
(392,45,o),
(299,24,o),
(204,9,cs),
(169,4,o),
(131,0,o),
(94,0,cs),
(43,0,o),
(-3,10,o),
(-5,59,c),
(7,104,o),
(19,148,o),
(34,186,cs),
(38,197,o),
(53,196,o),
(56,185,cs),
(62,163,o),
(90,151,o),
(139,151,cs),
(143,151,o),
(143,151,o),
(147,151,cs),
(149,151,o),
(151,152,o),
(154,152,cs),
(333,160,o),
(520,215,o),
(666,261,cs),
(712,275,o),
(746,287,o),
(766,317,cs),
(774,326,o),
(793,310,o),
(791,301,c),
(791,300,l)
);
}
);
width = 839;
}
);
},
{
glyphname = "seen-ar.init.hah";
layers = (
{
anchors = (
{
name = bottom.mark;
pos = (422,-44);
},
{
name = exit;
pos = (10,0);
},
{
name = top;
pos = (470,628);
},
{
name = top.mark;
pos = (439,576);
}
);
layerId = "1467EB51-6BD4-4CFC-AEAA-3E4EB1A95CFA";
shapes = (
{
closed = 1;
nodes = (
(691,357,o),
(622,208,o),
(594,146,c),
(572,128,l),
(634,268,l),
(597,251,o),
(540,231,o),
(464,209,cs),
(388,187,o),
(328,169,o),
(284,158,cs),
(245,148,o),
(208,139,o),
(175,130,cs),
(119,115,o),
(92,86,o),
(57,48,cs),
(43,33,o),
(31,18,o),
(21,2,c),
(18,-1,o),
(10,-1,o),
(10,5,c),
(13,19,o),
(23,47,o),
(42,87,cs),
(61,127,o),
(83,164,o),
(109,197,cs),
(133,227,o),
(161,246,o),
(193,261,cs),
(208,268,o),
(235,276,o),
(274,286,cs),
(356,306,o),
(454,330,o),
(537,351,cs),
(581,362,o),
(617,373,o),
(642,383,cs),
(668,393,o),
(692,407,o),
(706,429,cs),
(708,431,o),
(714,427,o),
(713,425,cs)
);
}
);
width = 749;
},
{
anchors = (
{
name = bottom.mark;
pos = (422,-44);
},
{
name = exit;
pos = (10,0);
},
{
name = top;
pos = (470,628);
},
{
name = top.mark;
pos = (439,576);
}
);
layerId = "EF321139-F770-433D-B2B6-C3EFA1B16465";
shapes = (
{
closed = 1;
nodes = (
(675,327,o),
(628,233,o),
(590,146,c),
(566,127,ls),
(557,119,o),
(543,130,o),
(548,141,cs),
(595,248,l),
(560,234,o),
(515,220,o),
(458,203,c),
(361,174,o),
(275,151,o),
(178,126,cs),
(149,118,o),
(122,104,o),
(103,85,c),
(104,85,l),
(97,78,o),
(97,79,o),
(88,70,cs),
(82,64,o),
(76,57,o),
(69,50,c),
(70,50,l),
(57,36,o),
(45,22,o),
(35,6,c),
(25,-6,o),
(4,3,o),
(4,17,c),
(9,45,o),
(23,72,o),
(36,101,cs),
(55,142,o),
(76,176,o),
(103,209,c),
(103,209,l),
(126,239,o),
(153,259,o),
(188,275,cs),
(201,281,o),
(228,290,o),
(268,300,c),
(391,330,l),
(468,349,o),
(554,366,o),
(622,393,cs),
(646,402,o),
(667,414,o),
(680,435,c),
(687,442,o),
(707,429,o),
(706,420,c),
(706,419,l)
);
}
);
width = 749;
}
);
},
{
glyphname = "seen-ar.init.heh";
layers = (
{
anchors = (
{
name = bottom.mark;
pos = (545,-26);
},
{
name = exit;
},
{
name = top;
pos = (606,650);
},
{
name = top.mark;
pos = (606,589);
}
);
layerId = "1467EB51-6BD4-4CFC-AEAA-3E4EB1A95CFA";
shapes = (
{
closed = 1;
nodes = (
(823,359,o),
(791,281,o),
(753,200,cs),
(747,188,o),
(739,185,o),
(730,192,c),
(718,200,o),
(738,241,o),
(742,249,cs),
(747,258,o),
(751,268,o),
(755,278,c),
(688,248,o),
(607,225,o),
(512,208,cs),
(374,184,o),
(313,154,o),
(246,85,cs),
(228,66,o),
(210,47,o),
(193,26,cs),
(153,-21,o),
(126,-62,o),
(111,-98,cs),
(96,-134,o),
(73,-190,o),
(44,-248,cs),
(25,-288,o),
(12,-299,o),
(6,-282,cs),
(0,-265,o),
(-1,-235,o),
(2,-194,cs),
(5,-156,l),
(5,-155,l),
(58,-90,l),
(58,-91,l),
(54,-121,l),
(62,-105,l),
(63,-103,l),
(102,-25,o),
(144,55,o),
(196,122,cs),
(243,183,o),
(288,225,o),
(330,252,cs),
(411,303,o),
(496,323,o),
(605,342,cs),
(656,351,o),
(713,368,o),
(776,393,cs),
(802,403,o),
(826,416,o),
(840,438,cs),
(842,441,o),
(847,436,o),
(847,435,cs)
);
}
);
width = 889;
},
{
anchors = (
{
name = bottom.mark;
pos = (545,-26);
},
{
name = exit;
},
{
name = top;
pos = (606,650);
},
{
name = top.mark;
pos = (606,589);
}
);
layerId = "EF321139-F770-433D-B2B6-C3EFA1B16465";
shapes = (
{
closed = 1;
nodes = (
(688,200,o),
(705,242,o),
(713,257,c),
(651,232,o),
(580,214,o),
(504,201,cs),
(429,188,o),
(357,167,o),
(309,133,cs),
(249,90,o),
(196,27,o),
(155,-33,cs),
(127,-75,o),
(119,-100,o),
(98,-148,cs),
(88,-171,o),
(77,-197,o),
(64,-225,cs),
(63,-228,o),
(63,-230,o),
(61,-232,c),
(46,-264,o),
(19,-308,o),
(2,-265,cs),
(-3,-251,o),
(-4,-232,o),
(-4,-212,cs),
(-4,-201,o),
(-4,-188,o),
(-3,-175,cs),
(0,-133,l),
(54,-69,ls),
(57,-65,o),
(61,-63,o),
(66,-64,c),
(102,7,o),
(139,75,o),
(187,136,cs),
(227,187,o),
(269,233,o),
(320,265,cs),
(358,288,o),
(404,311,o),
(450,323,c),
(494,335,o),
(540,346,o),
(589,354,cs),
(638,362,o),
(692,378,o),
(752,402,cs),
(776,411,o),
(799,424,o),
(812,445,c),
(820,454,o),
(839,439,o),
(837,429,c),
(837,428,l),
(812,348,o),
(781,274,o),
(746,200,cs),
(736,179,o),
(723,175,o),
(706,188,c),
(707,188,l)
);
}
);
width = 889;
}
);
},
{
glyphname = "seen-ar.init.meem";
layers = (
{
anchors = (
{
name = bottom.mark;
pos = (396,-18);
},
{
name = exit;
pos = (5,10);
},
{
name = top;
pos = (453,611);
},
{
name = top.mark;
pos = (461,545);
}
);
layerId = "1467EB51-6BD4-4CFC-AEAA-3E4EB1A95CFA";
shapes = (
{
closed = 1;
nodes = (
(237,209,o),
(207,208,o),
(171,184,c),
(115,146,o),
(57,61,o),
(18,0,c),
(0,0,l),
(1,1,o),
(3,6,o),
(5,13,cs),
(7,20,o),
(13,32,o),
(21,50,cs),
(56,127,o),
(108,217,o),
(166,275,cs),
(200,309,o),
(258,348,o),
(320,313,c),
(334,305,o),
(343,295,o),
(348,284,cs),
(363,249,o),
(415,273,o),
(434,293,cs),
(451,311,o),
(462,330,o),
(467,349,c),
(470,354,o),
(472,353,o),
(472,348,cs),
(473,331,o),
(471,314,o),
(466,295,c),
(515,304,o),
(546,331,o),
(558,377,c),
(559,387,o),
(561,389,o),
(563,382,c),
(556,315,o),
(543,248,o),
(511,208,c),
(499,191,o),
(441,159,o),
(412,159,cs),
(407,159,o),
(404,162,o),
(403,166,c),
(398,166,o),
(390,160,o),
(387,159,cs),
(363,145,o),
(341,139,o),
(322,141,c),
(299,142,o),
(283,151,o),
(274,166,cs),
(261,188,l)
);
}
);
width = 590;
},
{
anchors = (
{
name = bottom.mark;
pos = (396,-18);
},
{
name = exit;
pos = (5,10);
},
{
name = top;
pos = (453,611);
},
{
name = top.mark;
pos = (461,545);
}
);
layerId = "EF321139-F770-433D-B2B6-C3EFA1B16465";
shapes = (
{
closed = 1;
nodes = (
(239,194,o),
(230,196,o),
(221,196,cs),
(204,196,o),
(189,188,o),
(176,180,c),
(117,137,o),
(71,69,o),
(32,5,cs),
(31,3,o),
(24,0,o),
(21,0,cs),
(5,0,ls),
(-22,0,o),
(9,54,o),
(14,65,cs),
(38,121,o),
(70,176,o),
(104,224,c),
(133,264,o),
(172,308,o),
(217,329,cs),
(230,335,o),
(248,340,o),
(265,340,cs),
(284,340,o),
(301,335,o),
(319,325,c),
(335,315,o),
(346,304,o),
(352,291,cs),
(355,285,o),
(359,282,o),
(364,282,cs),
(406,280,o),
(437,322,o),
(445,353,c),
(460,377,o),
(472,389,o),
(472,349,cs),
(473,336,o),
(472,324,o),
(470,312,c),
(503,322,o),
(523,345,o),
(532,378,c),
(539,428,o),
(548,428,o),
(561,382,c),
(553,315,o),
(541,246,o),
(508,205,c),
(508,205,l),
(497,190,o),
(480,180,o),
(460,171,c),
(460,171,l),
(436,159,o),
(416,154,o),
(402,154,cs),
(397,154,o),
(394,155,o),
(390,158,c),
(384,155,l),
(385,155,l),
(359,140,o),
(335,134,o),
(314,136,c),
(287,138,o),
(269,148,o),
(259,166,cs),
(247,187,l)
);
}
);
width = 590;
}
);
},
{
glyphname = "seen-ar.init.ragaa";
layers = (
{
anchors = (
{
name = bottom.mark;
pos = (306,-70);
},
{
name = exit;
},
{
name = top;
pos = (387,537);
},
{
name = top.mark;
pos = (387,484);
}
);
layerId = "1467EB51-6BD4-4CFC-AEAA-3E4EB1A95CFA";
shapes = (
{
closed = 1;
nodes = (
(423,263,o),
(429,284,o),
(437,298,cs),
(440,303,o),
(440,302,o),
(441,297,c),
(441,278,o),
(440,260,o),
(435,244,c),
(484,253,o),
(515,280,o),
(527,326,cs),
(527,329,o),
(529,331,o),
(530,332,cs),
(531,333,o),
(532,332,o),
(532,331,cs),
(525,264,o),
(513,198,o),
(480,156,cs),
(467,139,o),
(410,108,o),
(381,108,cs),
(376,108,o),
(374,111,o),
(373,115,c),
(371,115,o),
(365,112,o),
(356,107,cs),
(341,100,o),
(318,94,o),
(286,88,cs),
(254,82,o),
(239,95,o),
(243,129,cs),
(249,182,o),
(193,148,o),
(167,131,cs),
(135,110,o),
(114,93,o),
(102,77,cs),
(90,61,o),
(71,36,o),
(47,1,c),
(46,0,l),
(0,32,l),
(7,51,o),
(23,79,o),
(47,116,cs),
(71,153,o),
(93,179,o),
(112,195,cs),
(138,217,o),
(167,236,o),
(199,250,cs),
(231,264,o),
(264,270,o),
(299,266,cs),
(308,265,o),
(312,260,o),
(311,253,cs),
(307,220,o),
(319,210,o),
(347,221,cs),
(375,232,o),
(397,243,o),
(411,254,cs)
);
}
);
width = 678;
},
{
anchors = (
{
name = bottom.mark;
pos = (306,-70);
},
{
name = exit;
},
{
name = top;
pos = (387,537);
},
{
name = top.mark;
pos = (387,484);
}
);
layerId = "EF321139-F770-433D-B2B6-C3EFA1B16465";
shapes = (
{
closed = 1;
nodes = (
(299,282,o),
(320,279,o),
(317,255,c),
(316,241,o),
(318,234,o),
(322,234,cs),
(326,234,o),
(329,235,o),
(334,237,cs),
(360,247,o),
(381,258,o),
(394,268,c),
(394,267,l),
(406,276,o),
(417,329,o),
(433,326,cs),
(438,325,o),
(441,316,o),
(443,300,c),
(444,288,o),
(443,276,o),
(441,266,c),
(472,276,o),
(491,297,o),
(500,330,c),
(501,342,o),
(506,352,o),
(517,348,cs),
(523,346,o),
(530,339,o),
(530,331,cs),
(523,263,o),
(511,197,o),
(478,155,cs),
(466,139,o),
(426,118,o),
(397,109,cs),
(388,106,o),
(379,104,o),
(372,104,cs),
(366,104,o),
(362,106,o),
(359,108,c),
(338,97,o),
(312,89,o),
(282,84,cs),
(239,77,o),
(221,95,o),
(227,139,cs),
(228,148,o),
(226,151,o),
(222,151,cs),
(210,149,o),
(193,141,o),
(173,128,cs),
(111,89,o),
(99,62,o),
(60,6,cs),
(56,1,o),
(48,-3,o),
(42,2,c),
(-3,33,ls),
(-6,35,o),
(-9,42,o),
(-7,48,cs),
(3,77,o),
(21,104,o),
(39,132,cs),
(59,163,o),
(79,190,o),
(104,211,cs),
(131,233,o),
(160,251,o),
(191,265,cs),
(217,276,o),
(245,282,o),
(273,282,cs)
);
}
);
width = 678;
}
);
},
{
glyphname = "seen-ar.init.reh";
layers = (
{
anchors = (
{
name = bottom;
pos = (325,-79);
},
{
name = bottom.mark;
pos = (404,-101);
},
{
name = exit;
},
{
name = top;
pos = (356,475);
},
{
name = top.mark;
pos = (382,448);
}
);
layerId = "1467EB51-6BD4-4CFC-AEAA-3E4EB1A95CFA";
shapes = (
{
closed = 1;
nodes = (
(181,190,l),
(194,192,o),
(194,192,o),
(207,194,c),
(219,196,o),
(258,204,o),
(322,218,cs),
(409,236,o),
(576,283,o),
(635,307,cs),
(667,319,o),
(688,334,o),
(699,352,cs),
(701,355,o),
(706,349,o),
(706,348,cs),
(679,266,o),
(647,188,o),
(612,113,cs),
(606,101,o),
(598,98,o),
(589,105,c),
(576,114,o),
(596,154,o),
(601,162,cs),
(606,171,o),
(610,181,o),
(614,191,c),
(510,145,o),
(347,102,o),
(216,75,c),
(182,64,o),
(138,56,o),
(112,51,cs),
(89,47,o),
(63,35,o),
(43,15,c),
(32,-2,o),
(22,-4,o),
(13,9,cs),
(4,22,o),
(8,37,o),
(23,55,c),
(23,56,l),
(29,69,o),
(35,81,o),
(42,92,c),
(63,145,o),
(103,178,o),
(164,187,cs),
(170,188,o),
(175,189,o),
(181,190,c)
);
}
);
width = 706;
},
{
anchors = (
{
name = bottom;
pos = (325,-79);
},
{
name = bottom.mark;
pos = (404,-101);
},
{
name = exit;
},
{
name = top;
pos = (356,475);
},
{
name = top.mark;
pos = (382,448);
}
);
layerId = "EF321139-F770-433D-B2B6-C3EFA1B16465";
shapes = (
{
closed = 1;
nodes = (
(14,0,o),
(2,18,o),
(2,35,cs),
(2,51,o),
(10,62,o),
(18,73,c),
(23,84,o),
(30,95,o),
(36,106,c),
(49,138,o),
(68,162,o),
(93,178,c),
(92,178,l),
(111,190,o),
(136,200,o),
(162,204,cs),
(179,207,l),
(179,208,l),
(205,211,l),
(204,211,l),
(314,234,l),
(375,247,o),
(437,263,o),
(495,281,c),
(544,296,o),
(580,306,o),
(615,319,cs),
(643,329,o),
(663,344,o),
(675,362,c),
(683,371,o),
(701,352,o),
(699,342,cs),
(674,265,o),
(641,186,o),
(608,116,cs),
(600,99,o),
(586,91,o),
(568,104,cs),
(559,111,o),
(557,125,o),
(563,144,cs),
(566,156,o),
(571,164,o),
(576,174,c),
(494,140,o),
(384,111,o),
(288,88,c),
(288,88,l),
(265,82,o),
(241,78,o),
(218,73,c),
(203,68,l),
(173,61,o),
(144,55,o),
(116,49,cs),
(94,45,o),
(73,33,o),
(58,20,c),
(49,7,o),
(40,0,o),
(31,0,cs)
);
}
);
width = 706;
}
);
},
{
glyphname = "seen-ar.init.sad";
layers = (
{
anchors = (
{
name = bottom.mark;
pos = (461,-127);
},
{
name = exit;
},
{
name = top;
pos = (602,483);
},
{
name = top.mark;
pos = (606,466);
}
);
layerId = "1467EB51-6BD4-4CFC-AEAA-3E4EB1A95CFA";
shapes = (
{
closed = 1;
nodes = (
(751,288,o),
(753,285,o),
(753,284,cs),
(753,283,l),
(729,207,o),
(697,129,o),
(659,48,cs),
(655,41,o),
(651,37,o),
(646,37,cs),
(639,37,o),
(633,42,o),
(633,50,cs),
(633,66,o),
(641,84,o),
(648,97,cs),
(653,106,o),
(658,116,o),
(662,126,c),
(587,92,o),
(500,69,o),
(413,46,c),
(364,34,o),
(308,23,o),
(246,11,cs),
(207,4,o),
(171,0,o),
(137,0,cs),
(116,0,o),
(98,1,o),
(79,4,cs),
(22,12,o),
(1,37,o),
(1,92,cs),
(1,112,o),
(5,133,o),
(12,155,cs),
(23,191,o),
(37,225,o),
(57,259,cs),
(77,293,o),
(92,317,o),
(102,332,cs),
(103,334,o),
(104,334,o),
(106,334,cs),
(108,334,o),
(111,334,o),
(111,331,cs),
(111,330,o),
(111,329,o),
(110,327,cs),
(85,276,o),
(72,236,o),
(72,208,cs),
(72,203,l),
(76,150,o),
(115,130,o),
(172,130,cs),
(215,130,o),
(253,137,o),
(297,145,c),
(428,173,o),
(568,197,o),
(682,242,cs),
(714,254,o),
(736,269,o),
(747,287,cs),
(748,288,o),
(748,288,o),
(749,288,cs)
);
}
);
width = 791;
},
{
anchors = (
{
name = bottom.mark;
pos = (461,-127);
},
{
name = exit;
},
{
name = top;
pos = (602,483);
},
{
name = top.mark;
pos = (606,466);
}
);
layerId = "EF321139-F770-433D-B2B6-C3EFA1B16465";
shapes = (
{
closed = 1;
nodes = (
(90,163,o),
(124,149,o),
(173,149,cs),
(177,149,o),
(176,149,o),
(180,149,cs),
(200,149,o),
(220,153,o),
(239,155,cs),
(256,157,o),
(273,160,o),
(292,163,c),
(292,163,l),
(356,177,o),
(419,190,o),
(484,203,c),
(544,216,o),
(609,235,o),
(661,256,c),
(690,267,o),
(709,280,o),
(719,297,c),
(721,299,o),
(726,301,o),
(729,301,cs),
(732,301,o),
(735,300,o),
(740,298,c),
(744,295,o),
(746,291,o),
(746,286,c),
(746,282,l),
(722,203,o),
(689,126,o),
(654,53,cs),
(650,44,o),
(642,35,o),
(630,35,cs),
(617,35,o),
(606,46,o),
(606,61,cs),
(606,80,o),
(615,97,o),
(622,111,c),
(533,75,o),
(435,51,o),
(333,28,cs),
(276,15,o),
(208,0,o),
(139,0,cs),
(118,0,o),
(99,1,o),
(81,4,cs),
(35,10,o),
(8,30,o),
(0,65,cs),
(-2,76,o),
(-4,88,o),
(-4,101,cs),
(-4,149,o),
(11,183,o),
(26,218,cs),
(33,236,o),
(42,253,o),
(51,269,cs),
(66,295,o),
(82,319,o),
(98,342,c),
(101,344,o),
(104,346,o),
(109,346,cs),
(112,346,o),
(114,345,o),
(117,344,c),
(115,345,l),
(122,343,o),
(125,339,o),
(125,331,cs),
(125,328,o),
(126,327,o),
(125,325,cs),
(100,276,o),
(87,238,o),
(87,213,cs),
(87,208,l)
);
}
);
width = 791;
}
);
},
{
glyphname = "seen-ar.init.yeh";
layers = (
{
anchors = (
{
name = bottom.mark;
pos = (404,-57);
},
{
name = exit;
pos = (-5,0);
},
{
name = top;
pos = (413,523);
},
{
name = top.mark;
pos = (404,475);
}
);
layerId = "1467EB51-6BD4-4CFC-AEAA-3E4EB1A95CFA";
shapes = (
{
closed = 1;
nodes = (
(187,162,o),
(152,157,o),
(112,120,cs),
(72,83,o),
(38,42,o),
(9,0,c),
(9,0,l),
(0,44,l),
(0,46,l),
(29,102,o),
(73,173,o),
(117,217,cs),
(141,241,o),
(167,258,o),
(194,268,cs),
(221,278,o),
(248,276,o),
(276,260,cs),
(298,247,o),
(312,232,o),
(317,217,cs),
(322,202,o),
(348,213,o),
(398,251,cs),
(410,260,o),
(416,281,o),
(424,295,cs),
(427,301,o),
(428,301,o),
(428,295,cs),
(429,278,o),
(427,260,o),
(422,241,c),
(472,250,o),
(503,278,o),
(514,324,cs),
(516,333,o),
(518,335,o),
(520,329,c),
(513,261,o),
(501,196,o),
(468,154,cs),
(455,137,o),
(397,105,o),
(368,105,cs),
(363,105,o),
(360,107,o),
(359,112,c),
(357,112,o),
(353,110,o),
(344,105,cs),
(295,78,o),
(262,75,o),
(244,99,cs),
(226,123,o),
(217,135,o),
(217,135,cs)
);
}
);
width = 545;
},
{
anchors = (
{
name = bottom.mark;
pos = (404,-57);
},
{
name = exit;
pos = (1,0);
},
{
name = top;
pos = (413,523);
},
{
name = top.mark;
pos = (404,475);
}
);
layerId = "EF321139-F770-433D-B2B6-C3EFA1B16465";
shapes = (
{
closed = 1;
nodes = (
(245,80,o),
(230,100,o),
(218,119,c),
(218,118,l),
(206,134,l),
(196,143,o),
(185,147,o),
(175,147,cs),
(158,147,o),
(141,138,o),
(121,119,cs),
(84,84,o),
(52,47,o),
(23,5,cs),
(16,-4,o),
(4,-2,o),
(1,9,cs),
(-7,52,l),
(-7,59,l),
(8,89,o),
(25,116,o),
(43,146,c),
(79,202,o),
(125,258,o),
(188,282,cs),
(200,287,o),
(212,289,o),
(223,289,cs),
(242,289,o),
(260,283,o),
(277,273,cs),
(301,259,o),
(316,243,o),
(322,225,c),
(325,220,o),
(369,255,o),
(382,264,c),
(394,276,o),
(429,374,o),
(430,297,cs),
(431,286,o),
(430,271,o),
(428,261,c),
(461,272,o),
(482,294,o),
(490,327,c),
(499,367,o),
(509,369,o),
(518,329,c),
(509,252,o),
(497,171,o),
(446,136,cs),
(430,125,o),
(405,112,o),
(385,106,cs),
(375,103,o),
(367,102,o),
(360,102,cs),
(355,102,o),
(351,103,o),
(347,105,c),
(319,91,o),
(294,80,o),
(273,80,cs)
);
}
);
width = 545;
}
);
},
{
glyphname = "sheen-ar";
layers = (
{
anchors = (
{
name = bottom.mark;
pos = (602,26);
},
{
name = top.mark;
pos = (655,725);
}
);
layerId = "1467EB51-6BD4-4CFC-AEAA-3E4EB1A95CFA";
shapes = (
{
closed = 1;
nodes = (
(934,421,o),
(893,338,o),
(845,264,cs),
(830,245,o),
(823,255,o),
(826,262,cs),
(839,295,o),
(855,316,o),
(869,349,c),
(768,290,o),
(653,258,o),
(528,222,c),
(483,220,o),
(479,273,o),
(437,240,cs),
(366,184,o),
(321,26,o),
(238,0,c),
(203,2,o),
(184,24,o),
(176,54,cs),
(165,94,o),
(167,170,o),
(149,196,cs),
(141,208,o),
(127,222,o),
(107,215,cs),
(64,201,o),
(38,168,o),
(17,134,cs),
(12,126,o),
(8,119,o),
(0,112,c),
(32,206,o),
(46,262,o),
(128,322,cs),
(150,338,o),
(172,350,o),
(186,342,cs),
(206,330,o),
(212,302,o),
(213,270,cs),
(214,224,o),
(205,194,o),
(226,153,cs),
(236,134,o),
(265,130,o),
(283,143,cs),
(331,176,o),
(362,226,o),
(395,274,cs),
(444,344,o),
(477,397,o),
(568,346,c),
(675,367,o),
(768,401,o),
(860,436,cs),
(902,452,o),
(938,476,o),
(970,504,c),
(970,504,o),
(975,508,o),
(973,504,cs)
);
}
);
width = 1000;
},
{
anchors = (
{
name = bottom.mark;
pos = (602,26);
},
{
name = top.mark;
pos = (655,725);
}
);
layerId = "EF321139-F770-433D-B2B6-C3EFA1B16465";
shapes = (
{
closed = 1;
nodes = (
(520,379,o),
(538,371,o),
(559,359,c),
(655,379,o),
(748,412,o),
(833,444,cs),
(871,459,o),
(906,482,o),
(935,508,cs),
(942,514,o),
(956,525,o),
(962,516,cs),
(964,514,o),
(963,503,o),
(958,493,cs),
(920,411,o),
(880,331,o),
(834,259,c),
(822,242,o),
(810,239,o),
(800,246,c),
(792,252,o),
(790,260,o),
(794,269,cs),
(801,287,o),
(808,302,o),
(817,317,c),
(730,271,o),
(624,243,o),
(520,214,c),
(493,213,o),
(473,221,o),
(462,239,c),
(462,239,l),
(460,242,o),
(458,243,o),
(457,243,cs),
(452,243,o),
(446,240,o),
(438,234,cs),
(401,204,o),
(374,160,o),
(351,111,cs),
(323,51,o),
(286,14,o),
(241,0,c),
(171,2,o),
(161,68,o),
(156,137,cs),
(155,165,o),
(151,185,o),
(144,195,c),
(144,194,l),
(139,200,o),
(129,212,o),
(117,208,c),
(82,195,o),
(56,164,o),
(37,135,c),
(37,136,l),
(30,125,o),
(17,99,o),
(1,110,cs),
(-3,112,o),
(-5,118,o),
(-3,125,cs),
(11,166,o),
(25,203,o),
(41,239,cs),
(59,277,o),
(90,307,o),
(125,333,cs),
(155,355,o),
(179,363,o),
(196,353,c),
(216,341,o),
(227,314,o),
(228,273,c),
(228,256,ls),
(228,240,o),
(227,226,o),
(226,214,c),
(226,185,o),
(239,141,o),
(275,161,c),
(319,191,o),
(349,240,o),
(380,284,c),
(400,314,o),
(425,343,o),
(450,365,cs),
(461,373,o),
(475,379,o),
(493,379,cs)
);
}
);
width = 1000;
}
);
unicode = 1588;
},
{
glyphname = "sad-ar";
layers = (
{
anchors = (
{
name = bottom;
pos = (558,92);
},
{
name = bottom.mark;
pos = (589,97);
},
{
name = top;
pos = (610,781);
},
{
name = top.mark;
pos = (633,791);
}
);
layerId = "1467EB51-6BD4-4CFC-AEAA-3E4EB1A95CFA";
shapes = (
{
closed = 1;
nodes = (
(203,-85,o),
(-169,-56,o),
(87,410,cs),
(95,426,o),
(108,422,o),
(99,398,cs),
(68,329,o),
(-18,186,o),
(87,149,cs),
(180,116,o),
(304,175,o),
(368,234,c),
(370,290,o),
(357,335,o),
(343,379,c),
(397,504,l),
(430,431,o),
(427,399,o),
(486,412,c),
(486,412,l),
(486,412,o),
(557,498,o),
(667,603,cs),
(698,632,o),
(775,652,o),
(809,612,cs),
(851,562,o),
(806,503,o),
(772,458,cs),
(719,387,o),
(629,336,o),
(542,314,cs),
(502,304,o),
(453,294,o),
(420,289,c),
(408,231,o),
(383,175,o),
(349,126,cs)
);
},
{
closed = 1;
nodes = (
(709,521,o),
(670,534,o),
(642,519,cs),
(595,494,o),
(561,455,o),
(525,418,c),
(595,432,o),
(663,446,o),
(720,473,cs),
(731,478,o),
(725,491,o),
(721,499,cs)
);
}
);
width = 881;
},
{
anchors = (
{
name = bottom;
pos = (558,92);
},
{
name = bottom.mark;
pos = (589,97);
},
{
name = top;
pos = (610,781);
},
{
name = top.mark;
pos = (633,791);
}
);
layerId = "EF321139-F770-433D-B2B6-C3EFA1B16465";
shapes = (
{
closed = 1;
nodes = (
(781,637,o),
(818,600,o),
(818,558,cs),
(818,545,o),
(815,533,o),
(808,521,c),
(808,521,l),
(771,451,o),
(727,395,o),
(660,355,cs),
(594,316,o),
(513,294,o),
(423,280,c),
(410,226,o),
(387,175,o),
(354,127,cs),
(318,74,o),
(271,37,o),
(214,16,cs),
(185,6,o),
(158,0,o),
(133,0,cs),
(110,0,o),
(88,6,o),
(67,16,c),
(67,15,l),
(24,36,o),
(2,86,o),
(-5,146,cs),
(-5,148,o),
(-5,150,o),
(-5,153,cs),
(-5,157,o),
(-5,158,o),
(-5,161,cs),
(-5,192,o),
(2,229,o),
(17,272,cs),
(32,315,o),
(53,362,o),
(81,413,cs),
(87,423,o),
(94,428,o),
(101,428,cs),
(112,428,o),
(118,420,o),
(118,410,cs),
(118,403,o),
(116,397,o),
(114,391,c),
(96,351,o),
(70,313,o),
(59,265,cs),
(56,254,o),
(54,241,o),
(54,230,cs),
(54,195,o),
(64,180,o),
(95,167,c),
(116,163,o),
(134,162,o),
(151,162,cs),
(184,162,o),
(214,167,o),
(242,178,cs),
(286,194,o),
(320,214,o),
(351,242,c),
(351,245,ls),
(351,298,o),
(338,337,o),
(326,378,c),
(380,503,ls),
(382,508,o),
(386,510,o),
(391,510,cs),
(396,510,o),
(399,508,o),
(402,503,cs),
(436,427,l),
(438,421,o),
(444,418,o),
(454,418,cs),
(459,418,o),
(464,418,o),
(470,419,c),
(524,481,o),
(583,546,o),
(643,602,cs),
(662,620,o),
(697,637,o),
(738,637,cs)
);
},
{
closed = 1;
nodes = (
(697,482,o),
(696,484,o),
(694,488,c),
(688,499,o),
(671,508,o),
(654,508,cs),
(646,508,o),
(639,506,o),
(633,502,c),
(600,485,o),
(576,459,o),
(550,434,c),
(603,445,o),
(655,459,o),
(698,479,c)
);
}
);
width = 881;
}
);
unicode = 1589;
},
{
glyphname = "sad-ar.jalt";
layers = (
{
anchors = (
{
name = bottom.mark;
pos = (576,-167);
},
{
name = top;
pos = (1138,760);
},
{
name = top.mark;
pos = (998,743);
}
);
layerId = "1467EB51-6BD4-4CFC-AEAA-3E4EB1A95CFA";
shapes = (
{
closed = 1;
nodes = (
(178,21,o),
(102,51,o),
(59,98,cs),
(-33,198,o),
(-7,321,o),
(72,422,cs),
(152,524,o),
(266,581,o),
(409,618,cs),
(473,635,o),
(545,645,o),
(624,648,c),
(571,535,l),
(489,532,o),
(403,518,o),
(313,490,cs),
(223,462,o),
(148,420,o),
(87,362,cs),
(69,344,o),
(58,326,o),
(56,306,cs),
(54,286,o),
(69,262,o),
(101,235,cs),
(186,162,o),
(306,126,o),
(463,128,c),
(543,134,o),
(623,142,o),
(695,158,cs),
(731,165,o),
(773,180,o),
(822,201,cs),
(895,233,o),
(896,233,o),
(896,233,c),
(898,266,o),
(875,326,o),
(865,354,c),
(934,456,ls),
(945,473,o),
(952,472,o),
(956,453,cs),
(961,427,o),
(964,408,o),
(966,395,cs),
(968,382,o),
(983,377,o),
(1012,384,c),
(1013,386,o),
(1023,396,o),
(1040,415,cs),
(1074,452,o),
(1121,502,o),
(1157,539,cs),
(1196,579,o),
(1201,594,o),
(1262,605,cs),
(1293,611,o),
(1317,604,o),
(1334,584,c),
(1355,559,o),
(1358,533,o),
(1344,505,cs),
(1298,416,o),
(1240,355,o),
(1141,313,cs),
(1074,285,o),
(1012,264,o),
(953,247,c),
(952,244,o),
(950,238,o),
(945,227,c),
(920,176,o),
(881,134,o),
(828,102,cs),
(731,44,o),
(601,8,o),
(458,2,cs),
(393,-1,o),
(336,1,o),
(287,7,cs)
);
},
{
closed = 1;
nodes = (
(1236,492,o),
(1196,507,o),
(1167,492,cs),
(1120,466,o),
(1086,427,o),
(1050,390,c),
(1121,404,o),
(1189,418,o),
(1246,446,cs),
(1254,450,o),
(1254,458,o),
(1247,472,cs)
);
}
);
width = 1390;
},
{
anchors = (
{
name = bottom.mark;
pos = (576,-167);
},
{
name = top;
pos = (1138,760);
},
{
name = top.mark;
pos = (998,743);
}
);
layerId = "EF321139-F770-433D-B2B6-C3EFA1B16465";
shapes = (
{
closed = 1;
nodes = (
(305,0,o),
(213,15,o),
(149,40,cs),
(111,55,o),
(82,74,o),
(60,98,cs),
(20,141,o),
(0,189,o),
(0,241,cs),
(0,244,o),
(0,245,o),
(0,249,cs),
(0,252,o),
(0,254,o),
(0,257,cs),
(8,323,o),
(36,381,o),
(71,426,cs),
(114,482,o),
(168,525,o),
(230,556,cs),
(336,610,o),
(460,644,o),
(614,650,cs),
(622,651,o),
(630,643,o),
(625,633,c),
(574,524,ls),
(573,521,o),
(568,517,o),
(564,517,cs),
(473,514,o),
(395,498,o),
(317,474,c),
(232,448,o),
(161,407,o),
(104,353,cs),
(88,338,o),
(79,323,o),
(78,306,cs),
(77,291,o),
(90,272,o),
(117,248,cs),
(193,181,o),
(302,147,o),
(444,147,cs),
(458,147,l),
(555,155,o),
(657,164,o),
(736,191,cs),
(776,205,o),
(827,228,o),
(865,245,c),
(864,263,o),
(852,301,o),
(846,320,cs),
(843,331,o),
(840,341,o),
(836,351,cs),
(835,354,o),
(836,359,o),
(837,361,cs),
(904,459,ls),
(911,470,o),
(919,476,o),
(927,476,cs),
(948,476,o),
(950,438,o),
(953,419,cs),
(955,409,o),
(956,402,o),
(957,395,cs),
(957,393,o),
(960,392,o),
(966,392,cs),
(971,392,o),
(977,393,o),
(983,394,c),
(997,413,o),
(1017,431,o),
(1034,449,cs),
(1062,479,o),
(1092,512,o),
(1121,541,c),
(1141,563,o),
(1158,583,o),
(1187,596,cs),
(1199,601,o),
(1213,606,o),
(1229,609,c),
(1236,610,o),
(1243,610,o),
(1251,610,cs),
(1276,610,o),
(1295,602,o),
(1310,584,cs),
(1324,567,o),
(1331,550,o),
(1331,532,cs),
(1331,502,o),
(1311,476,o),
(1299,456,cs),
(1257,388,o),
(1198,337,o),
(1119,304,cs),
(1061,280,o),
(1002,258,o),
(941,240,c),
(915,180,o),
(874,134,o),
(817,100,cs),
(720,43,o),
(600,9,o),
(455,1,cs),
(446,0,o),
(437,0,o),
(427,0,cs),
(412,0,o),
(412,0,o),
(400,0,cs)
);
},
{
closed = 1;
nodes = (
(1200,471,o),
(1184,482,o),
(1166,482,cs),
(1159,482,o),
(1152,480,o),
(1145,477,cs),
(1113,459,o),
(1087,433,o),
(1062,408,c),
(1116,419,o),
(1167,432,o),
(1210,453,cs),
(1210,453,o),
(1209,456,o),
(1206,462,c)
);
}
);
width = 1390;
}
);
},
{
glyphname = "sad-ar.fina";
layers = (
{
anchors = (
{
name = bottom;
pos = (633,62);
},
{
name = bottom.mark;
pos = (633,92);
},
{
name = entry;
pos = (460,55);
},
{
name = top;
pos = (685,781);
},
{
name = top.mark;
pos = (668,782);
}
);
layerId = "1467EB51-6BD4-4CFC-AEAA-3E4EB1A95CFA";
shapes = (
{
closed = 1;
nodes = (
(551,417,o),
(560,427,o),
(577,446,cs),
(621,494,o),
(685,562,o),
(730,607,cs),
(746,621,o),
(769,631,o),
(800,637,cs),
(831,643,o),
(856,636,o),
(873,616,cs),
(894,591,o),
(896,565,o),
(882,537,cs),
(868,509,o),
(852,484,o),
(835,462,cs),
(783,392,o),
(720,348,o),
(646,331,cs),
(572,314,o),
(496,300,o),
(420,289,c),
(408,231,o),
(385,177,o),
(350,126,cs),
(313,73,o),
(267,37,o),
(211,16,cs),
(155,-5,o),
(108,-5,o),
(68,14,cs),
(28,33,o),
(6,75,o),
(0,139,cs),
(-6,203,o),
(23,293,o),
(87,409,c),
(95,425,o),
(107,420,o),
(99,397,c),
(83,361,o),
(53,308,o),
(42,264,cs),
(27,204,o),
(42,168,o),
(87,149,c),
(146,138,o),
(200,142,o),
(248,161,cs),
(296,180,o),
(336,204,o),
(368,233,c),
(369,290,o),
(356,334,o),
(343,378,c),
(397,503,l),
(410,475,o),
(419,453,o),
(425,437,cs),
(431,421,o),
(440,412,o),
(454,409,c),
(470,405,o),
(488,405,o),
(510,409,cs),
(532,413,o),
(545,415,o),
(550,416,c)
);
},
{
closed = 1;
nodes = (
(774,524,o),
(735,539,o),
(706,523,cs),
(659,497,o),
(624,459,o),
(588,422,c),
(658,436,o),
(726,451,o),
(783,478,cs),
(791,482,o),
(792,490,o),
(785,504,cs)
);
}
);
width = 563;
},
{
anchors = (
{
name = bottom;
pos = (633,62);
},
{
name = bottom.mark;
pos = (633,92);
},
{
name = entry;
pos = (460,55);
},
{
name = top;
pos = (685,781);
},
{
name = top.mark;
pos = (668,782);
}
);
layerId = "EF321139-F770-433D-B2B6-C3EFA1B16465";
shapes = (
{
closed = 1;
nodes = (
(437,419,o),
(448,416,o),
(472,416,cs),
(479,416,o),
(488,416,o),
(498,418,cs),
(533,425,l),
(577,475,o),
(623,524,o),
(670,571,c),
(705,607,l),
(724,625,o),
(764,642,o),
(801,642,cs),
(843,642,o),
(880,605,o),
(880,563,cs),
(880,550,o),
(877,538,o),
(870,525,cs),
(819,431,o),
(746,349,o),
(634,320,c),
(564,304,o),
(498,291,o),
(423,280,c),
(409,221,o),
(385,172,o),
(355,127,c),
(310,63,o),
(254,21,o),
(173,5,cs),
(159,2,o),
(146,0,o),
(134,0,cs),
(111,0,o),
(88,5,o),
(67,15,cs),
(24,36,o),
(3,86,o),
(-4,146,cs),
(-4,148,o),
(-5,150,o),
(-5,153,cs),
(-5,158,o),
(-5,158,o),
(-5,161,cs),
(-5,193,o),
(2,229,o),
(16,271,cs),
(30,313,o),
(53,360,o),
(82,413,c),
(82,413,l),
(89,427,o),
(97,431,o),
(108,426,c),
(108,427,l),
(130,416,o),
(109,379,o),
(101,364,cs),
(84,330,o),
(61,291,o),
(55,247,cs),
(54,241,o),
(54,236,o),
(54,230,cs),
(54,221,o),
(56,213,o),
(57,205,c),
(62,189,o),
(75,176,o),
(96,167,c),
(117,163,o),
(135,162,o),
(152,162,cs),
(216,162,o),
(261,184,o),
(302,207,cs),
(321,218,o),
(338,229,o),
(352,242,c),
(353,295,o),
(339,336,o),
(326,378,c),
(381,503,ls),
(383,508,o),
(386,510,o),
(391,510,cs),
(396,510,o),
(400,508,o),
(402,503,cs),
(413,480,o),
(421,460,o),
(429,438,c),
(429,438,l)
);
},
{
closed = 1;
nodes = (
(749,503,o),
(734,512,o),
(715,512,cs),
(708,512,o),
(702,510,o),
(695,507,cs),
(663,489,o),
(636,464,o),
(611,439,c),
(665,450,o),
(715,463,o),
(759,484,cs),
(760,485,o),
(758,487,o),
(755,493,cs)
);
}
);
width = 563;
}
);
},
